<?xml version="1.0" encoding="utf-8"?>
<!-- Generator: Adobe Illustrator 27.3.1, SVG Export Plug-In . SVG Version: 6.00 Build 0)  -->
<svg version="1.1" id="Layer_1" xmlns="http://www.w3.org/2000/svg" xmlns:xlink="http://www.w3.org/1999/xlink" x="0px" y="0px"
	 viewBox="0 0 247 242" style="enable-background:new 0 0 247 242;" xml:space="preserve">
<style type="text/css">
	.st0{fill:none;stroke:#39BFA7;stroke-width:5.2;}
	.st1{fill-rule:evenodd;clip-rule:evenodd;fill:#FFFFFF;}
	.st2{fill:#39BFA7;}
	.st3{fill:#222222;}
	.st4{fill:#FFFFFF;}
</style>
<g>
	<g>
		<path shape-rendering="crispEdges" class="st0" d="M57.73,66.77c0.7-0.7,1.84-0.7,2.55,0l52.95,52.95c0.7,0.7,0.7,1.84,0,2.55
			l-52.95,52.95c-0.7,0.7-1.84,0.7-2.55,0L4.77,122.27c-0.7-0.7-0.7-1.84,0-2.55L57.73,66.77z"/>
	</g>
	<g>
		<path class="st1" d="M110.13,123.99c1.56-1.56,1.56-4.09,0-5.66L61.99,70.2c-1.56-1.56-4.09-1.56-5.66,0L8.2,118.34
			c-1.56,1.56-1.56,4.09,0,5.66l48.14,48.14c1.56,1.56,4.09,1.56,5.66,0L110.13,123.99z M61.21,74.97c-1.25-1.25-3.28-1.25-4.53,0
			L44.06,87.58c-1.25,1.25-1.25,3.28,0,4.53l12.62,12.62c1.25,1.25,3.28,1.25,4.53,0l12.62-12.62c1.25-1.25,1.25-3.28,0-4.53
			L61.21,74.97z M57.81,76.1c0.62-0.62,1.64-0.62,2.26,0l12.62,12.62c0.62,0.62,0.62,1.64,0,2.26l-12.62,12.62
			c-0.62,0.62-1.64,0.62-2.26,0L45.2,90.98c-0.62-0.62-0.62-1.64,0-2.26L57.81,76.1z"/>
	</g>
	<g>
		<path class="st2" d="M57.69,75.78c0.63-0.63,1.65-0.63,2.28,0L72.72,88.7c0.61,0.62,0.61,1.62,0,2.25l-12.75,12.92
			c-0.63,0.63-1.65,0.63-2.28,0L44.93,90.95c-0.61-0.62-0.61-1.62,0-2.25L57.69,75.78z"/>
	</g>
	<path class="st3" d="M46.4,121.44v3.58h-1.72v-3.58l-3.37-5.67h1.52c0.15,0,0.27,0.04,0.35,0.11c0.09,0.07,0.16,0.16,0.22,0.28
		l1.69,3.09c0.1,0.18,0.18,0.36,0.26,0.52c0.08,0.16,0.15,0.32,0.2,0.49c0.06-0.16,0.12-0.32,0.19-0.49
		c0.07-0.16,0.16-0.33,0.25-0.52l1.68-3.09c0.05-0.09,0.12-0.18,0.21-0.26c0.09-0.08,0.21-0.12,0.36-0.12h1.52L46.4,121.44z
		 M54.28,120.99c0-0.2-0.03-0.4-0.09-0.58c-0.06-0.18-0.14-0.34-0.26-0.48c-0.12-0.14-0.26-0.24-0.44-0.32
		c-0.17-0.08-0.38-0.12-0.61-0.12c-0.46,0-0.82,0.13-1.08,0.39c-0.26,0.26-0.43,0.63-0.5,1.11H54.28z M51.27,121.94
		c0.03,0.34,0.09,0.63,0.18,0.88c0.09,0.24,0.22,0.45,0.37,0.61c0.15,0.16,0.33,0.28,0.54,0.36c0.21,0.08,0.45,0.12,0.7,0.12
		c0.26,0,0.48-0.03,0.66-0.09c0.19-0.06,0.35-0.13,0.49-0.2c0.14-0.07,0.26-0.14,0.36-0.2c0.11-0.06,0.21-0.09,0.31-0.09
		c0.13,0,0.23,0.05,0.29,0.15l0.45,0.58c-0.17,0.2-0.37,0.38-0.59,0.52c-0.22,0.14-0.45,0.25-0.68,0.33
		c-0.23,0.08-0.48,0.14-0.72,0.17c-0.24,0.03-0.48,0.05-0.71,0.05c-0.46,0-0.88-0.07-1.27-0.22c-0.39-0.15-0.73-0.38-1.02-0.67
		c-0.29-0.3-0.52-0.67-0.68-1.1c-0.17-0.44-0.25-0.95-0.25-1.52c0-0.45,0.07-0.87,0.22-1.26c0.15-0.4,0.35-0.74,0.62-1.03
		c0.27-0.29,0.6-0.53,0.99-0.7c0.39-0.17,0.83-0.26,1.32-0.26c0.41,0,0.8,0.07,1.15,0.2c0.35,0.13,0.65,0.33,0.9,0.58
		c0.25,0.25,0.45,0.56,0.59,0.93c0.15,0.37,0.22,0.79,0.22,1.26c0,0.24-0.03,0.4-0.08,0.49c-0.05,0.08-0.15,0.12-0.29,0.12H51.27z
		 M61.38,122.22c-0.46,0.02-0.84,0.06-1.15,0.12c-0.31,0.06-0.56,0.13-0.75,0.22c-0.19,0.09-0.32,0.19-0.4,0.31
		c-0.08,0.12-0.12,0.25-0.12,0.39c0,0.28,0.08,0.48,0.24,0.6c0.17,0.12,0.38,0.18,0.65,0.18c0.32,0,0.6-0.06,0.84-0.17
		c0.24-0.12,0.47-0.3,0.7-0.54V122.22z M57.76,119.37c0.76-0.69,1.66-1.04,2.73-1.04c0.38,0,0.73,0.06,1.03,0.19
		c0.3,0.12,0.56,0.3,0.77,0.52c0.21,0.22,0.37,0.49,0.47,0.8c0.11,0.31,0.17,0.65,0.17,1.02v4.15h-0.72c-0.15,0-0.26-0.02-0.35-0.06
		c-0.08-0.05-0.15-0.14-0.19-0.28l-0.14-0.47c-0.17,0.15-0.33,0.28-0.49,0.4c-0.16,0.11-0.32,0.2-0.49,0.28
		c-0.17,0.08-0.35,0.13-0.55,0.17c-0.19,0.04-0.41,0.06-0.64,0.06c-0.28,0-0.53-0.04-0.77-0.11c-0.23-0.08-0.44-0.19-0.61-0.34
		s-0.3-0.33-0.4-0.56c-0.09-0.22-0.14-0.48-0.14-0.77c0-0.17,0.03-0.33,0.08-0.49c0.06-0.17,0.15-0.32,0.27-0.47
		c0.13-0.15,0.29-0.29,0.49-0.42c0.2-0.13,0.45-0.25,0.74-0.35c0.29-0.1,0.64-0.18,1.02-0.24c0.39-0.06,0.83-0.1,1.33-0.12v-0.38
		c0-0.44-0.09-0.76-0.28-0.97c-0.19-0.21-0.46-0.32-0.81-0.32c-0.26,0-0.47,0.03-0.64,0.09c-0.17,0.06-0.31,0.13-0.44,0.2
		c-0.13,0.07-0.25,0.14-0.35,0.2c-0.1,0.06-0.22,0.09-0.35,0.09c-0.11,0-0.2-0.03-0.28-0.08c-0.08-0.06-0.14-0.13-0.19-0.2
		L57.76,119.37z M66.93,119.6c0.2-0.39,0.45-0.7,0.73-0.92c0.28-0.23,0.61-0.34,1-0.34c0.3,0,0.55,0.07,0.73,0.2l-0.1,1.18
		c-0.02,0.08-0.05,0.13-0.1,0.17c-0.04,0.03-0.09,0.04-0.16,0.04c-0.06,0-0.16-0.01-0.29-0.03c-0.12-0.02-0.25-0.03-0.36-0.03
		c-0.17,0-0.33,0.03-0.47,0.08s-0.26,0.13-0.37,0.22c-0.11,0.09-0.2,0.21-0.29,0.35c-0.08,0.14-0.16,0.29-0.23,0.47v4.04h-1.58
		v-6.57h0.93c0.16,0,0.28,0.03,0.34,0.09c0.06,0.06,0.11,0.16,0.13,0.31L66.93,119.6z M75.22,119.74c-0.04,0.07-0.09,0.12-0.13,0.15
		c-0.05,0.03-0.11,0.04-0.18,0.04c-0.08,0-0.16-0.02-0.25-0.06c-0.09-0.04-0.19-0.09-0.3-0.14c-0.12-0.06-0.25-0.1-0.4-0.15
		c-0.15-0.04-0.32-0.06-0.52-0.06c-0.31,0-0.56,0.07-0.74,0.2c-0.17,0.13-0.26,0.31-0.26,0.52c0,0.14,0.04,0.26,0.13,0.36
		c0.09,0.09,0.22,0.18,0.36,0.25c0.15,0.07,0.33,0.14,0.52,0.2c0.19,0.06,0.39,0.12,0.58,0.19c0.2,0.07,0.4,0.15,0.59,0.24
		c0.19,0.09,0.36,0.2,0.51,0.33c0.15,0.13,0.28,0.29,0.36,0.48c0.09,0.19,0.14,0.41,0.14,0.68c0,0.32-0.06,0.61-0.17,0.88
		c-0.11,0.26-0.28,0.49-0.5,0.69c-0.22,0.19-0.5,0.34-0.83,0.45c-0.32,0.11-0.7,0.16-1.13,0.16c-0.23,0-0.45-0.02-0.67-0.06
		c-0.21-0.04-0.42-0.09-0.62-0.17c-0.2-0.07-0.38-0.16-0.55-0.26c-0.17-0.1-0.31-0.2-0.44-0.32l0.36-0.6
		c0.05-0.07,0.1-0.13,0.17-0.17s0.15-0.06,0.24-0.06c0.1,0,0.19,0.03,0.28,0.08c0.09,0.06,0.19,0.12,0.31,0.18
		c0.12,0.06,0.25,0.12,0.4,0.18c0.16,0.06,0.36,0.08,0.6,0.08c0.19,0,0.35-0.02,0.48-0.06c0.14-0.05,0.25-0.11,0.33-0.18
		c0.09-0.07,0.15-0.16,0.19-0.25c0.04-0.1,0.06-0.2,0.06-0.3c0-0.15-0.05-0.28-0.14-0.38c-0.09-0.1-0.21-0.18-0.36-0.26
		c-0.15-0.07-0.32-0.14-0.52-0.19c-0.19-0.06-0.39-0.12-0.6-0.19c-0.2-0.07-0.4-0.15-0.6-0.24c-0.19-0.09-0.36-0.21-0.52-0.35
		c-0.15-0.14-0.27-0.31-0.36-0.52c-0.09-0.2-0.13-0.45-0.13-0.74c0-0.27,0.05-0.52,0.16-0.77c0.11-0.24,0.26-0.45,0.47-0.63
		c0.21-0.18,0.47-0.33,0.77-0.44c0.31-0.11,0.67-0.17,1.08-0.17c0.45,0,0.86,0.07,1.24,0.22c0.37,0.15,0.68,0.35,0.93,0.59
		L75.22,119.74z M49.8,136.14v2.57h3.24v1.32H49.8v2.62h4.11v1.38h-5.84v-9.25h5.84v1.37H49.8z M62.07,144.02h-1.52
		c-0.12,0-0.21-0.03-0.28-0.09c-0.07-0.06-0.13-0.13-0.17-0.2l-1.39-2.28c-0.02,0.07-0.05,0.14-0.08,0.2
		c-0.03,0.06-0.06,0.12-0.09,0.18l-1.23,1.9c-0.05,0.07-0.1,0.14-0.17,0.2c-0.07,0.06-0.15,0.09-0.26,0.09h-1.41l2.25-3.39
		l-2.16-3.18h1.52c0.12,0,0.2,0.02,0.26,0.05c0.06,0.03,0.1,0.08,0.15,0.15l1.38,2.19c0.05-0.15,0.11-0.29,0.2-0.43l1.11-1.73
		c0.09-0.16,0.22-0.24,0.36-0.24h1.45l-2.16,3.11L62.07,144.02z M65.5,142.32c0.18,0.22,0.37,0.37,0.58,0.46
		c0.21,0.09,0.44,0.13,0.69,0.13c0.24,0,0.45-0.04,0.65-0.13c0.19-0.09,0.35-0.23,0.49-0.41c0.14-0.18,0.24-0.41,0.31-0.69
		c0.07-0.28,0.11-0.61,0.11-0.99c0-0.38-0.03-0.71-0.1-0.97c-0.06-0.27-0.15-0.49-0.26-0.65c-0.12-0.17-0.26-0.29-0.42-0.36
		c-0.16-0.08-0.35-0.12-0.56-0.12c-0.33,0-0.61,0.07-0.84,0.21c-0.23,0.14-0.45,0.33-0.65,0.58V142.32z M65.41,138.35
		c0.27-0.3,0.57-0.55,0.92-0.74c0.34-0.19,0.74-0.28,1.2-0.28c0.36,0,0.68,0.07,0.98,0.22c0.3,0.15,0.55,0.37,0.77,0.65
		c0.22,0.28,0.38,0.63,0.5,1.05c0.12,0.41,0.18,0.89,0.18,1.43c0,0.49-0.07,0.95-0.2,1.36c-0.13,0.42-0.32,0.78-0.57,1.09
		c-0.24,0.31-0.54,0.55-0.89,0.72c-0.35,0.17-0.73,0.26-1.16,0.26c-0.37,0-0.68-0.06-0.94-0.17c-0.26-0.12-0.49-0.27-0.7-0.47v2.69
		h-1.58v-8.71h0.97c0.2,0,0.34,0.1,0.4,0.29L65.41,138.35z"/>
	<path class="st4" d="M58.26,92.08v0.74h-3.2v-0.74h1.17v-3.37c0-0.13,0-0.27,0.01-0.41L55.42,89c-0.05,0.04-0.1,0.06-0.14,0.07
		c-0.05,0.01-0.09,0.01-0.13,0c-0.04-0.01-0.08-0.02-0.11-0.04c-0.03-0.02-0.06-0.04-0.07-0.07l-0.31-0.43l1.76-1.5h0.81v5.05H58.26
		z M63.62,92.08v0.74h-3.2v-0.74h1.17v-3.37c0-0.13,0-0.27,0.01-0.41L60.78,89c-0.05,0.04-0.1,0.06-0.14,0.07
		c-0.05,0.01-0.09,0.01-0.13,0c-0.04-0.01-0.08-0.02-0.11-0.04c-0.03-0.02-0.06-0.04-0.07-0.07l-0.31-0.43l1.76-1.5h0.81v5.05H63.62
		z"/>
</g>
<g>
	<g>
		<path shape-rendering="crispEdges" class="st0" d="M122.73,129.77c0.7-0.7,1.84-0.7,2.55,0l52.95,52.95c0.7,0.7,0.7,1.84,0,2.55
			l-52.95,52.95c-0.7,0.7-1.84,0.7-2.55,0l-52.95-52.95c-0.7-0.7-0.7-1.84,0-2.55L122.73,129.77z"/>
	</g>
	<g>
		<path class="st1" d="M175.13,186.99c1.56-1.56,1.56-4.09,0-5.66l-48.14-48.14c-1.56-1.56-4.09-1.56-5.66,0L73.2,181.34
			c-1.56,1.56-1.56,4.09,0,5.66l48.14,48.14c1.56,1.56,4.09,1.56,5.66,0L175.13,186.99z M126.21,137.97c-1.25-1.25-3.28-1.25-4.53,0
			l-12.62,12.62c-1.25,1.25-1.25,3.28,0,4.53l12.62,12.62c1.25,1.25,3.28,1.25,4.53,0l12.62-12.62c1.25-1.25,1.25-3.28,0-4.53
			L126.21,137.97z M122.81,139.1c0.62-0.62,1.64-0.62,2.26,0l12.62,12.62c0.62,0.62,0.62,1.64,0,2.26l-12.62,12.62
			c-0.62,0.62-1.64,0.62-2.26,0l-12.62-12.62c-0.62-0.62-0.62-1.64,0-2.26L122.81,139.1z"/>
	</g>
	<g>
		<path class="st2" d="M122.69,138.78c0.63-0.63,1.65-0.63,2.28,0l12.75,12.92c0.61,0.62,0.61,1.62,0,2.25l-12.75,12.92
			c-0.63,0.63-1.65,0.63-2.28,0l-12.75-12.92c-0.61-0.62-0.61-1.62,0-2.25L122.69,138.78z"/>
	</g>
	<path class="st3" d="M118.15,183.38v3.74c-0.47,0.35-0.97,0.6-1.5,0.76c-0.53,0.16-1.1,0.24-1.7,0.24c-0.76,0-1.44-0.12-2.05-0.35
		c-0.61-0.23-1.13-0.56-1.57-0.98c-0.43-0.42-0.76-0.92-1-1.5c-0.23-0.58-0.35-1.21-0.35-1.9c0-0.7,0.11-1.33,0.34-1.91
		c0.23-0.58,0.55-1.08,0.96-1.5c0.42-0.42,0.92-0.74,1.52-0.97c0.59-0.23,1.26-0.35,2-0.35c0.38,0,0.73,0.03,1.05,0.09
		c0.33,0.06,0.63,0.14,0.91,0.25c0.28,0.1,0.54,0.23,0.77,0.38c0.23,0.15,0.44,0.31,0.63,0.49l-0.49,0.78
		c-0.08,0.12-0.18,0.2-0.3,0.23c-0.12,0.03-0.26-0.01-0.4-0.1c-0.14-0.08-0.28-0.16-0.42-0.24s-0.3-0.15-0.47-0.21
		c-0.17-0.06-0.36-0.11-0.58-0.15c-0.21-0.04-0.46-0.06-0.74-0.06c-0.46,0-0.87,0.08-1.24,0.23c-0.37,0.15-0.68,0.37-0.94,0.66
		c-0.26,0.29-0.46,0.63-0.6,1.03c-0.14,0.4-0.21,0.85-0.21,1.34c0,0.53,0.07,1,0.22,1.42c0.15,0.41,0.37,0.77,0.64,1.06
		c0.28,0.29,0.61,0.51,1,0.66c0.39,0.15,0.82,0.22,1.3,0.22c0.34,0,0.65-0.04,0.92-0.11c0.27-0.07,0.53-0.17,0.79-0.29v-1.68h-1.16
		c-0.11,0-0.2-0.03-0.26-0.09c-0.06-0.06-0.09-0.14-0.09-0.23v-0.97H118.15z M122.19,181.46v6.57h-1.59v-6.57H122.19z
		 M122.41,179.54c0,0.14-0.03,0.26-0.08,0.38c-0.06,0.12-0.13,0.22-0.22,0.31c-0.09,0.09-0.2,0.16-0.32,0.22
		c-0.12,0.05-0.26,0.08-0.4,0.08c-0.14,0-0.27-0.03-0.39-0.08c-0.12-0.06-0.22-0.13-0.31-0.22c-0.09-0.09-0.16-0.19-0.22-0.31
		c-0.05-0.12-0.08-0.25-0.08-0.38c0-0.14,0.03-0.27,0.08-0.4c0.06-0.12,0.13-0.23,0.22-0.32c0.09-0.09,0.19-0.16,0.31-0.21
		c0.12-0.06,0.25-0.08,0.39-0.08c0.14,0,0.27,0.03,0.4,0.08c0.12,0.05,0.23,0.12,0.32,0.21c0.09,0.09,0.17,0.2,0.22,0.32
		C122.38,179.27,122.41,179.4,122.41,179.54z M128.95,183.14c-0.18-0.22-0.38-0.37-0.59-0.46c-0.21-0.09-0.44-0.13-0.68-0.13
		c-0.24,0-0.45,0.04-0.65,0.13s-0.36,0.23-0.49,0.41c-0.14,0.18-0.24,0.41-0.31,0.69c-0.07,0.28-0.11,0.61-0.11,0.99
		c0,0.38,0.03,0.71,0.09,0.98c0.06,0.26,0.15,0.48,0.27,0.65c0.12,0.17,0.26,0.29,0.42,0.36c0.17,0.07,0.35,0.11,0.56,0.11
		c0.33,0,0.61-0.07,0.84-0.2c0.23-0.14,0.45-0.33,0.65-0.58V183.14z M130.53,178.51v9.51h-0.97c-0.21,0-0.34-0.1-0.4-0.29
		l-0.13-0.63c-0.26,0.3-0.57,0.55-0.92,0.74c-0.34,0.19-0.74,0.28-1.2,0.28c-0.36,0-0.69-0.07-0.99-0.22
		c-0.3-0.15-0.56-0.36-0.77-0.65c-0.21-0.29-0.38-0.64-0.5-1.06c-0.12-0.42-0.17-0.9-0.17-1.43c0-0.49,0.07-0.94,0.2-1.36
		c0.13-0.42,0.32-0.78,0.57-1.09c0.25-0.31,0.54-0.55,0.89-0.72c0.35-0.17,0.73-0.26,1.16-0.26c0.37,0,0.68,0.06,0.94,0.17
		c0.26,0.12,0.49,0.27,0.7,0.47v-3.46H130.53z M137.12,182.74c-0.04,0.07-0.09,0.12-0.13,0.15c-0.05,0.03-0.11,0.04-0.18,0.04
		c-0.08,0-0.16-0.02-0.25-0.06c-0.09-0.04-0.19-0.09-0.3-0.14c-0.12-0.06-0.25-0.1-0.4-0.15c-0.15-0.04-0.32-0.06-0.52-0.06
		c-0.31,0-0.56,0.07-0.74,0.2c-0.18,0.13-0.26,0.31-0.26,0.52c0,0.14,0.04,0.26,0.13,0.36c0.09,0.09,0.22,0.18,0.36,0.25
		c0.15,0.07,0.33,0.14,0.52,0.2c0.19,0.06,0.39,0.12,0.58,0.19c0.2,0.07,0.4,0.15,0.59,0.24c0.19,0.09,0.36,0.2,0.51,0.33
		c0.15,0.13,0.28,0.29,0.36,0.48c0.09,0.19,0.14,0.41,0.14,0.68c0,0.32-0.06,0.61-0.17,0.88c-0.11,0.26-0.28,0.49-0.5,0.69
		c-0.22,0.19-0.5,0.34-0.83,0.45c-0.32,0.11-0.7,0.16-1.13,0.16c-0.23,0-0.45-0.02-0.67-0.06c-0.21-0.04-0.42-0.09-0.62-0.17
		c-0.2-0.07-0.38-0.16-0.55-0.26c-0.17-0.1-0.31-0.2-0.44-0.32l0.36-0.6c0.05-0.07,0.1-0.13,0.17-0.17
		c0.06-0.04,0.15-0.06,0.24-0.06c0.1,0,0.19,0.03,0.28,0.08c0.09,0.06,0.19,0.12,0.31,0.18c0.12,0.06,0.25,0.12,0.4,0.18
		c0.16,0.06,0.36,0.08,0.6,0.08c0.19,0,0.35-0.02,0.48-0.06c0.14-0.05,0.25-0.11,0.33-0.18c0.09-0.07,0.15-0.16,0.19-0.25
		c0.04-0.1,0.06-0.2,0.06-0.3c0-0.15-0.05-0.28-0.14-0.38c-0.09-0.1-0.21-0.18-0.36-0.26c-0.15-0.07-0.32-0.14-0.52-0.19
		c-0.19-0.06-0.39-0.12-0.6-0.19c-0.2-0.07-0.4-0.15-0.6-0.24c-0.19-0.09-0.36-0.21-0.52-0.35c-0.15-0.14-0.27-0.31-0.36-0.52
		c-0.09-0.2-0.13-0.45-0.13-0.74c0-0.27,0.05-0.52,0.16-0.77c0.11-0.24,0.26-0.45,0.47-0.63c0.21-0.18,0.47-0.33,0.77-0.44
		c0.31-0.11,0.67-0.17,1.08-0.17c0.45,0,0.86,0.07,1.24,0.22c0.37,0.15,0.68,0.35,0.93,0.59L137.12,182.74z"/>
	<path class="st4" d="M123.26,155.08v0.74h-3.2v-0.74h1.17v-3.37c0-0.13,0-0.27,0.01-0.41l-0.83,0.7c-0.05,0.04-0.1,0.06-0.14,0.07
		c-0.05,0.01-0.09,0.01-0.13,0c-0.04-0.01-0.08-0.02-0.11-0.04c-0.03-0.02-0.06-0.04-0.07-0.07l-0.31-0.43l1.76-1.5h0.81v5.05
		H123.26z M128.41,154.9c0.11,0,0.19,0.03,0.25,0.09c0.06,0.06,0.1,0.14,0.1,0.24v0.59h-3.97v-0.33c0-0.07,0.01-0.14,0.04-0.21
		c0.03-0.07,0.07-0.14,0.14-0.2l1.76-1.76c0.15-0.15,0.28-0.29,0.39-0.43c0.12-0.14,0.21-0.27,0.29-0.4
		c0.08-0.13,0.14-0.27,0.18-0.4c0.04-0.14,0.06-0.28,0.06-0.44c0-0.14-0.02-0.26-0.06-0.36c-0.04-0.11-0.1-0.2-0.17-0.27
		c-0.07-0.07-0.16-0.13-0.26-0.16c-0.1-0.04-0.22-0.06-0.34-0.06c-0.12,0-0.23,0.02-0.33,0.05c-0.1,0.03-0.19,0.08-0.26,0.14
		c-0.08,0.06-0.14,0.13-0.2,0.21c-0.05,0.08-0.09,0.17-0.12,0.26c-0.05,0.12-0.1,0.2-0.18,0.24c-0.07,0.04-0.18,0.05-0.31,0.03
		l-0.52-0.09c0.04-0.28,0.12-0.52,0.23-0.73c0.11-0.21,0.26-0.39,0.43-0.52c0.17-0.14,0.37-0.25,0.59-0.32
		c0.22-0.07,0.46-0.11,0.72-0.11c0.27,0,0.51,0.04,0.73,0.12c0.22,0.08,0.41,0.19,0.57,0.33c0.16,0.14,0.28,0.32,0.37,0.52
		c0.09,0.2,0.13,0.43,0.13,0.68c0,0.21-0.03,0.41-0.1,0.59c-0.06,0.18-0.15,0.35-0.25,0.52c-0.1,0.17-0.23,0.33-0.37,0.48
		c-0.14,0.15-0.29,0.31-0.44,0.47l-1.3,1.33c0.13-0.04,0.25-0.07,0.37-0.08c0.13-0.02,0.24-0.03,0.36-0.03H128.41z"/>
</g>
<g>
	<g>
		<path shape-rendering="crispEdges" class="st0" d="M187.73,66.77c0.7-0.7,1.84-0.7,2.55,0l52.95,52.95c0.7,0.7,0.7,1.84,0,2.55
			l-52.95,52.95c-0.7,0.7-1.84,0.7-2.55,0l-52.95-52.95c-0.7-0.7-0.7-1.84,0-2.55L187.73,66.77z"/>
	</g>
	<g>
		<path class="st1" d="M240.13,123.99c1.56-1.56,1.56-4.09,0-5.66L191.99,70.2c-1.56-1.56-4.09-1.56-5.66,0l-48.14,48.14
			c-1.56,1.56-1.56,4.09,0,5.66l48.14,48.14c1.56,1.56,4.09,1.56,5.66,0L240.13,123.99z M191.21,74.97c-1.25-1.25-3.28-1.25-4.53,0
			l-12.62,12.62c-1.25,1.25-1.25,3.28,0,4.53l12.62,12.62c1.25,1.25,3.28,1.25,4.53,0l12.62-12.62c1.25-1.25,1.25-3.28,0-4.53
			L191.21,74.97z M187.81,76.1c0.62-0.62,1.64-0.62,2.26,0l12.62,12.62c0.62,0.62,0.62,1.64,0,2.26l-12.62,12.62
			c-0.62,0.62-1.64,0.62-2.26,0L175.2,90.98c-0.62-0.62-0.62-1.64,0-2.26L187.81,76.1z"/>
	</g>
	<g>
		<path class="st2" d="M187.69,75.78c0.63-0.63,1.65-0.63,2.28,0l12.75,12.92c0.61,0.62,0.61,1.62,0,2.25l-12.75,12.92
			c-0.63,0.63-1.65,0.63-2.28,0l-12.75-12.92c-0.61-0.62-0.61-1.62,0-2.25L187.69,75.78z"/>
	</g>
	<path class="st3" d="M163.75,120.6v1.42h-5.42v-9.25h1.72v7.83H163.75z M168.32,115.36c0.49,0,0.93,0.08,1.32,0.24
		c0.4,0.16,0.74,0.38,1.02,0.67c0.29,0.29,0.51,0.64,0.66,1.06s0.23,0.89,0.23,1.4c0,0.52-0.08,0.99-0.23,1.41s-0.37,0.77-0.66,1.07
		c-0.28,0.29-0.62,0.52-1.02,0.68c-0.4,0.16-0.84,0.24-1.32,0.24c-0.49,0-0.94-0.08-1.34-0.24c-0.4-0.16-0.74-0.38-1.03-0.68
		c-0.28-0.29-0.5-0.65-0.66-1.07c-0.15-0.42-0.23-0.89-0.23-1.41c0-0.52,0.08-0.98,0.23-1.4c0.16-0.42,0.38-0.77,0.66-1.06
		c0.29-0.29,0.63-0.51,1.03-0.67C167.38,115.43,167.83,115.36,168.32,115.36z M168.32,120.9c0.55,0,0.95-0.18,1.21-0.55
		c0.26-0.37,0.4-0.9,0.4-1.61s-0.13-1.25-0.4-1.62c-0.26-0.37-0.66-0.56-1.21-0.56c-0.55,0-0.97,0.19-1.24,0.56
		c-0.26,0.37-0.4,0.91-0.4,1.61s0.13,1.24,0.4,1.61C167.35,120.72,167.76,120.9,168.32,120.9z M178.49,116.85
		c-0.05,0.06-0.09,0.11-0.14,0.14c-0.04,0.03-0.11,0.05-0.19,0.05c-0.08,0-0.16-0.02-0.24-0.07c-0.08-0.05-0.17-0.11-0.28-0.17
		c-0.11-0.06-0.23-0.12-0.38-0.17c-0.15-0.05-0.33-0.08-0.54-0.08c-0.28,0-0.52,0.05-0.73,0.15c-0.21,0.1-0.38,0.24-0.52,0.43
		c-0.14,0.19-0.24,0.42-0.31,0.68c-0.07,0.26-0.1,0.57-0.1,0.9c0,0.35,0.04,0.66,0.11,0.93c0.08,0.27,0.19,0.5,0.33,0.69
		c0.14,0.18,0.31,0.32,0.51,0.42c0.2,0.09,0.43,0.14,0.68,0.14c0.25,0,0.45-0.03,0.61-0.09c0.16-0.06,0.29-0.13,0.4-0.2
		c0.11-0.08,0.2-0.15,0.28-0.2c0.08-0.06,0.17-0.1,0.27-0.1c0.13,0,0.22,0.05,0.29,0.15l0.45,0.58c-0.17,0.2-0.36,0.38-0.57,0.52
		c-0.2,0.14-0.42,0.25-0.64,0.33c-0.22,0.08-0.44,0.14-0.68,0.17c-0.23,0.03-0.46,0.05-0.69,0.05c-0.41,0-0.79-0.07-1.15-0.22
		c-0.36-0.15-0.67-0.38-0.94-0.67c-0.27-0.29-0.48-0.64-0.64-1.06c-0.15-0.42-0.23-0.9-0.23-1.44c0-0.48,0.07-0.93,0.2-1.34
		c0.14-0.41,0.35-0.77,0.61-1.07c0.27-0.3,0.6-0.54,1-0.71s0.85-0.26,1.37-0.26c0.49,0,0.92,0.08,1.29,0.24
		c0.37,0.16,0.7,0.38,1,0.68L178.49,116.85z M184.46,119.22c-0.46,0.02-0.84,0.06-1.15,0.12c-0.31,0.06-0.56,0.13-0.75,0.22
		s-0.32,0.19-0.4,0.31c-0.08,0.12-0.12,0.25-0.12,0.39c0,0.28,0.08,0.48,0.24,0.6c0.17,0.12,0.38,0.18,0.65,0.18
		c0.32,0,0.6-0.06,0.84-0.17c0.24-0.12,0.47-0.3,0.7-0.54V119.22z M180.83,116.37c0.76-0.69,1.66-1.04,2.73-1.04
		c0.38,0,0.73,0.06,1.03,0.19c0.3,0.12,0.56,0.3,0.77,0.52c0.21,0.22,0.37,0.49,0.47,0.8c0.11,0.31,0.17,0.65,0.17,1.02v4.15h-0.72
		c-0.15,0-0.26-0.02-0.35-0.06c-0.08-0.05-0.15-0.14-0.19-0.28l-0.14-0.47c-0.17,0.15-0.33,0.28-0.49,0.4
		c-0.16,0.11-0.32,0.2-0.49,0.28c-0.17,0.08-0.35,0.13-0.55,0.17c-0.19,0.04-0.41,0.06-0.64,0.06c-0.28,0-0.53-0.04-0.77-0.11
		c-0.23-0.08-0.44-0.19-0.61-0.34s-0.3-0.33-0.4-0.56c-0.09-0.22-0.14-0.48-0.14-0.77c0-0.17,0.03-0.33,0.08-0.49
		c0.06-0.17,0.15-0.32,0.27-0.47c0.13-0.15,0.29-0.29,0.49-0.42c0.2-0.13,0.45-0.25,0.74-0.35c0.29-0.1,0.64-0.18,1.02-0.24
		c0.39-0.06,0.83-0.1,1.33-0.12v-0.38c0-0.44-0.09-0.76-0.28-0.97c-0.19-0.21-0.46-0.32-0.81-0.32c-0.26,0-0.47,0.03-0.64,0.09
		c-0.17,0.06-0.31,0.13-0.44,0.2c-0.13,0.07-0.25,0.14-0.35,0.2c-0.1,0.06-0.22,0.09-0.35,0.09c-0.11,0-0.2-0.03-0.28-0.08
		c-0.08-0.06-0.14-0.13-0.19-0.2L180.83,116.37z M195.05,122.02h-1.58v-5.38h-3.05v3.56c0,0.2,0.05,0.36,0.15,0.48
		c0.1,0.12,0.24,0.17,0.42,0.17c0.1,0,0.18-0.01,0.24-0.03c0.07-0.03,0.13-0.05,0.17-0.08c0.05-0.03,0.1-0.05,0.13-0.07
		c0.04-0.03,0.08-0.04,0.12-0.04c0.05,0,0.09,0.01,0.12,0.04c0.03,0.02,0.06,0.06,0.1,0.1l0.47,0.77c-0.23,0.19-0.49,0.34-0.79,0.44
		c-0.3,0.1-0.61,0.15-0.93,0.15c-0.57,0-1.01-0.16-1.32-0.48c-0.3-0.32-0.45-0.77-0.45-1.34v-3.67h-0.67
		c-0.09,0-0.16-0.03-0.22-0.08c-0.06-0.06-0.09-0.14-0.09-0.25v-0.63l1.06-0.18l0.33-1.79c0.02-0.09,0.06-0.15,0.12-0.2
		c0.06-0.05,0.14-0.07,0.23-0.07h0.82v2.07h4.63V122.02z M195.32,113.52c0,0.14-0.03,0.27-0.08,0.39c-0.06,0.12-0.13,0.22-0.22,0.31
		c-0.09,0.09-0.2,0.16-0.33,0.22c-0.12,0.05-0.26,0.08-0.4,0.08c-0.14,0-0.26-0.03-0.38-0.08c-0.12-0.06-0.22-0.13-0.31-0.22
		s-0.16-0.19-0.22-0.31c-0.05-0.12-0.08-0.25-0.08-0.39c0-0.14,0.03-0.27,0.08-0.39c0.06-0.12,0.13-0.23,0.22-0.32
		c0.09-0.09,0.19-0.17,0.31-0.22c0.12-0.06,0.25-0.08,0.38-0.08c0.14,0,0.27,0.03,0.4,0.08c0.13,0.05,0.24,0.12,0.33,0.22
		c0.09,0.09,0.17,0.2,0.22,0.32C195.3,113.25,195.32,113.38,195.32,113.52z M200.59,115.36c0.49,0,0.93,0.08,1.32,0.24
		c0.4,0.16,0.74,0.38,1.02,0.67c0.29,0.29,0.51,0.64,0.66,1.06s0.23,0.89,0.23,1.4c0,0.52-0.08,0.99-0.23,1.41s-0.37,0.77-0.66,1.07
		c-0.28,0.29-0.62,0.52-1.02,0.68c-0.4,0.16-0.84,0.24-1.32,0.24c-0.49,0-0.94-0.08-1.34-0.24c-0.4-0.16-0.74-0.38-1.03-0.68
		c-0.28-0.29-0.5-0.65-0.66-1.07c-0.15-0.42-0.23-0.89-0.23-1.41c0-0.52,0.08-0.98,0.23-1.4c0.16-0.42,0.38-0.77,0.66-1.06
		c0.29-0.29,0.63-0.51,1.03-0.67C199.65,115.43,200.1,115.36,200.59,115.36z M200.59,120.9c0.55,0,0.95-0.18,1.21-0.55
		c0.26-0.37,0.4-0.9,0.4-1.61s-0.13-1.25-0.4-1.62c-0.26-0.37-0.66-0.56-1.21-0.56c-0.55,0-0.97,0.19-1.24,0.56
		c-0.26,0.37-0.4,0.91-0.4,1.61s0.13,1.24,0.4,1.61C199.62,120.72,200.04,120.9,200.59,120.9z M207.54,116.26
		c0.13-0.13,0.27-0.25,0.42-0.36c0.15-0.12,0.31-0.21,0.47-0.29c0.17-0.08,0.34-0.14,0.53-0.19c0.19-0.05,0.39-0.07,0.61-0.07
		c0.36,0,0.68,0.06,0.95,0.19c0.28,0.12,0.51,0.29,0.69,0.51c0.19,0.22,0.33,0.48,0.42,0.79c0.1,0.3,0.15,0.64,0.15,1v4.18h-1.58
		v-4.18c0-0.4-0.09-0.71-0.28-0.93c-0.18-0.22-0.46-0.33-0.84-0.33c-0.27,0-0.53,0.06-0.77,0.19c-0.24,0.12-0.47,0.29-0.68,0.51
		v4.75h-1.58v-6.57h0.97c0.2,0,0.34,0.1,0.4,0.29L207.54,116.26z M218.31,116.74c-0.04,0.07-0.09,0.12-0.13,0.15
		c-0.05,0.03-0.11,0.04-0.18,0.04c-0.08,0-0.16-0.02-0.25-0.06c-0.09-0.04-0.19-0.09-0.3-0.14c-0.12-0.06-0.25-0.1-0.4-0.15
		c-0.15-0.04-0.32-0.06-0.52-0.06c-0.31,0-0.56,0.07-0.74,0.2c-0.17,0.13-0.26,0.31-0.26,0.52c0,0.14,0.04,0.26,0.13,0.36
		c0.09,0.09,0.22,0.18,0.36,0.25c0.15,0.07,0.33,0.14,0.52,0.2c0.19,0.06,0.39,0.12,0.58,0.19c0.2,0.07,0.4,0.15,0.59,0.24
		c0.19,0.09,0.36,0.2,0.51,0.33c0.15,0.13,0.28,0.29,0.36,0.48c0.09,0.19,0.14,0.41,0.14,0.68c0,0.32-0.06,0.61-0.17,0.88
		c-0.11,0.26-0.28,0.49-0.5,0.69c-0.22,0.19-0.5,0.34-0.83,0.45c-0.32,0.11-0.7,0.16-1.13,0.16c-0.23,0-0.45-0.02-0.67-0.06
		c-0.21-0.04-0.42-0.09-0.62-0.17c-0.2-0.07-0.38-0.16-0.55-0.26c-0.17-0.1-0.31-0.2-0.44-0.32l0.36-0.6
		c0.05-0.07,0.1-0.13,0.17-0.17c0.06-0.04,0.15-0.06,0.24-0.06s0.19,0.03,0.28,0.08c0.09,0.06,0.19,0.12,0.31,0.18
		c0.12,0.06,0.25,0.12,0.4,0.18c0.16,0.06,0.36,0.08,0.6,0.08c0.19,0,0.35-0.02,0.48-0.06c0.14-0.05,0.25-0.11,0.33-0.18
		c0.09-0.07,0.15-0.16,0.19-0.25c0.04-0.1,0.06-0.2,0.06-0.3c0-0.15-0.05-0.28-0.14-0.38c-0.09-0.1-0.21-0.18-0.36-0.26
		c-0.15-0.07-0.32-0.14-0.52-0.19c-0.19-0.06-0.39-0.12-0.6-0.19c-0.2-0.07-0.4-0.15-0.6-0.24c-0.19-0.09-0.36-0.21-0.52-0.35
		c-0.15-0.14-0.27-0.31-0.36-0.52c-0.09-0.2-0.13-0.45-0.13-0.74c0-0.27,0.05-0.52,0.16-0.77c0.11-0.24,0.26-0.45,0.47-0.63
		c0.21-0.18,0.47-0.33,0.77-0.44c0.31-0.11,0.67-0.17,1.08-0.17c0.45,0,0.86,0.07,1.24,0.22s0.68,0.35,0.93,0.59L218.31,116.74z
		 M177.59,138.84c0.09,0,0.18,0.04,0.25,0.11l0.68,0.74c-0.38,0.47-0.84,0.82-1.39,1.07c-0.55,0.25-1.2,0.37-1.97,0.37
		c-0.69,0-1.31-0.12-1.86-0.35c-0.55-0.23-1.01-0.56-1.4-0.98c-0.39-0.42-0.69-0.92-0.9-1.5c-0.2-0.58-0.31-1.21-0.31-1.9
		c0-0.7,0.11-1.33,0.33-1.91c0.22-0.58,0.53-1.08,0.93-1.5c0.41-0.42,0.89-0.74,1.45-0.97c0.56-0.23,1.18-0.35,1.86-0.35
		c0.67,0,1.27,0.11,1.79,0.33c0.52,0.22,0.97,0.51,1.34,0.87l-0.58,0.8c-0.03,0.05-0.08,0.1-0.13,0.13
		c-0.05,0.04-0.12,0.06-0.22,0.06c-0.06,0-0.13-0.02-0.2-0.05c-0.07-0.04-0.14-0.08-0.22-0.13c-0.08-0.06-0.17-0.12-0.28-0.18
		c-0.11-0.06-0.23-0.12-0.37-0.17c-0.14-0.06-0.31-0.1-0.49-0.13c-0.18-0.04-0.4-0.06-0.64-0.06c-0.41,0-0.79,0.07-1.14,0.22
		c-0.34,0.15-0.64,0.36-0.88,0.64c-0.25,0.28-0.44,0.62-0.58,1.02c-0.14,0.4-0.2,0.86-0.2,1.38c0,0.52,0.07,0.98,0.22,1.39
		c0.15,0.41,0.35,0.75,0.6,1.02c0.25,0.28,0.55,0.49,0.89,0.64c0.34,0.15,0.71,0.22,1.1,0.22c0.23,0,0.45-0.01,0.63-0.04
		c0.19-0.03,0.37-0.07,0.52-0.12c0.16-0.06,0.31-0.13,0.45-0.21c0.15-0.09,0.29-0.2,0.43-0.33c0.04-0.04,0.09-0.07,0.13-0.09
		C177.49,138.86,177.54,138.84,177.59,138.84z M183.94,138.22c-0.46,0.02-0.84,0.06-1.15,0.12c-0.31,0.06-0.56,0.13-0.75,0.22
		c-0.19,0.09-0.32,0.19-0.4,0.31c-0.08,0.12-0.12,0.25-0.12,0.39c0,0.28,0.08,0.48,0.24,0.6c0.17,0.12,0.38,0.18,0.65,0.18
		c0.32,0,0.6-0.06,0.84-0.17c0.24-0.12,0.47-0.3,0.7-0.54V138.22z M180.32,135.37c0.76-0.69,1.66-1.04,2.73-1.04
		c0.38,0,0.73,0.06,1.03,0.19c0.3,0.12,0.56,0.3,0.77,0.52c0.21,0.22,0.37,0.49,0.47,0.8c0.11,0.31,0.17,0.65,0.17,1.02v4.15h-0.72
		c-0.15,0-0.26-0.02-0.35-0.06c-0.08-0.05-0.15-0.14-0.19-0.28l-0.14-0.47c-0.17,0.15-0.33,0.28-0.49,0.4
		c-0.16,0.11-0.32,0.2-0.49,0.28s-0.35,0.13-0.55,0.17c-0.19,0.04-0.41,0.06-0.64,0.06c-0.28,0-0.53-0.04-0.77-0.11
		c-0.23-0.08-0.44-0.19-0.61-0.34c-0.17-0.15-0.3-0.33-0.4-0.56c-0.09-0.22-0.14-0.48-0.14-0.77c0-0.17,0.03-0.33,0.08-0.49
		c0.06-0.17,0.15-0.32,0.27-0.47c0.13-0.15,0.29-0.29,0.49-0.42c0.2-0.13,0.45-0.25,0.74-0.35c0.29-0.1,0.64-0.18,1.02-0.24
		c0.39-0.06,0.83-0.1,1.33-0.12v-0.38c0-0.44-0.09-0.76-0.28-0.97c-0.19-0.21-0.46-0.32-0.81-0.32c-0.26,0-0.47,0.03-0.64,0.09
		c-0.17,0.06-0.31,0.13-0.44,0.2c-0.13,0.07-0.25,0.14-0.35,0.2c-0.1,0.06-0.22,0.09-0.35,0.09c-0.11,0-0.2-0.03-0.28-0.08
		c-0.08-0.06-0.14-0.13-0.19-0.2L180.32,135.37z M188,141.02v-6.57h0.97c0.2,0,0.34,0.1,0.4,0.29l0.1,0.49
		c0.12-0.13,0.23-0.25,0.36-0.35c0.13-0.11,0.26-0.2,0.4-0.28c0.15-0.08,0.3-0.14,0.46-0.18c0.17-0.05,0.35-0.07,0.54-0.07
		c0.41,0,0.75,0.11,1.02,0.34c0.27,0.22,0.47,0.52,0.6,0.89c0.1-0.22,0.23-0.4,0.38-0.56c0.15-0.16,0.32-0.29,0.51-0.38
		s0.38-0.17,0.58-0.22c0.21-0.05,0.42-0.07,0.63-0.07c0.36,0,0.68,0.06,0.97,0.17c0.28,0.11,0.52,0.27,0.71,0.49
		c0.19,0.21,0.34,0.47,0.44,0.78c0.1,0.31,0.15,0.66,0.15,1.06v4.18h-1.58v-4.18c0-0.42-0.09-0.73-0.28-0.94
		c-0.18-0.21-0.45-0.32-0.81-0.32c-0.16,0-0.31,0.03-0.45,0.08c-0.14,0.06-0.26,0.14-0.36,0.24c-0.1,0.1-0.18,0.23-0.24,0.39
		c-0.06,0.16-0.09,0.34-0.09,0.54v4.18h-1.59v-4.18c0-0.44-0.09-0.76-0.27-0.96c-0.17-0.2-0.43-0.3-0.77-0.3
		c-0.23,0-0.45,0.06-0.65,0.17c-0.2,0.11-0.38,0.26-0.55,0.46v4.81H188z M201.33,139.32c0.18,0.22,0.37,0.37,0.58,0.46
		c0.21,0.09,0.44,0.13,0.69,0.13c0.24,0,0.45-0.04,0.65-0.13s0.35-0.23,0.49-0.41c0.14-0.18,0.24-0.41,0.31-0.69
		c0.07-0.28,0.11-0.61,0.11-0.99c0-0.38-0.03-0.71-0.1-0.97c-0.06-0.27-0.15-0.49-0.26-0.65c-0.12-0.17-0.26-0.29-0.42-0.36
		c-0.16-0.08-0.35-0.12-0.56-0.12c-0.33,0-0.61,0.07-0.84,0.21c-0.23,0.14-0.45,0.33-0.65,0.58V139.32z M201.25,135.35
		c0.27-0.3,0.57-0.55,0.92-0.74c0.34-0.19,0.74-0.28,1.2-0.28c0.36,0,0.68,0.07,0.98,0.22c0.3,0.15,0.55,0.37,0.77,0.65
		c0.22,0.28,0.38,0.63,0.5,1.05c0.12,0.41,0.18,0.89,0.18,1.43c0,0.49-0.07,0.95-0.2,1.36c-0.13,0.42-0.32,0.78-0.57,1.09
		c-0.24,0.31-0.54,0.55-0.89,0.72c-0.35,0.17-0.73,0.26-1.16,0.26c-0.37,0-0.68-0.06-0.94-0.17c-0.26-0.12-0.49-0.27-0.7-0.47v2.69
		h-1.58v-8.71h0.97c0.2,0,0.34,0.1,0.4,0.29L201.25,135.35z"/>
	<path class="st4" d="M184.87,91.9c0.11,0,0.19,0.03,0.25,0.09c0.06,0.06,0.1,0.14,0.1,0.24v0.59h-3.97V92.5
		c0-0.07,0.01-0.14,0.04-0.21c0.03-0.07,0.07-0.14,0.14-0.2l1.76-1.76c0.15-0.15,0.28-0.29,0.39-0.43c0.12-0.14,0.21-0.27,0.29-0.4
		c0.08-0.13,0.14-0.27,0.18-0.4c0.04-0.14,0.06-0.28,0.06-0.44c0-0.14-0.02-0.26-0.06-0.36c-0.04-0.11-0.1-0.2-0.17-0.27
		c-0.07-0.07-0.16-0.13-0.26-0.16c-0.1-0.04-0.22-0.06-0.34-0.06c-0.12,0-0.23,0.02-0.33,0.05c-0.1,0.03-0.19,0.08-0.26,0.14
		c-0.08,0.06-0.14,0.13-0.2,0.21c-0.05,0.08-0.09,0.17-0.12,0.26c-0.05,0.12-0.1,0.2-0.18,0.24c-0.07,0.04-0.18,0.05-0.31,0.03
		l-0.52-0.09c0.04-0.28,0.12-0.52,0.23-0.73c0.11-0.21,0.26-0.39,0.43-0.52c0.17-0.14,0.37-0.25,0.59-0.32
		c0.22-0.07,0.46-0.11,0.72-0.11c0.27,0,0.51,0.04,0.73,0.12c0.22,0.08,0.41,0.19,0.57,0.33c0.16,0.14,0.28,0.32,0.37,0.52
		s0.13,0.43,0.13,0.68c0,0.21-0.03,0.41-0.1,0.59c-0.06,0.18-0.15,0.35-0.25,0.52c-0.1,0.17-0.23,0.33-0.37,0.48
		c-0.14,0.15-0.29,0.31-0.44,0.47l-1.3,1.33c0.13-0.04,0.25-0.07,0.37-0.08c0.13-0.02,0.24-0.03,0.36-0.03H184.87z M187.93,89.14
		c0.13-0.03,0.25-0.05,0.37-0.06c0.12-0.01,0.23-0.02,0.34-0.02c0.3,0,0.57,0.05,0.8,0.14c0.23,0.09,0.43,0.22,0.58,0.38
		c0.16,0.16,0.28,0.35,0.36,0.56c0.08,0.21,0.12,0.44,0.12,0.69c0,0.31-0.05,0.59-0.16,0.84c-0.11,0.25-0.26,0.47-0.45,0.65
		c-0.19,0.18-0.42,0.32-0.68,0.42c-0.26,0.1-0.55,0.15-0.86,0.15c-0.18,0-0.35-0.02-0.52-0.06s-0.32-0.09-0.46-0.15
		c-0.14-0.06-0.27-0.14-0.4-0.22c-0.12-0.08-0.23-0.17-0.32-0.26l0.3-0.42c0.06-0.09,0.15-0.14,0.25-0.14c0.07,0,0.13,0.02,0.2,0.06
		c0.07,0.04,0.15,0.09,0.24,0.14c0.09,0.05,0.2,0.1,0.32,0.14c0.12,0.04,0.27,0.06,0.44,0.06c0.18,0,0.34-0.03,0.48-0.09
		s0.25-0.14,0.34-0.24c0.09-0.11,0.16-0.23,0.21-0.38c0.05-0.15,0.07-0.31,0.07-0.48c0-0.31-0.09-0.56-0.28-0.74
		c-0.18-0.18-0.45-0.27-0.81-0.27c-0.27,0-0.56,0.05-0.84,0.15l-0.62-0.18l0.48-2.81h2.86v0.42c0,0.14-0.04,0.26-0.13,0.34
		c-0.09,0.09-0.24,0.13-0.45,0.13h-1.59L187.93,89.14z M195.94,90.5h-1.55v1.65h-0.8V90.5h-1.54v-0.73h1.54v-1.64h0.8v1.64h1.55
		V90.5z"/>
</g>
<g>
	<g>
		<path shape-rendering="crispEdges" class="st0" d="M122.73,3.77c0.7-0.7,1.84-0.7,2.55,0l52.95,52.95c0.7,0.7,0.7,1.84,0,2.55
			l-52.95,52.95c-0.7,0.7-1.84,0.7-2.55,0L69.77,59.27c-0.7-0.7-0.7-1.84,0-2.55L122.73,3.77z"/>
	</g>
	<g>
		<path class="st1" d="M175.13,60.99c1.56-1.56,1.56-4.09,0-5.66L126.99,7.2c-1.56-1.56-4.09-1.56-5.66,0L73.2,55.34
			c-1.56,1.56-1.56,4.09,0,5.66l48.14,48.14c1.56,1.56,4.09,1.56,5.66,0L175.13,60.99z M126.21,11.97c-1.25-1.25-3.28-1.25-4.53,0
			l-12.62,12.62c-1.25,1.25-1.25,3.28,0,4.53l12.62,12.62c1.25,1.25,3.28,1.25,4.53,0l12.62-12.62c1.25-1.25,1.25-3.28,0-4.53
			L126.21,11.97z M122.81,13.1c0.62-0.62,1.64-0.62,2.26,0l12.62,12.62c0.62,0.62,0.62,1.64,0,2.26l-12.62,12.62
			c-0.62,0.62-1.64,0.62-2.26,0L110.2,27.98c-0.62-0.62-0.62-1.64,0-2.26L122.81,13.1z"/>
	</g>
	<g>
		<path class="st2" d="M122.69,12.78c0.63-0.63,1.65-0.63,2.28,0l12.75,12.92c0.61,0.62,0.61,1.62,0,2.25l-12.75,12.92
			c-0.63,0.63-1.65,0.63-2.28,0l-12.75-12.92c-0.61-0.62-0.61-1.62,0-2.25L122.69,12.78z"/>
	</g>
	<path class="st3" d="M101.02,51.18h-2.79v7.84H96.5v-7.84h-2.79v-1.41h7.3V51.18z M103.21,53.6c0.2-0.39,0.45-0.7,0.73-0.92
		c0.28-0.23,0.61-0.34,1-0.34c0.3,0,0.55,0.07,0.73,0.2l-0.1,1.18c-0.02,0.08-0.05,0.13-0.1,0.17c-0.04,0.03-0.09,0.04-0.16,0.04
		c-0.06,0-0.16-0.01-0.29-0.03c-0.12-0.02-0.25-0.03-0.36-0.03c-0.17,0-0.33,0.03-0.47,0.08c-0.14,0.05-0.26,0.13-0.37,0.22
		c-0.11,0.09-0.2,0.21-0.29,0.35c-0.08,0.14-0.16,0.29-0.23,0.47v4.04h-1.58v-6.57h0.93c0.16,0,0.28,0.03,0.34,0.09
		c0.06,0.06,0.11,0.16,0.13,0.31L103.21,53.6z M110.89,56.22c-0.46,0.02-0.84,0.06-1.15,0.12c-0.31,0.06-0.56,0.13-0.75,0.22
		s-0.32,0.19-0.4,0.31c-0.08,0.12-0.12,0.25-0.12,0.39c0,0.28,0.08,0.48,0.24,0.6c0.17,0.12,0.38,0.18,0.65,0.18
		c0.32,0,0.6-0.06,0.84-0.17c0.24-0.12,0.47-0.3,0.7-0.54V56.22z M107.27,53.37c0.76-0.69,1.66-1.04,2.73-1.04
		c0.38,0,0.73,0.06,1.03,0.19c0.3,0.12,0.56,0.3,0.77,0.52c0.21,0.22,0.37,0.49,0.47,0.8c0.11,0.31,0.17,0.65,0.17,1.02v4.15h-0.72
		c-0.15,0-0.26-0.02-0.35-0.06c-0.08-0.05-0.15-0.14-0.19-0.28l-0.14-0.47c-0.17,0.15-0.33,0.28-0.49,0.4
		c-0.16,0.11-0.32,0.2-0.49,0.28s-0.35,0.13-0.55,0.17c-0.19,0.04-0.41,0.06-0.64,0.06c-0.28,0-0.53-0.04-0.77-0.11
		c-0.23-0.08-0.44-0.19-0.61-0.34s-0.3-0.33-0.4-0.56c-0.09-0.22-0.14-0.48-0.14-0.77c0-0.17,0.03-0.33,0.08-0.49
		c0.06-0.17,0.15-0.32,0.27-0.47c0.13-0.15,0.29-0.29,0.49-0.42c0.2-0.13,0.45-0.25,0.74-0.35c0.29-0.1,0.64-0.18,1.02-0.24
		c0.39-0.06,0.83-0.1,1.33-0.12v-0.38c0-0.44-0.09-0.76-0.28-0.97c-0.19-0.21-0.46-0.32-0.81-0.32c-0.26,0-0.47,0.03-0.64,0.09
		c-0.17,0.06-0.31,0.13-0.44,0.2c-0.13,0.07-0.25,0.14-0.35,0.2c-0.1,0.06-0.22,0.09-0.35,0.09c-0.11,0-0.2-0.03-0.28-0.08
		c-0.08-0.06-0.14-0.13-0.19-0.2L107.27,53.37z M120.72,52.46l-2.6,6.57h-1.43l-2.6-6.57h1.31c0.12,0,0.22,0.03,0.29,0.08
		c0.08,0.06,0.13,0.13,0.16,0.21l1.27,3.51c0.07,0.2,0.13,0.41,0.18,0.6s0.1,0.39,0.13,0.59c0.04-0.2,0.09-0.39,0.14-0.59
		s0.11-0.4,0.19-0.6l1.29-3.51c0.03-0.09,0.08-0.16,0.16-0.21c0.08-0.06,0.17-0.08,0.28-0.08H120.72z M126.62,54.99
		c0-0.2-0.03-0.4-0.09-0.58c-0.06-0.18-0.14-0.34-0.26-0.48c-0.12-0.14-0.26-0.24-0.44-0.32c-0.17-0.08-0.38-0.12-0.61-0.12
		c-0.46,0-0.82,0.13-1.08,0.39c-0.26,0.26-0.43,0.63-0.5,1.11H126.62z M123.6,55.94c0.03,0.34,0.09,0.63,0.18,0.88
		c0.09,0.24,0.22,0.45,0.37,0.61c0.15,0.16,0.33,0.28,0.54,0.36c0.21,0.08,0.45,0.12,0.7,0.12c0.26,0,0.48-0.03,0.66-0.09
		c0.19-0.06,0.35-0.13,0.49-0.2c0.14-0.07,0.26-0.14,0.36-0.2c0.11-0.06,0.21-0.09,0.31-0.09c0.13,0,0.23,0.05,0.29,0.15l0.45,0.58
		c-0.17,0.2-0.37,0.38-0.59,0.52c-0.22,0.14-0.45,0.25-0.68,0.33c-0.23,0.08-0.48,0.14-0.72,0.17c-0.24,0.03-0.48,0.05-0.71,0.05
		c-0.46,0-0.88-0.07-1.27-0.22c-0.39-0.15-0.73-0.38-1.02-0.67c-0.29-0.3-0.52-0.67-0.68-1.1c-0.17-0.44-0.25-0.95-0.25-1.52
		c0-0.45,0.07-0.87,0.22-1.26c0.15-0.4,0.35-0.74,0.62-1.03c0.27-0.29,0.6-0.53,0.99-0.7c0.39-0.17,0.83-0.26,1.32-0.26
		c0.41,0,0.8,0.07,1.15,0.2c0.35,0.13,0.65,0.33,0.9,0.58c0.25,0.25,0.45,0.56,0.59,0.93c0.15,0.37,0.22,0.79,0.22,1.26
		c0,0.24-0.03,0.4-0.08,0.49c-0.05,0.08-0.15,0.12-0.29,0.12H123.6z M131.85,49.51v9.51h-1.58v-9.51H131.85z M138.68,54.99
		c0-0.2-0.03-0.4-0.09-0.58c-0.06-0.18-0.14-0.34-0.26-0.48c-0.12-0.14-0.26-0.24-0.44-0.32c-0.17-0.08-0.38-0.12-0.61-0.12
		c-0.46,0-0.82,0.13-1.08,0.39c-0.26,0.26-0.43,0.63-0.5,1.11H138.68z M135.66,55.94c0.03,0.34,0.09,0.63,0.18,0.88
		c0.09,0.24,0.22,0.45,0.37,0.61c0.15,0.16,0.33,0.28,0.54,0.36c0.21,0.08,0.45,0.12,0.7,0.12c0.26,0,0.48-0.03,0.66-0.09
		c0.19-0.06,0.35-0.13,0.49-0.2c0.14-0.07,0.26-0.14,0.36-0.2c0.11-0.06,0.21-0.09,0.31-0.09c0.13,0,0.23,0.05,0.29,0.15l0.45,0.58
		c-0.17,0.2-0.37,0.38-0.59,0.52c-0.22,0.14-0.45,0.25-0.68,0.33c-0.23,0.08-0.48,0.14-0.72,0.17c-0.24,0.03-0.48,0.05-0.71,0.05
		c-0.46,0-0.88-0.07-1.27-0.22c-0.39-0.15-0.73-0.38-1.02-0.67c-0.29-0.3-0.52-0.67-0.68-1.1c-0.17-0.44-0.25-0.95-0.25-1.52
		c0-0.45,0.07-0.87,0.22-1.26c0.15-0.4,0.35-0.74,0.62-1.03c0.27-0.29,0.6-0.53,0.99-0.7c0.39-0.17,0.83-0.26,1.32-0.26
		c0.41,0,0.8,0.07,1.15,0.2c0.35,0.13,0.65,0.33,0.9,0.58c0.25,0.25,0.45,0.56,0.59,0.93c0.15,0.37,0.22,0.79,0.22,1.26
		c0,0.24-0.03,0.4-0.08,0.49c-0.05,0.08-0.15,0.12-0.29,0.12H135.66z M143.8,53.6c0.2-0.39,0.45-0.7,0.73-0.92
		c0.28-0.23,0.61-0.34,1-0.34c0.3,0,0.55,0.07,0.73,0.2l-0.1,1.18c-0.02,0.08-0.05,0.13-0.1,0.17c-0.04,0.03-0.09,0.04-0.16,0.04
		c-0.06,0-0.16-0.01-0.29-0.03c-0.12-0.02-0.25-0.03-0.36-0.03c-0.17,0-0.33,0.03-0.47,0.08s-0.26,0.13-0.37,0.22
		c-0.11,0.09-0.2,0.21-0.29,0.35c-0.08,0.14-0.16,0.29-0.23,0.47v4.04h-1.58v-6.57h0.93c0.16,0,0.28,0.03,0.34,0.09
		c0.06,0.06,0.11,0.16,0.13,0.31L143.8,53.6z M152.09,53.74c-0.04,0.07-0.09,0.12-0.13,0.15c-0.05,0.03-0.11,0.04-0.18,0.04
		c-0.08,0-0.16-0.02-0.25-0.06c-0.09-0.04-0.19-0.09-0.3-0.14c-0.12-0.06-0.25-0.1-0.4-0.15c-0.15-0.04-0.32-0.06-0.52-0.06
		c-0.31,0-0.56,0.07-0.74,0.2c-0.17,0.13-0.26,0.31-0.26,0.52c0,0.14,0.04,0.26,0.13,0.36c0.09,0.09,0.22,0.18,0.36,0.25
		c0.15,0.07,0.33,0.14,0.52,0.2c0.19,0.06,0.39,0.12,0.58,0.19c0.2,0.07,0.4,0.15,0.59,0.24c0.19,0.09,0.36,0.2,0.51,0.33
		c0.15,0.13,0.28,0.29,0.36,0.48c0.09,0.19,0.14,0.41,0.14,0.68c0,0.32-0.06,0.61-0.17,0.88c-0.11,0.26-0.28,0.49-0.5,0.69
		c-0.22,0.19-0.5,0.34-0.83,0.45c-0.32,0.11-0.7,0.16-1.13,0.16c-0.23,0-0.45-0.02-0.67-0.06c-0.21-0.04-0.42-0.09-0.62-0.17
		c-0.2-0.07-0.38-0.16-0.55-0.26c-0.17-0.1-0.31-0.2-0.44-0.32l0.36-0.6c0.05-0.07,0.1-0.13,0.17-0.17s0.15-0.06,0.24-0.06
		c0.1,0,0.19,0.03,0.28,0.08c0.09,0.06,0.19,0.12,0.31,0.18c0.12,0.06,0.25,0.12,0.4,0.18c0.16,0.06,0.36,0.08,0.6,0.08
		c0.19,0,0.35-0.02,0.48-0.06c0.14-0.05,0.25-0.11,0.33-0.18c0.09-0.07,0.15-0.16,0.19-0.25c0.04-0.1,0.06-0.2,0.06-0.3
		c0-0.15-0.05-0.28-0.14-0.38c-0.09-0.1-0.21-0.18-0.36-0.26c-0.15-0.07-0.32-0.14-0.52-0.19c-0.19-0.06-0.39-0.12-0.6-0.19
		c-0.2-0.07-0.4-0.15-0.6-0.24c-0.19-0.09-0.36-0.21-0.52-0.35c-0.15-0.14-0.27-0.31-0.36-0.52c-0.09-0.2-0.13-0.45-0.13-0.74
		c0-0.27,0.05-0.52,0.16-0.77c0.11-0.24,0.26-0.45,0.47-0.63c0.21-0.18,0.47-0.33,0.77-0.44c0.31-0.11,0.67-0.17,1.08-0.17
		c0.45,0,0.86,0.07,1.24,0.22s0.68,0.35,0.93,0.59L152.09,53.74z M111.35,68.77v9.25h-1.73v-4.04h-4.35v4.04h-1.73v-9.25h1.73v3.98
		h4.35v-3.98H111.35z M117.49,75.22c-0.46,0.02-0.84,0.06-1.15,0.12c-0.31,0.06-0.56,0.13-0.75,0.22s-0.32,0.19-0.4,0.31
		s-0.12,0.25-0.12,0.39c0,0.28,0.08,0.48,0.24,0.6c0.17,0.12,0.38,0.18,0.65,0.18c0.32,0,0.6-0.06,0.84-0.17
		c0.24-0.12,0.47-0.3,0.7-0.54V75.22z M113.87,72.37c0.76-0.69,1.66-1.04,2.73-1.04c0.38,0,0.73,0.06,1.03,0.19
		c0.3,0.12,0.56,0.3,0.77,0.52c0.21,0.22,0.37,0.49,0.47,0.8c0.11,0.31,0.17,0.65,0.17,1.02v4.15h-0.72c-0.15,0-0.26-0.02-0.35-0.06
		c-0.08-0.05-0.15-0.14-0.19-0.28l-0.14-0.47c-0.17,0.15-0.33,0.28-0.49,0.4c-0.16,0.11-0.32,0.2-0.49,0.28s-0.35,0.13-0.55,0.17
		c-0.19,0.04-0.41,0.06-0.64,0.06c-0.28,0-0.53-0.04-0.77-0.11c-0.23-0.08-0.44-0.19-0.61-0.34c-0.17-0.15-0.3-0.33-0.4-0.56
		c-0.09-0.22-0.14-0.48-0.14-0.77c0-0.17,0.03-0.33,0.08-0.49c0.06-0.17,0.15-0.32,0.27-0.47c0.13-0.15,0.29-0.29,0.49-0.42
		s0.45-0.25,0.74-0.35c0.29-0.1,0.64-0.18,1.02-0.24c0.39-0.06,0.83-0.1,1.33-0.12v-0.38c0-0.44-0.09-0.76-0.28-0.97
		c-0.19-0.21-0.46-0.32-0.81-0.32c-0.26,0-0.47,0.03-0.64,0.09c-0.17,0.06-0.31,0.13-0.44,0.2c-0.13,0.07-0.25,0.14-0.35,0.2
		c-0.1,0.06-0.22,0.09-0.35,0.09c-0.11,0-0.2-0.03-0.28-0.08c-0.08-0.06-0.14-0.13-0.19-0.2L113.87,72.37z M123.13,76.32
		c0.18,0.22,0.37,0.37,0.58,0.46c0.21,0.09,0.44,0.13,0.69,0.13c0.24,0,0.45-0.04,0.65-0.13s0.35-0.23,0.49-0.41
		c0.14-0.18,0.24-0.41,0.31-0.69c0.07-0.28,0.11-0.61,0.11-0.99c0-0.38-0.03-0.71-0.1-0.97c-0.06-0.27-0.15-0.49-0.26-0.65
		c-0.12-0.17-0.26-0.29-0.42-0.36c-0.16-0.08-0.35-0.12-0.56-0.12c-0.33,0-0.61,0.07-0.84,0.21c-0.23,0.14-0.45,0.33-0.65,0.58
		V76.32z M123.05,72.35c0.27-0.3,0.57-0.55,0.92-0.74c0.34-0.19,0.74-0.28,1.2-0.28c0.36,0,0.68,0.07,0.98,0.22
		c0.3,0.15,0.55,0.37,0.77,0.65c0.22,0.28,0.38,0.63,0.5,1.05c0.12,0.41,0.18,0.89,0.18,1.43c0,0.49-0.07,0.95-0.2,1.36
		s-0.32,0.78-0.57,1.09c-0.24,0.31-0.54,0.55-0.89,0.72c-0.35,0.17-0.73,0.26-1.16,0.26c-0.37,0-0.68-0.06-0.94-0.17
		c-0.26-0.12-0.49-0.27-0.7-0.47v2.69h-1.58v-8.71h0.97c0.2,0,0.34,0.1,0.4,0.29L123.05,72.35z M131.43,76.32
		c0.18,0.22,0.37,0.37,0.58,0.46c0.21,0.09,0.44,0.13,0.69,0.13c0.24,0,0.45-0.04,0.65-0.13s0.35-0.23,0.49-0.41
		c0.14-0.18,0.24-0.41,0.31-0.69c0.07-0.28,0.11-0.61,0.11-0.99c0-0.38-0.03-0.71-0.1-0.97c-0.06-0.27-0.15-0.49-0.26-0.65
		c-0.12-0.17-0.26-0.29-0.42-0.36c-0.16-0.08-0.35-0.12-0.56-0.12c-0.33,0-0.61,0.07-0.84,0.21c-0.23,0.14-0.45,0.33-0.65,0.58
		V76.32z M131.35,72.35c0.27-0.3,0.57-0.55,0.92-0.74c0.34-0.19,0.74-0.28,1.2-0.28c0.36,0,0.68,0.07,0.98,0.22
		c0.3,0.15,0.55,0.37,0.77,0.65c0.22,0.28,0.38,0.63,0.5,1.05c0.12,0.41,0.18,0.89,0.18,1.43c0,0.49-0.07,0.95-0.2,1.36
		c-0.13,0.42-0.32,0.78-0.57,1.09c-0.24,0.31-0.54,0.55-0.89,0.72c-0.35,0.17-0.73,0.26-1.16,0.26c-0.37,0-0.68-0.06-0.94-0.17
		c-0.26-0.12-0.49-0.27-0.7-0.47v2.69h-1.58v-8.71h0.97c0.2,0,0.34,0.1,0.4,0.29L131.35,72.35z M143.92,71.46l-3.58,8.37
		c-0.05,0.11-0.11,0.19-0.19,0.25c-0.07,0.06-0.19,0.09-0.34,0.09h-1.18l1.23-2.64l-2.66-6.07h1.39c0.12,0,0.22,0.03,0.29,0.09
		c0.07,0.06,0.13,0.13,0.16,0.2l1.4,3.4c0.05,0.12,0.09,0.23,0.12,0.35c0.03,0.12,0.07,0.23,0.1,0.35c0.04-0.12,0.08-0.24,0.12-0.35
		c0.04-0.12,0.08-0.24,0.13-0.35l1.32-3.4c0.03-0.09,0.09-0.16,0.17-0.21c0.08-0.06,0.17-0.08,0.27-0.08H143.92z"/>
	<path class="st4" d="M118.09,29.08v0.74h-3.2v-0.74h1.17v-3.37c0-0.13,0-0.27,0.01-0.41l-0.83,0.7c-0.05,0.04-0.1,0.06-0.14,0.07
		c-0.05,0.01-0.09,0.01-0.13,0c-0.04-0.01-0.08-0.02-0.11-0.04c-0.03-0.02-0.06-0.04-0.07-0.07l-0.31-0.43l1.76-1.5h0.81v5.05
		H118.09z M122.16,27.64v-1.89c0-0.18,0.01-0.38,0.04-0.59l-1.8,2.48H122.16z M123.74,27.64v0.57c0,0.05-0.02,0.1-0.05,0.14
		c-0.03,0.04-0.08,0.06-0.15,0.06h-0.53v1.41h-0.86v-1.41h-2.44c-0.07,0-0.13-0.02-0.18-0.06c-0.05-0.04-0.08-0.09-0.1-0.16
		l-0.1-0.5l2.74-3.66h0.94v3.61H123.74z M126.14,23.88v3.4h0.18c0.07,0,0.12-0.01,0.16-0.02c0.04-0.02,0.08-0.05,0.12-0.11
		l1.02-1.26c0.04-0.06,0.09-0.1,0.14-0.13c0.05-0.03,0.12-0.04,0.2-0.04h0.9l-1.28,1.52c-0.09,0.12-0.19,0.21-0.3,0.28
		c0.06,0.04,0.11,0.09,0.15,0.14c0.05,0.05,0.09,0.11,0.13,0.17l1.37,1.99h-0.89c-0.08,0-0.14-0.01-0.2-0.04
		c-0.06-0.03-0.1-0.07-0.14-0.14l-1.05-1.56c-0.04-0.06-0.08-0.1-0.12-0.12s-0.1-0.03-0.18-0.03h-0.22v1.88h-0.99v-5.94H126.14z
		 M133.93,27.5h-1.55v1.65h-0.8V27.5h-1.54v-0.73h1.54v-1.64h0.8v1.64h1.55V27.5z"/>
</g>
</svg>
