<svg width="166" height="165" viewBox="0 0 166 165" fill="none" xmlns="http://www.w3.org/2000/svg">
<g filter="url(#filter0_i_1_104)">
<path fill-rule="evenodd" clip-rule="evenodd" d="M80.1715 1.17157C81.7336 -0.390524 84.2663 -0.390525 85.8284 1.17157L164.172 79.5147C165.734 81.0768 165.734 83.6095 164.172 85.1716L85.8284 163.515C84.2663 165.077 81.7336 165.077 80.1715 163.515L1.82837 85.1716C0.266276 83.6095 0.266274 81.0768 1.82837 79.5147L80.1715 1.17157ZM110.388 83.8762L70.4583 117.33C69.1566 118.421 67.1739 117.496 67.1739 115.797V48.8889C67.1739 47.1907 69.1566 46.2653 70.4583 47.3558L110.388 80.8101C111.342 81.6095 111.342 83.0768 110.388 83.8762ZM83.2071 8.87867L155.464 81.136C155.855 81.5266 155.855 82.1597 155.464 82.5502L83.2071 154.808C82.8166 155.198 82.1834 155.198 81.7929 154.808L9.53554 82.5502C9.14502 82.1597 9.14502 81.5266 9.53554 81.136L81.7929 8.87867C82.1834 8.48815 82.8166 8.48815 83.2071 8.87867ZM80.3787 7.46446C81.5503 6.29289 83.4498 6.29289 84.6213 7.46446L156.879 79.7218C158.05 80.8934 158.05 82.7929 156.879 83.9645L84.6213 156.222C83.4498 157.393 81.5503 157.393 80.3787 156.222L8.12133 83.9645C6.94976 82.7929 6.94975 80.8934 8.12133 79.7218L80.3787 7.46446Z" fill="#F87932"/>
</g>
<g filter="url(#filter1_d_1_104)">
<path d="M110.388 80.8101C111.342 81.6095 111.342 83.0768 110.388 83.8762L70.4583 117.33C69.1566 118.421 67.1738 117.496 67.1738 115.797L67.1738 48.8889C67.1738 47.1907 69.1566 46.2652 70.4583 47.3558L110.388 80.8101Z" fill="white" fill-opacity="0.8" shape-rendering="crispEdges"/>
</g>
<defs>
<filter id="filter0_i_1_104" x="0.656799" y="0" width="164.686" height="166.687" filterUnits="userSpaceOnUse" color-interpolation-filters="sRGB">
<feFlood flood-opacity="0" result="BackgroundImageFix"/>
<feBlend mode="normal" in="SourceGraphic" in2="BackgroundImageFix" result="shape"/>
<feColorMatrix in="SourceAlpha" type="matrix" values="0 0 0 0 0 0 0 0 0 0 0 0 0 0 0 0 0 0 127 0" result="hardAlpha"/>
<feOffset dy="2"/>
<feGaussianBlur stdDeviation="2"/>
<feComposite in2="hardAlpha" operator="arithmetic" k2="-1" k3="1"/>
<feColorMatrix type="matrix" values="0 0 0 0 1 0 0 0 0 1 0 0 0 0 1 0 0 0 0.25 0"/>
<feBlend mode="normal" in2="shape" result="effect1_innerShadow_1_104"/>
</filter>
<filter id="filter1_d_1_104" x="59.1738" y="42.8853" width="59.9293" height="86.916" filterUnits="userSpaceOnUse" color-interpolation-filters="sRGB">
<feFlood flood-opacity="0" result="BackgroundImageFix"/>
<feColorMatrix in="SourceAlpha" type="matrix" values="0 0 0 0 0 0 0 0 0 0 0 0 0 0 0 0 0 0 127 0" result="hardAlpha"/>
<feOffset dy="4"/>
<feGaussianBlur stdDeviation="4"/>
<feComposite in2="hardAlpha" operator="out"/>
<feColorMatrix type="matrix" values="0 0 0 0 0.138531 0 0 0 0 0.0877824 0 0 0 0 0.0877824 0 0 0 0.5 0"/>
<feBlend mode="normal" in2="BackgroundImageFix" result="effect1_dropShadow_1_104"/>
<feBlend mode="normal" in="SourceGraphic" in2="effect1_dropShadow_1_104" result="shape"/>
</filter>
</defs>
</svg>
