<svg width="77" height="142" viewBox="0 0 77 142" fill="none" xmlns="http://www.w3.org/2000/svg">
<path opacity="0.918" fill-rule="evenodd" clip-rule="evenodd" d="M36.1913 100.164C36.7945 98.0529 37.3976 95.9411 38.0009 93.8303C44.3089 86.5812 48.2296 78.1362 49.763 68.4964C49.0128 61.1892 45.3937 59.078 38.9056 62.1629C38.6041 62.1629 38.3024 62.1629 38.0009 62.1629C38.0714 59.6731 38.2222 57.2604 38.4532 54.9246C31.5945 55.6279 24.8086 54.874 18.0956 52.6627C14.5417 51.2211 12.2798 48.6575 11.3098 44.972C10.7066 33.2098 10.7066 21.4477 11.3098 9.6855C13.3996 -0.570093 18.5267 -2.68126 26.6911 3.35202C28.3214 8.03635 29.0754 12.8618 28.953 17.8285C28.2992 23.8578 28.1484 29.8897 28.5006 35.9242C29.4156 36.6811 30.4712 36.9828 31.6674 36.829C28.402 16.5861 36.8467 7.08588 57.0013 8.32833C63.8822 10.0822 67.9537 14.4553 69.2159 21.4477C71.0792 29.3615 70.7775 37.2029 68.3111 44.972C67.6541 47.7956 66.2969 50.2083 64.2396 52.2103C69.3269 54.1689 70.9857 57.7881 69.2159 63.0677C68.3038 64.6592 66.9467 65.7148 65.1443 66.2344C62.1284 66.2344 59.1124 66.2344 56.0965 66.2344C53.2019 67.7535 52.9004 69.5631 55.1917 71.6631C67.9147 69.5962 71.8355 74.4217 66.9539 86.1396C65.5052 86.3866 64.148 86.839 62.8824 87.4968C60.4058 86.4925 57.8422 86.3414 55.1917 87.0444C52.813 89.5678 53.4161 91.3774 57.0013 92.4731C61.7396 92.7264 66.5652 93.329 71.4778 94.2827C74.1275 97.2295 74.8814 100.698 73.7398 104.688C72.5999 107.337 70.6395 108.995 67.8587 109.664C60.3008 109.897 52.7608 110.35 45.2391 111.021C38.4152 110.666 35.3992 107.047 36.1913 100.164ZM51.5726 23.2572C53.5834 22.9659 55.2421 23.569 56.5489 25.0668C58.3187 30.7736 58.3187 36.5039 56.5489 42.2577C54.3735 47.4105 51.3576 48.0136 47.5011 44.0672C44.629 38.3224 44.629 32.5921 47.5011 26.8764C49.0091 25.7606 50.3662 24.5542 51.5726 23.2572ZM33.4769 37.7338C43.993 38.7165 46.7073 43.6928 41.62 52.6627C39.7251 53.0656 38.3679 52.3116 37.5485 50.4007C35.3712 46.4328 34.014 42.2104 33.4769 37.7338ZM45.2391 52.2103C50.4156 52.0914 55.5428 52.5438 60.6204 53.5674C54.4799 57.3312 48.1465 57.6327 41.62 54.4722C42.849 53.6268 44.0554 52.8728 45.2391 52.2103Z" fill="white"/>
<path opacity="0.94" fill-rule="evenodd" clip-rule="evenodd" d="M38.0008 62.1624C38.3024 62.1624 38.6041 62.1624 38.9056 62.1624C38.5706 72.7171 38.269 83.2728 38.0008 93.8298C37.3976 95.9407 36.7945 98.0525 36.1913 100.163C33.6525 103.454 30.6365 106.319 27.1434 108.759C23.7892 109.66 20.7733 109.057 18.0956 106.949C13.9227 98.4506 9.85116 89.8551 5.88106 81.1629C3.69281 76.5601 2.33563 71.7346 1.80954 66.6864C3.55477 58.7075 8.07869 56.7471 15.3813 60.8053C18.3329 64.366 21.8012 67.231 25.7863 69.4007C30.3911 67.7811 34.4626 65.3685 38.0008 62.1624Z" fill="#F87932"/>
<path opacity="0.757" fill-rule="evenodd" clip-rule="evenodd" d="M11.7622 121.879C11.7622 123.387 11.7622 124.895 11.7622 126.403C10.2748 126.209 8.91763 126.511 7.69065 127.308C7.31189 126.247 6.7087 125.342 5.88109 124.593C5.2779 128.816 5.2779 133.038 5.88109 137.26C7.49965 135.696 9.46005 135.092 11.7622 135.451C11.4252 141.211 8.40923 143.172 2.71435 141.332C1.49375 140.633 0.739771 139.577 0.452394 138.165C-0.150798 133.34 -0.150798 128.514 0.452394 123.688C0.873335 122.394 1.62732 121.339 2.71435 120.522C6.01561 119.65 9.03154 120.103 11.7622 121.879Z" fill="white"/>
<path opacity="0.794" fill-rule="evenodd" clip-rule="evenodd" d="M11.7622 121.879C13.0451 120.243 14.8547 119.639 17.1909 120.069C17.9771 126.903 18.8818 127.054 19.9052 120.522C24.7307 119.918 29.5563 119.918 34.3818 120.522C35.1129 120.8 35.716 121.253 36.1913 121.879C37.1804 125.143 37.3313 128.461 36.6437 131.831C35.0746 133.597 33.1143 134.501 30.7626 134.546C30.7626 136.959 30.7626 139.371 30.7626 141.784C28.9531 141.784 27.1435 141.784 25.3339 141.784C25.4845 134.841 25.3337 127.904 24.8816 120.974C21.7258 127.572 20.3686 134.508 20.81 141.784C19.302 141.784 17.7941 141.784 16.2861 141.784C16.6129 134.646 15.1049 128.011 11.7622 121.879ZM30.7626 124.593C32.9323 125.844 33.0831 127.352 31.215 129.117C30.7685 127.639 30.6177 126.13 30.7626 124.593Z" fill="white"/>
<path opacity="0.827" fill-rule="evenodd" clip-rule="evenodd" d="M38.9057 120.069C49.7852 118.871 53.1026 123.395 48.8583 133.641C49.8405 136.283 50.4438 138.997 50.6679 141.784C49.1305 141.928 47.6225 141.778 46.144 141.331C44.029 133.342 43.1242 133.492 43.4296 141.784C41.9216 141.784 40.4137 141.784 38.9057 141.784C38.9057 134.545 38.9057 127.307 38.9057 120.069ZM43.4296 124.593C45.5993 125.843 45.7501 127.351 43.882 129.117C43.4355 127.638 43.2847 126.13 43.4296 124.593Z" fill="white"/>
<path opacity="0.757" fill-rule="evenodd" clip-rule="evenodd" d="M51.5726 120.069C53.3822 120.069 55.1918 120.069 57.0013 120.069C57.3029 142.99 57.6045 142.99 57.9061 120.069C59.7157 120.069 61.5252 120.069 63.3348 120.069C63.4853 126.711 63.3345 133.346 62.8824 139.974C59.953 142.016 56.7863 142.317 53.3822 140.879C52.7029 140.086 52.2505 139.181 52.025 138.164C51.573 132.14 51.4222 126.108 51.5726 120.069Z" fill="white"/>
<path opacity="0.763" fill-rule="evenodd" clip-rule="evenodd" d="M71.4779 127.307C77.4075 130.869 78.3123 135.543 74.1922 141.331C71.7794 141.935 69.3667 141.935 66.954 141.331C65.3896 139.713 64.7864 137.752 65.1444 135.45C66.6318 135.644 67.9889 135.342 69.2159 134.546C70.0252 137.147 70.7792 137.448 71.4779 135.45C71.38 134.598 71.0784 133.844 70.5731 133.188C65.4536 131.534 63.7948 128.065 65.5968 122.783C65.8751 122.052 66.3275 121.449 66.954 120.974C72.7779 118.463 76.0953 120.273 76.9066 126.403C75.0384 126.418 73.2288 126.719 71.4779 127.307ZM71.4779 127.307C69.4329 126.64 69.2821 125.735 71.0255 124.593C71.4623 125.451 71.6131 126.356 71.4779 127.307Z" fill="white"/>
</svg>
