<svg width="50" height="86" viewBox="0 0 50 86" fill="none" xmlns="http://www.w3.org/2000/svg">
<g filter="url(#filter0_d_1_310)">
<path opacity="0.918" fill-rule="evenodd" clip-rule="evenodd" d="M23.7647 54.7011C24.0942 53.5484 24.4235 52.3951 24.753 51.2423C28.1979 47.2835 30.3391 42.6715 31.1765 37.407C30.7668 33.4164 28.7903 32.2635 25.2471 33.9482C25.0824 33.9482 24.9177 33.9482 24.753 33.9482C24.7915 32.5885 24.8738 31.2709 25 29.9953C21.2543 30.3794 17.5484 29.9676 13.8824 28.76C11.9416 27.9727 10.7063 26.5727 10.1765 24.56C9.84709 18.1365 9.84709 11.7129 10.1765 5.28942C11.3178 -0.311338 14.1178 -1.46428 18.5765 1.8306C19.4669 4.38879 19.8787 7.02407 19.8118 9.73647C19.4548 13.0292 19.3724 16.3233 19.5647 19.6188C20.0644 20.0322 20.6409 20.1969 21.2942 20.1129C19.5109 9.05795 24.1227 3.86972 35.1294 4.54824C38.8872 5.50604 41.1107 7.8943 41.8 11.7129C42.8176 16.0348 42.6529 20.3172 41.3059 24.56C40.9471 26.102 40.2059 27.4196 39.0824 28.5129C41.8606 29.5826 42.7666 31.5591 41.8 34.4423C41.302 35.3115 40.5608 35.888 39.5765 36.1717C37.9295 36.1717 36.2824 36.1717 34.6353 36.1717C33.0545 37.0014 32.8899 37.9896 34.1412 39.1364C41.0894 38.0077 43.2306 40.643 40.5647 47.0423C39.7735 47.1772 39.0324 47.4243 38.3412 47.7835C36.9887 47.235 35.5887 47.1525 34.1412 47.5364C32.8421 48.9145 33.1715 49.9028 35.1294 50.5011C37.7171 50.6395 40.3525 50.9686 43.0353 51.4894C44.4823 53.0987 44.8941 54.9932 44.2706 57.1717C43.6481 58.6185 42.5775 59.5242 41.0588 59.8894C36.9313 60.0169 32.8137 60.2639 28.7059 60.6305C24.9792 60.4369 23.3322 58.4604 23.7647 54.7011ZM32.1647 12.7012C33.2629 12.5421 34.1687 12.8714 34.8824 13.6894C35.8489 16.806 35.8489 19.9354 34.8824 23.0776C33.6944 25.8917 32.0473 26.2211 29.9412 24.0659C28.3727 20.9285 28.3727 17.7991 29.9412 14.6776C30.7648 14.0683 31.5059 13.4095 32.1647 12.7012ZM22.2824 20.607C28.0254 21.1438 29.5077 23.8614 26.7294 28.76C25.6946 28.98 24.9534 28.5683 24.5059 27.5247C23.3169 25.3577 22.5757 23.0518 22.2824 20.607ZM28.7059 28.5129C31.5329 28.448 34.3329 28.6951 37.1059 29.2541C33.7525 31.3095 30.2937 31.4742 26.7294 29.7482C27.4007 29.2865 28.0595 28.8748 28.7059 28.5129Z" fill="#39BFA7"/>
<path opacity="0.94" fill-rule="evenodd" clip-rule="evenodd" d="M24.753 33.9479C24.9177 33.9479 25.0824 33.9479 25.2471 33.9479C25.0641 39.7119 24.8994 45.4766 24.753 51.242C24.4235 52.3947 24.0942 53.548 23.7647 54.7008C22.3782 56.4979 20.7312 58.0628 18.8236 59.3949C16.9918 59.887 15.3447 59.558 13.8824 58.4067C11.6035 53.7654 9.37995 49.0713 7.21181 44.3243C6.01677 41.8107 5.27559 39.1754 4.98828 36.4185C5.94138 32.0611 8.41197 30.9905 12.4 33.2067C14.0119 35.1512 15.906 36.7159 18.0824 37.9008C20.5971 37.0163 22.8207 35.6987 24.753 33.9479Z" fill="#F87932"/>
<path opacity="0.757" fill-rule="evenodd" clip-rule="evenodd" d="M10.4235 66.5601C10.4235 67.3838 10.4235 68.207 10.4235 69.0307C9.61125 68.9249 8.87007 69.0899 8.2 69.5248C7.99315 68.9457 7.66374 68.4516 7.21176 68.0424C6.88235 70.3485 6.88235 72.654 7.21176 74.9601C8.09569 74.1057 9.16629 73.7762 10.4235 73.9718C10.2395 77.1179 8.59243 78.1886 5.48235 77.1836C4.81576 76.8021 4.404 76.2255 4.24706 75.4542C3.91765 72.8191 3.91765 70.1834 4.24706 67.5483C4.47694 66.8412 4.88871 66.2651 5.48235 65.8189C7.28523 65.3431 8.93228 65.5901 10.4235 66.5601Z" fill="#39BFA7"/>
<path opacity="0.794" fill-rule="evenodd" clip-rule="evenodd" d="M10.4233 66.5605C11.1239 65.6671 12.1122 65.3375 13.388 65.5722C13.8174 69.3043 14.3115 69.3868 14.8704 65.8193C17.5057 65.4897 20.141 65.4897 22.7763 65.8193C23.1756 65.9715 23.5049 66.2186 23.7645 66.5605C24.3047 68.3433 24.387 70.1552 24.0116 71.9958C23.1547 72.9598 22.0841 73.4539 20.7998 73.4781C20.7998 74.7959 20.7998 76.1132 20.7998 77.4311C19.8116 77.4311 18.8233 77.4311 17.8351 77.4311C17.9173 73.6392 17.835 69.8508 17.588 66.0664C15.8646 69.6695 15.1234 73.4574 15.3645 77.4311C14.541 77.4311 13.7175 77.4311 12.8939 77.4311C13.0724 73.533 12.2489 69.9096 10.4233 66.5605ZM20.7998 68.0428C21.9847 68.7257 22.0671 69.5494 21.0469 70.5134C20.803 69.706 20.7206 68.8823 20.7998 68.0428Z" fill="#39BFA7"/>
<path opacity="0.827" fill-rule="evenodd" clip-rule="evenodd" d="M25.2471 65.5715C31.1885 64.9173 33.0003 67.3878 30.6824 72.9832C31.2188 74.4261 31.5482 75.9084 31.6706 77.4303C30.831 77.5093 30.0074 77.4273 29.2 77.1832C28.045 72.8202 27.5509 72.9022 27.7177 77.4303C26.8941 77.4303 26.0706 77.4303 25.2471 77.4303C25.2471 73.4774 25.2471 69.5244 25.2471 65.5715ZM27.7177 68.0421C28.9025 68.7249 28.9849 69.5486 27.9647 70.5126C27.7209 69.7053 27.6385 68.8816 27.7177 68.0421Z" fill="#39BFA7"/>
<path opacity="0.757" fill-rule="evenodd" clip-rule="evenodd" d="M32.1646 65.5713C33.1528 65.5713 34.141 65.5713 35.1293 65.5713C35.294 78.0888 35.4587 78.0888 35.6234 65.5713C36.6116 65.5713 37.5999 65.5713 38.5881 65.5713C38.6703 69.1986 38.5879 72.822 38.341 76.4419C36.7412 77.5571 35.0118 77.7216 33.1528 76.936C32.7818 76.5031 32.5348 76.009 32.4116 75.4536C32.1648 72.1638 32.0824 68.8695 32.1646 65.5713Z" fill="#39BFA7"/>
<path opacity="0.763" fill-rule="evenodd" clip-rule="evenodd" d="M43.0353 69.5242C46.2736 71.4691 46.7677 74.0217 44.5176 77.1831C43.2 77.5126 41.8823 77.5126 40.5647 77.1831C39.7104 76.2991 39.3809 75.2283 39.5764 73.9713C40.3887 74.077 41.1299 73.912 41.8 73.4772C42.242 74.8978 42.6537 75.0623 43.0353 73.9713C42.9818 73.5058 42.8171 73.0942 42.5411 72.736C39.7453 71.8323 38.8394 69.9378 39.8235 67.0537C39.9755 66.6544 40.2226 66.3248 40.5647 66.0654C43.7452 64.6942 45.5569 65.6825 46 69.0301C44.9797 69.0385 43.9915 69.2031 43.0353 69.5242ZM43.0353 69.5242C41.9185 69.1596 41.8361 68.6655 42.7882 68.0419C43.0268 68.5103 43.1091 69.0044 43.0353 69.5242Z" fill="#39BFA7"/>
</g>
<defs>
<filter id="filter0_d_1_310" x="0" y="0" width="50" height="85.5488" filterUnits="userSpaceOnUse" color-interpolation-filters="sRGB">
<feFlood flood-opacity="0" result="BackgroundImageFix"/>
<feColorMatrix in="SourceAlpha" type="matrix" values="0 0 0 0 0 0 0 0 0 0 0 0 0 0 0 0 0 0 127 0" result="hardAlpha"/>
<feOffset dy="4"/>
<feGaussianBlur stdDeviation="2"/>
<feComposite in2="hardAlpha" operator="out"/>
<feColorMatrix type="matrix" values="0 0 0 0 0 0 0 0 0 0 0 0 0 0 0 0 0 0 0.25 0"/>
<feBlend mode="normal" in2="BackgroundImageFix" result="effect1_dropShadow_1_310"/>
<feBlend mode="normal" in="SourceGraphic" in2="effect1_dropShadow_1_310" result="shape"/>
</filter>
</defs>
</svg>
