<svg width="38" height="70" viewBox="0 0 38 70" fill="none" xmlns="http://www.w3.org/2000/svg">
<path opacity="0.918" fill-rule="evenodd" clip-rule="evenodd" d="M17.8408 49.3766C18.1382 48.336 18.4355 47.295 18.7329 46.2545C21.8425 42.6809 23.7752 38.5179 24.5311 33.7659C24.1613 30.1637 22.3772 29.123 19.1789 30.6437C19.0302 30.6437 18.8815 30.6437 18.7329 30.6437C18.7676 29.4164 18.842 28.227 18.9559 27.0756C15.5748 27.4223 12.2296 27.0506 8.92041 25.9605C7.16848 25.2499 6.05343 23.9861 5.57526 22.1693C5.27789 16.3711 5.27789 10.5728 5.57526 4.77455C6.60543 -0.281032 9.13289 -1.32175 13.1576 1.65241C13.9613 3.96159 14.333 6.34035 14.2727 8.78874C13.9504 11.7609 13.876 14.7344 14.0496 17.7091C14.5007 18.0823 15.021 18.231 15.6107 18.1552C14.001 8.17626 18.1639 3.49305 28.0993 4.10552C31.4913 4.97009 33.4984 7.12588 34.1206 10.5728C35.0391 14.474 34.8904 18.3395 33.6745 22.1693C33.3507 23.5612 32.6817 24.7506 31.6675 25.7375C34.1753 26.7031 34.993 28.4871 34.1206 31.0898C33.671 31.8743 33.0019 32.3947 32.1135 32.6508C30.6268 32.6508 29.14 32.6508 27.6533 32.6508C26.2264 33.3997 26.0777 34.2917 27.2072 35.327C33.4791 34.3081 35.4119 36.6868 33.0055 42.4633C32.2913 42.585 31.6223 42.8081 30.9984 43.1323C29.7776 42.6372 28.5138 42.5627 27.2072 42.9093C26.0346 44.1532 26.3319 45.0453 28.0993 45.5854C30.4351 45.7103 32.8139 46.0074 35.2356 46.4775C36.5418 47.9301 36.9135 49.6402 36.3507 51.6067C35.7888 52.9126 34.8224 53.7302 33.4515 54.0598C29.7258 54.1749 26.0089 54.3979 22.301 54.7288C18.9371 54.554 17.4504 52.7699 17.8408 49.3766ZM25.4232 11.4649C26.4144 11.3212 27.2321 11.6186 27.8763 12.3569C28.7487 15.1701 28.7487 17.9949 27.8763 20.8313C26.8039 23.3714 25.3172 23.6687 23.4161 21.7233C22.0003 18.8914 22.0003 16.0665 23.4161 13.2489C24.1595 12.6989 24.8285 12.1042 25.4232 11.4649ZM16.5028 18.6012C21.6867 19.0857 23.0248 21.5388 20.5169 25.9605C19.5828 26.1591 18.9138 25.7875 18.5098 24.8455C17.4365 22.8894 16.7675 20.808 16.5028 18.6012ZM22.301 25.7375C24.8528 25.6789 27.3803 25.9019 29.8834 26.4065C26.8564 28.2619 23.7342 28.4106 20.5169 26.8526C21.1228 26.4358 21.7175 26.0641 22.301 25.7375Z" fill="#39BFA7"/>
<path opacity="0.94" fill-rule="evenodd" clip-rule="evenodd" d="M18.7328 30.6436C18.8815 30.6436 19.0302 30.6436 19.1789 30.6436C19.0137 35.8466 18.865 41.0501 18.7328 46.2543C18.4355 47.2949 18.1382 48.3359 17.8408 49.3764C16.5893 50.9986 15.1026 52.4112 13.3806 53.6136C11.7271 54.0579 10.2404 53.7608 8.9204 52.7216C6.86331 48.5321 4.85621 44.2949 2.89912 40.01C1.8204 37.741 1.15137 35.3623 0.892029 32.8737C1.75236 28.9405 3.98246 27.9741 7.58234 29.9746C9.03734 31.7298 10.7471 33.1422 12.7116 34.2117C14.9815 33.4134 16.9886 32.224 18.7328 30.6436Z" fill="#F87932"/>
<path opacity="0.757" fill-rule="evenodd" clip-rule="evenodd" d="M5.79827 60.0813C5.79827 60.8248 5.79827 61.5679 5.79827 62.3114C5.06505 62.2159 4.39602 62.3649 3.79117 62.7574C3.60446 62.2347 3.30711 61.7886 2.89913 61.4193C2.60179 63.5009 2.60179 65.582 2.89913 67.6636C3.69702 66.8924 4.66341 66.595 5.79827 66.7716C5.63217 69.6114 4.1454 70.5779 1.33806 69.6707C0.736359 69.3264 0.364676 68.8059 0.223011 68.1096C-0.0743371 65.731 -0.0743371 63.3519 0.223011 60.9733C0.430518 60.3351 0.8022 59.815 1.33806 59.4122C2.96545 58.9827 4.45218 59.2057 5.79827 60.0813Z" fill="#39BFA7"/>
<path opacity="0.794" fill-rule="evenodd" clip-rule="evenodd" d="M5.79828 60.0812C6.43069 59.2748 7.32273 58.9773 8.4744 59.1891C8.86195 62.5579 9.30797 62.6324 9.81246 59.4122C12.1912 59.1147 14.57 59.1147 16.9488 59.4122C17.3092 59.5495 17.6065 59.7725 17.8408 60.0812C18.3284 61.6904 18.4028 63.326 18.0638 64.9874C17.2904 65.8576 16.324 66.3036 15.1647 66.3255C15.1647 67.515 15.1647 68.7041 15.1647 69.8936C14.2727 69.8936 13.3806 69.8936 12.4886 69.8936C12.5628 66.4709 12.4885 63.0512 12.2656 59.6352C10.7099 62.8875 10.0409 66.3067 10.2585 69.8936C9.5151 69.8936 8.77176 69.8936 8.02838 69.8936C8.18948 66.375 7.4461 63.1043 5.79828 60.0812ZM15.1647 61.4192C16.2343 62.0356 16.3086 62.7792 15.3877 63.6493C15.1676 62.9205 15.0933 62.177 15.1647 61.4192Z" fill="#39BFA7"/>
<path opacity="0.827" fill-rule="evenodd" clip-rule="evenodd" d="M19.1789 59.1894C24.542 58.5989 26.1774 60.829 24.0851 65.8797C24.5693 67.1821 24.8667 68.5202 24.9772 69.8939C24.2193 69.9653 23.4759 69.8912 22.7471 69.6709C21.7045 65.7325 21.2585 65.8066 21.409 69.8939C20.6656 69.8939 19.9223 69.8939 19.1789 69.8939C19.1789 66.3257 19.1789 62.7576 19.1789 59.1894ZM21.409 61.4195C22.4786 62.0359 22.5529 62.7794 21.632 63.6496C21.4119 62.9208 21.3375 62.1773 21.409 61.4195Z" fill="#39BFA7"/>
<path opacity="0.757" fill-rule="evenodd" clip-rule="evenodd" d="M25.4232 59.1895C26.3152 59.1895 27.2072 59.1895 28.0993 59.1895C28.2479 70.4885 28.3967 70.4885 28.5453 59.1895C29.4374 59.1895 30.3294 59.1895 31.2214 59.1895C31.2956 62.4637 31.2213 65.7344 30.9984 69.0019C29.5543 70.0086 27.9933 70.1571 26.3152 69.4479C25.9803 69.0572 25.7573 68.6112 25.6462 68.1099C25.4233 65.1403 25.349 62.1666 25.4232 59.1895Z" fill="#39BFA7"/>
<path opacity="0.763" fill-rule="evenodd" clip-rule="evenodd" d="M35.2356 62.7573C38.1587 64.5129 38.6048 66.817 36.5737 69.6706C35.3843 69.9681 34.1949 69.9681 33.0055 69.6706C32.2344 68.8727 31.937 67.9062 32.1135 66.7715C32.8467 66.867 33.5157 66.718 34.1206 66.3255C34.5196 67.6078 34.8912 67.7563 35.2356 66.7715C35.1874 66.3514 35.0387 65.9798 34.7896 65.6565C32.266 64.8407 31.4482 63.1306 32.3365 60.5272C32.4737 60.1668 32.6967 59.8693 33.0055 59.6352C35.8765 58.3975 37.5119 59.2895 37.9118 62.3113C36.9908 62.3189 36.0988 62.4674 35.2356 62.7573ZM35.2356 62.7573C34.2276 62.4282 34.1532 61.9821 35.0126 61.4193C35.228 61.8421 35.3023 62.2881 35.2356 62.7573Z" fill="#39BFA7"/>
</svg>
