<svg width="1930" height="311" viewBox="0 0 1930 311" fill="none" xmlns="http://www.w3.org/2000/svg">
<path d="M1662.8 308.246C1659.48 311.918 1654.09 311.918 1650.77 308.246L1548.68 195.454L1656.79 76.0122L1764.89 195.454L1662.8 308.246Z" fill="white"/>
<path d="M737.875 272.773C734.551 276.446 729.162 276.446 725.838 272.773L623.754 159.981L731.857 40.5398L839.96 159.981L737.875 272.773Z" fill="white"/>
<path d="M244.07 294.732C240.746 298.405 235.357 298.405 232.033 294.732L129.949 181.94L238.052 62.4988L346.155 181.94L244.07 294.732Z" fill="white"/>
<path d="M1532.86 293.043C1529.53 296.716 1524.14 296.716 1520.82 293.043L1418.73 180.251L1526.84 60.8098L1634.94 180.251L1532.86 293.043Z" fill="white"/>
<path d="M607.927 257.571C604.603 261.243 599.213 261.243 595.889 257.571L493.805 144.779L601.908 25.3373L710.011 144.779L607.927 257.571Z" fill="white"/>
<path d="M114.122 279.53C110.798 283.202 105.408 283.202 102.084 279.53L1.26118e-05 166.738L108.103 47.2964L216.206 166.738L114.122 279.53Z" fill="white"/>
<path d="M1129.25 266.016C1125.93 269.689 1120.54 269.689 1117.21 266.016L1015.13 153.225L1123.23 33.7832L1231.33 153.225L1129.25 266.016Z" fill="white"/>
<path d="M1011.31 219.414C1007.98 223.087 1002.6 223.087 999.271 219.414L902.988 113.032L1005.29 -1.98056e-05L1107.59 113.032L1011.31 219.414Z" fill="white"/>
<path d="M499.381 254.192C496.057 257.865 490.668 257.865 487.344 254.192L385.26 141.401L493.363 21.959L601.466 141.401L499.381 254.192Z" fill="white"/>
<path d="M1827.92 293.043C1824.59 296.716 1819.2 296.716 1815.88 293.043L1713.79 180.251L1821.9 60.8098L1930 180.251L1827.92 293.043Z" fill="white"/>
<path d="M902.987 257.571C899.663 261.243 894.273 261.243 890.949 257.571L788.865 144.779L896.968 25.3374L1005.07 144.779L902.987 257.571Z" fill="white"/>
<path d="M409.182 279.53C405.858 283.202 400.468 283.202 397.144 279.53L295.06 166.738L403.163 47.2964L511.266 166.738L409.182 279.53Z" fill="white"/>
<path d="M1415.14 239.158C1411.81 242.831 1406.42 242.831 1403.1 239.158L1313.17 139.796L1409.12 33.7832L1505.07 139.796L1415.14 239.158Z" fill="white"/>
<path d="M1265.31 308.245C1261.99 311.918 1256.6 311.918 1253.28 308.245L1151.19 195.454L1259.3 76.0122L1367.4 195.454L1265.31 308.245Z" fill="white"/>
</svg>
