<svg width="304" height="304" viewBox="0 0 304 304" fill="none" xmlns="http://www.w3.org/2000/svg">
<g filter="url(#filter0_di_1_114)">
<path d="M149.062 8.37437C150.819 6.61701 153.668 6.61701 155.426 8.37436L287.808 140.757C289.565 142.514 289.565 145.363 287.808 147.121L155.426 279.503C153.668 281.26 150.819 281.26 149.062 279.503L16.6793 147.121C14.9219 145.363 14.9219 142.514 16.6793 140.757L149.062 8.37437Z" stroke="#39BFA7" stroke-width="13" shape-rendering="crispEdges"/>
</g>
<g filter="url(#filter1_di_1_114)">
<path fill-rule="evenodd" clip-rule="evenodd" d="M280.071 151.419C283.976 147.513 283.976 141.182 280.071 137.276L159.724 16.9289C155.818 13.0237 149.487 13.0237 145.581 16.9289L25.2339 137.276C21.3286 141.182 21.3286 147.513 25.2339 151.419L145.581 271.766C149.487 275.671 155.818 275.671 159.724 271.766L280.071 151.419ZM157.76 28.8547C154.636 25.7305 149.57 25.7305 146.446 28.8547L114.905 60.3961C111.78 63.5203 111.78 68.5856 114.905 71.7098L146.446 103.251C149.57 106.375 154.636 106.375 157.76 103.251L189.301 71.7098C192.425 68.5856 192.425 63.5203 189.301 60.3961L157.76 28.8547ZM149.274 31.6831C150.837 30.121 153.369 30.121 154.931 31.6831L186.473 63.2245C188.035 64.7866 188.035 67.3193 186.473 68.8814L154.931 100.423C153.369 101.985 150.837 101.985 149.274 100.423L117.733 68.8814C116.171 67.3193 116.171 64.7866 117.733 63.2245L149.274 31.6831Z" fill="white"/>
</g>
<g filter="url(#filter2_i_1_114)">
<path d="M148.958 30.8851C150.524 29.2979 153.086 29.2979 154.652 30.8851L186.532 63.1904C188.069 64.7481 188.069 67.2519 186.532 68.8096L154.652 101.115C153.086 102.702 150.524 102.702 148.958 101.115L117.078 68.8096C115.54 67.2519 115.54 64.7481 117.078 63.1904L148.958 30.8851Z" fill="#39BFA7"/>
</g>
<path d="M121.994 146.04V155H117.706V146.04L109.274 131.864H113.066C113.439 131.864 113.732 131.955 113.946 132.136C114.17 132.317 114.356 132.547 114.506 132.824L118.73 140.552C118.975 141.011 119.188 141.443 119.37 141.848C119.562 142.253 119.732 142.659 119.882 143.064C120.02 142.659 120.18 142.253 120.362 141.848C120.543 141.443 120.751 141.011 120.986 140.552L125.194 132.824C125.311 132.589 125.487 132.371 125.722 132.168C125.956 131.965 126.255 131.864 126.618 131.864H130.426L121.994 146.04ZM141.695 144.904C141.695 144.392 141.62 143.912 141.471 143.464C141.332 143.005 141.119 142.605 140.831 142.264C140.543 141.923 140.175 141.656 139.727 141.464C139.289 141.261 138.777 141.16 138.191 141.16C137.049 141.16 136.148 141.485 135.487 142.136C134.836 142.787 134.42 143.709 134.239 144.904H141.695ZM134.159 147.288C134.223 148.131 134.372 148.861 134.607 149.48C134.841 150.088 135.151 150.595 135.535 151C135.919 151.395 136.372 151.693 136.895 151.896C137.428 152.088 138.015 152.184 138.655 152.184C139.295 152.184 139.844 152.109 140.303 151.96C140.772 151.811 141.177 151.645 141.519 151.464C141.871 151.283 142.175 151.117 142.431 150.968C142.697 150.819 142.953 150.744 143.199 150.744C143.529 150.744 143.775 150.867 143.935 151.112L145.071 152.552C144.633 153.064 144.143 153.496 143.599 153.848C143.055 154.189 142.484 154.467 141.887 154.68C141.3 154.883 140.697 155.027 140.079 155.112C139.471 155.197 138.879 155.24 138.303 155.24C137.161 155.24 136.1 155.053 135.119 154.68C134.137 154.296 133.284 153.736 132.559 153C131.833 152.253 131.263 151.336 130.847 150.248C130.431 149.149 130.223 147.88 130.223 146.44C130.223 145.32 130.404 144.269 130.767 143.288C131.129 142.296 131.647 141.437 132.319 140.712C133.001 139.976 133.828 139.395 134.799 138.968C135.78 138.541 136.884 138.328 138.111 138.328C139.145 138.328 140.1 138.493 140.975 138.824C141.849 139.155 142.601 139.64 143.231 140.28C143.86 140.909 144.351 141.688 144.703 142.616C145.065 143.533 145.247 144.584 145.247 145.768C145.247 146.365 145.183 146.771 145.055 146.984C144.927 147.187 144.681 147.288 144.319 147.288H134.159ZM159.445 147.992C158.303 148.045 157.343 148.147 156.565 148.296C155.786 148.435 155.162 148.616 154.693 148.84C154.223 149.064 153.887 149.325 153.685 149.624C153.482 149.923 153.381 150.248 153.381 150.6C153.381 151.293 153.583 151.789 153.989 152.088C154.405 152.387 154.943 152.536 155.605 152.536C156.415 152.536 157.114 152.392 157.701 152.104C158.298 151.805 158.879 151.357 159.445 150.76V147.992ZM150.389 140.872C152.277 139.144 154.549 138.28 157.205 138.28C158.165 138.28 159.023 138.44 159.781 138.76C160.538 139.069 161.178 139.507 161.701 140.072C162.223 140.627 162.618 141.293 162.885 142.072C163.162 142.851 163.301 143.704 163.301 144.632V155H161.509C161.135 155 160.847 154.947 160.645 154.84C160.442 154.723 160.282 154.493 160.165 154.152L159.813 152.968C159.397 153.341 158.991 153.672 158.597 153.96C158.202 154.237 157.791 154.472 157.365 154.664C156.938 154.856 156.479 155 155.989 155.096C155.509 155.203 154.975 155.256 154.389 155.256C153.695 155.256 153.055 155.165 152.469 154.984C151.882 154.792 151.375 154.509 150.949 154.136C150.522 153.763 150.191 153.299 149.957 152.744C149.722 152.189 149.605 151.544 149.605 150.808C149.605 150.392 149.674 149.981 149.813 149.576C149.951 149.16 150.175 148.765 150.485 148.392C150.805 148.019 151.215 147.667 151.717 147.336C152.218 147.005 152.831 146.717 153.557 146.472C154.293 146.227 155.146 146.029 156.117 145.88C157.087 145.72 158.197 145.624 159.445 145.592V144.632C159.445 143.533 159.21 142.723 158.741 142.2C158.271 141.667 157.594 141.4 156.709 141.4C156.069 141.4 155.535 141.475 155.109 141.624C154.693 141.773 154.325 141.944 154.005 142.136C153.685 142.317 153.391 142.483 153.125 142.632C152.869 142.781 152.581 142.856 152.261 142.856C151.983 142.856 151.749 142.787 151.557 142.648C151.365 142.499 151.21 142.328 151.093 142.136L150.389 140.872ZM173.311 141.432C173.823 140.451 174.431 139.683 175.135 139.128C175.839 138.563 176.671 138.28 177.631 138.28C178.388 138.28 178.996 138.445 179.455 138.776L179.199 141.736C179.145 141.928 179.065 142.067 178.959 142.152C178.863 142.227 178.729 142.264 178.559 142.264C178.399 142.264 178.159 142.237 177.839 142.184C177.529 142.131 177.225 142.104 176.927 142.104C176.489 142.104 176.1 142.168 175.759 142.296C175.417 142.424 175.108 142.611 174.831 142.856C174.564 143.091 174.324 143.379 174.111 143.72C173.908 144.061 173.716 144.451 173.535 144.888V155H169.583V138.584H171.903C172.308 138.584 172.591 138.659 172.751 138.808C172.911 138.947 173.017 139.203 173.071 139.576L173.311 141.432ZM194.034 141.784C193.927 141.955 193.815 142.077 193.698 142.152C193.58 142.216 193.431 142.248 193.25 142.248C193.058 142.248 192.85 142.195 192.626 142.088C192.412 141.981 192.162 141.864 191.874 141.736C191.586 141.597 191.255 141.475 190.882 141.368C190.519 141.261 190.087 141.208 189.586 141.208C188.807 141.208 188.194 141.373 187.746 141.704C187.308 142.035 187.09 142.467 187.09 143C187.09 143.352 187.202 143.651 187.426 143.896C187.66 144.131 187.964 144.339 188.338 144.52C188.722 144.701 189.154 144.867 189.634 145.016C190.114 145.155 190.599 145.309 191.09 145.48C191.591 145.651 192.082 145.848 192.562 146.072C193.042 146.285 193.468 146.563 193.842 146.904C194.226 147.235 194.53 147.635 194.754 148.104C194.988 148.573 195.106 149.139 195.106 149.8C195.106 150.589 194.962 151.32 194.674 151.992C194.396 152.653 193.98 153.229 193.426 153.72C192.871 154.2 192.183 154.579 191.362 154.856C190.551 155.123 189.612 155.256 188.546 155.256C187.98 155.256 187.426 155.203 186.882 155.096C186.348 155 185.831 154.861 185.33 154.68C184.839 154.499 184.38 154.285 183.954 154.04C183.538 153.795 183.17 153.528 182.85 153.24L183.762 151.736C183.879 151.555 184.018 151.416 184.178 151.32C184.338 151.224 184.54 151.176 184.786 151.176C185.031 151.176 185.26 151.245 185.474 151.384C185.698 151.523 185.954 151.672 186.242 151.832C186.53 151.992 186.866 152.141 187.25 152.28C187.644 152.419 188.14 152.488 188.738 152.488C189.207 152.488 189.607 152.435 189.938 152.328C190.279 152.211 190.556 152.061 190.77 151.88C190.994 151.699 191.154 151.491 191.25 151.256C191.356 151.011 191.41 150.76 191.41 150.504C191.41 150.12 191.292 149.805 191.058 149.56C190.834 149.315 190.53 149.101 190.146 148.92C189.772 148.739 189.34 148.579 188.85 148.44C188.37 148.291 187.874 148.131 187.362 147.96C186.86 147.789 186.364 147.592 185.874 147.368C185.394 147.133 184.962 146.84 184.578 146.488C184.204 146.136 183.9 145.704 183.666 145.192C183.442 144.68 183.33 144.061 183.33 143.336C183.33 142.664 183.463 142.024 183.73 141.416C183.996 140.808 184.386 140.28 184.898 139.832C185.42 139.373 186.066 139.011 186.834 138.744C187.612 138.467 188.508 138.328 189.522 138.328C190.652 138.328 191.682 138.515 192.61 138.888C193.538 139.261 194.311 139.752 194.93 140.36L194.034 141.784ZM130.485 183.288V189.704H138.581V193.016H130.485V199.56H140.757V203H126.165V179.864H140.757V183.288H130.485ZM161.163 203H157.355C157.067 203 156.832 202.925 156.651 202.776C156.48 202.627 156.336 202.456 156.219 202.264L152.747 196.552C152.694 196.733 152.63 196.904 152.555 197.064C152.491 197.224 152.416 197.373 152.331 197.512L149.259 202.264C149.142 202.445 148.998 202.616 148.827 202.776C148.656 202.925 148.443 203 148.187 203H144.651L150.283 194.536L144.875 186.584H148.683C148.971 186.584 149.184 186.627 149.323 186.712C149.462 186.787 149.584 186.915 149.691 187.096L153.131 192.568C153.248 192.205 153.414 191.848 153.627 191.496L156.395 187.176C156.63 186.781 156.934 186.584 157.307 186.584H160.939L155.547 194.36L161.163 203ZM169.738 198.744C170.186 199.288 170.671 199.672 171.194 199.896C171.727 200.12 172.303 200.232 172.922 200.232C173.519 200.232 174.058 200.12 174.538 199.896C175.018 199.672 175.423 199.331 175.754 198.872C176.095 198.413 176.356 197.837 176.538 197.144C176.719 196.44 176.81 195.613 176.81 194.664C176.81 193.704 176.73 192.893 176.57 192.232C176.42 191.56 176.202 191.016 175.914 190.6C175.626 190.184 175.274 189.88 174.858 189.688C174.452 189.496 173.988 189.4 173.466 189.4C172.644 189.4 171.946 189.576 171.37 189.928C170.794 190.269 170.25 190.755 169.738 191.384V198.744ZM169.53 188.824C170.202 188.067 170.964 187.453 171.818 186.984C172.671 186.515 173.674 186.28 174.826 186.28C175.722 186.28 176.538 186.467 177.274 186.84C178.02 187.213 178.66 187.757 179.194 188.472C179.738 189.176 180.154 190.051 180.442 191.096C180.74 192.131 180.89 193.32 180.89 194.664C180.89 195.891 180.724 197.027 180.394 198.072C180.063 199.117 179.588 200.024 178.97 200.792C178.362 201.56 177.62 202.163 176.746 202.6C175.882 203.027 174.911 203.24 173.834 203.24C172.916 203.24 172.132 203.101 171.482 202.824C170.831 202.536 170.25 202.141 169.738 201.64V208.36H165.786V186.584H168.202C168.714 186.584 169.05 186.824 169.21 187.304L169.53 188.824Z" fill="#222222"/>
<path d="M149.153 72.15V74H141.153V72.15H144.083V63.72C144.083 63.3867 144.093 63.0433 144.113 62.69L142.033 64.43C141.913 64.5233 141.793 64.5833 141.673 64.61C141.56 64.63 141.45 64.63 141.343 64.61C141.243 64.59 141.153 64.5567 141.073 64.51C140.993 64.4567 140.933 64.4 140.893 64.34L140.113 63.27L144.523 59.52H146.553V72.15H149.153ZM162.555 72.15V74H154.555V72.15H157.485V63.72C157.485 63.3867 157.495 63.0433 157.515 62.69L155.435 64.43C155.315 64.5233 155.195 64.5833 155.075 64.61C154.962 64.63 154.852 64.63 154.745 64.61C154.645 64.59 154.555 64.5567 154.475 64.51C154.395 64.4567 154.335 64.4 154.295 64.34L153.515 63.27L157.925 59.52H159.955V72.15H162.555Z" fill="white"/>
<defs>
<filter id="filter0_di_1_114" x="0.861328" y="0.556152" width="302.765" height="302.765" filterUnits="userSpaceOnUse" color-interpolation-filters="sRGB">
<feFlood flood-opacity="0" result="BackgroundImageFix"/>
<feColorMatrix in="SourceAlpha" type="matrix" values="0 0 0 0 0 0 0 0 0 0 0 0 0 0 0 0 0 0 127 0" result="hardAlpha"/>
<feOffset dy="8"/>
<feGaussianBlur stdDeviation="4"/>
<feComposite in2="hardAlpha" operator="out"/>
<feColorMatrix type="matrix" values="0 0 0 0 0 0 0 0 0 0.407762 0 0 0 0 0.358831 0 0 0 0.25 0"/>
<feBlend mode="normal" in2="BackgroundImageFix" result="effect1_dropShadow_1_114"/>
<feBlend mode="normal" in="SourceGraphic" in2="effect1_dropShadow_1_114" result="shape"/>
<feColorMatrix in="SourceAlpha" type="matrix" values="0 0 0 0 0 0 0 0 0 0 0 0 0 0 0 0 0 0 127 0" result="hardAlpha"/>
<feOffset dy="2.2"/>
<feGaussianBlur stdDeviation="2.2"/>
<feComposite in2="hardAlpha" operator="arithmetic" k2="-1" k3="1"/>
<feColorMatrix type="matrix" values="0 0 0 0 1 0 0 0 0 1 0 0 0 0 1 0 0 0 0.25 0"/>
<feBlend mode="normal" in2="shape" result="effect2_innerShadow_1_114"/>
</filter>
<filter id="filter1_di_1_114" x="14.3049" y="10" width="276.695" height="276.695" filterUnits="userSpaceOnUse" color-interpolation-filters="sRGB">
<feFlood flood-opacity="0" result="BackgroundImageFix"/>
<feColorMatrix in="SourceAlpha" type="matrix" values="0 0 0 0 0 0 0 0 0 0 0 0 0 0 0 0 0 0 127 0" result="hardAlpha"/>
<feOffset dy="4"/>
<feGaussianBlur stdDeviation="4"/>
<feComposite in2="hardAlpha" operator="out"/>
<feColorMatrix type="matrix" values="0 0 0 0 0.242029 0 0 0 0 0 0 0 0 0 0 0 0 0 0.25 0"/>
<feBlend mode="normal" in2="BackgroundImageFix" result="effect1_dropShadow_1_114"/>
<feBlend mode="normal" in="SourceGraphic" in2="effect1_dropShadow_1_114" result="shape"/>
<feColorMatrix in="SourceAlpha" type="matrix" values="0 0 0 0 0 0 0 0 0 0 0 0 0 0 0 0 0 0 127 0" result="hardAlpha"/>
<feOffset dy="2"/>
<feGaussianBlur stdDeviation="2"/>
<feComposite in2="hardAlpha" operator="arithmetic" k2="-1" k3="1"/>
<feColorMatrix type="matrix" values="0 0 0 0 0.224172 0 0 0 0 0 0 0 0 0 0 0 0 0 0.25 0"/>
<feBlend mode="normal" in2="shape" result="effect2_innerShadow_1_114"/>
</filter>
<filter id="filter2_i_1_114" x="115.925" y="29.6948" width="71.7605" height="74.6104" filterUnits="userSpaceOnUse" color-interpolation-filters="sRGB">
<feFlood flood-opacity="0" result="BackgroundImageFix"/>
<feBlend mode="normal" in="SourceGraphic" in2="BackgroundImageFix" result="shape"/>
<feColorMatrix in="SourceAlpha" type="matrix" values="0 0 0 0 0 0 0 0 0 0 0 0 0 0 0 0 0 0 127 0" result="hardAlpha"/>
<feOffset dy="2"/>
<feGaussianBlur stdDeviation="2"/>
<feComposite in2="hardAlpha" operator="arithmetic" k2="-1" k3="1"/>
<feColorMatrix type="matrix" values="0 0 0 0 0.164648 0 0 0 0 0.0247999 0 0 0 0 0.0247999 0 0 0 0.23 0"/>
<feBlend mode="normal" in2="shape" result="effect1_innerShadow_1_114"/>
</filter>
</defs>
</svg>
