<svg width="304" height="304" viewBox="0 0 304 304" fill="none" xmlns="http://www.w3.org/2000/svg">
<g filter="url(#filter0_di_1_113)">
<path d="M148.96 8.37437C150.717 6.61701 153.567 6.61701 155.324 8.37436L287.706 140.757C289.464 142.514 289.464 145.363 287.706 147.121L155.324 279.503C153.567 281.26 150.717 281.26 148.96 279.503L16.5776 147.121C14.8203 145.363 14.8203 142.514 16.5776 140.757L148.96 8.37437Z" stroke="#39BFA7" stroke-width="13" shape-rendering="crispEdges"/>
</g>
<g filter="url(#filter1_di_1_113)">
<path fill-rule="evenodd" clip-rule="evenodd" d="M279.969 151.419C283.875 147.513 283.875 141.182 279.969 137.276L159.622 16.9289C155.717 13.0237 149.385 13.0237 145.48 16.9289L25.1322 137.276C21.2269 141.182 21.2269 147.513 25.1322 151.419L145.48 271.766C149.385 275.671 155.717 275.671 159.622 271.766L279.969 151.419ZM157.658 28.8547C154.534 25.7305 149.469 25.7305 146.344 28.8547L114.803 60.3961C111.679 63.5203 111.679 68.5856 114.803 71.7098L146.344 103.251C149.469 106.375 154.534 106.375 157.658 103.251L189.199 71.7098C192.324 68.5856 192.324 63.5203 189.199 60.3961L157.658 28.8547ZM149.173 31.6831C150.735 30.121 153.268 30.121 154.83 31.6831L186.371 63.2245C187.933 64.7866 187.933 67.3193 186.371 68.8814L154.83 100.423C153.268 101.985 150.735 101.985 149.173 100.423L117.631 68.8814C116.069 67.3193 116.069 64.7866 117.631 63.2245L149.173 31.6831Z" fill="white"/>
</g>
<g filter="url(#filter2_i_1_113)">
<path d="M148.856 30.8851C150.422 29.2979 152.984 29.2979 154.55 30.8851L186.431 63.1904C187.968 64.7481 187.968 67.2519 186.431 68.8096L154.55 101.115C152.984 102.702 150.422 102.702 148.856 101.115L116.976 68.8096C115.439 67.2519 115.439 64.7481 116.976 63.1904L148.856 30.8851Z" fill="#39BFA7"/>
</g>
<path d="M138.261 143.4V152.76C137.088 153.624 135.835 154.259 134.501 154.664C133.179 155.059 131.76 155.256 130.245 155.256C128.357 155.256 126.645 154.963 125.109 154.376C123.584 153.789 122.277 152.973 121.189 151.928C120.112 150.883 119.28 149.635 118.693 148.184C118.107 146.733 117.813 145.149 117.813 143.432C117.813 141.693 118.096 140.099 118.661 138.648C119.227 137.197 120.027 135.949 121.061 134.904C122.107 133.859 123.371 133.048 124.853 132.472C126.336 131.896 128 131.608 129.845 131.608C130.784 131.608 131.659 131.683 132.469 131.832C133.291 131.981 134.048 132.189 134.741 132.456C135.445 132.712 136.085 133.027 136.661 133.4C137.237 133.773 137.765 134.184 138.245 134.632L137.013 136.584C136.821 136.893 136.571 137.085 136.261 137.16C135.952 137.224 135.616 137.144 135.253 136.92C134.901 136.717 134.549 136.515 134.197 136.312C133.845 136.109 133.451 135.933 133.013 135.784C132.587 135.635 132.101 135.512 131.557 135.416C131.024 135.32 130.405 135.272 129.701 135.272C128.56 135.272 127.525 135.464 126.597 135.848C125.68 136.232 124.896 136.781 124.245 137.496C123.595 138.211 123.093 139.069 122.741 140.072C122.389 141.075 122.213 142.195 122.213 143.432C122.213 144.755 122.4 145.939 122.773 146.984C123.157 148.019 123.691 148.899 124.373 149.624C125.067 150.339 125.899 150.888 126.869 151.272C127.84 151.645 128.923 151.832 130.117 151.832C130.971 151.832 131.733 151.741 132.405 151.56C133.077 151.379 133.733 151.133 134.373 150.824V146.632H131.461C131.184 146.632 130.965 146.557 130.805 146.408C130.656 146.248 130.581 146.056 130.581 145.832V143.4H138.261ZM148.377 138.584V155H144.409V138.584H148.377ZM148.921 133.8C148.921 134.141 148.852 134.461 148.713 134.76C148.575 135.059 148.388 135.32 148.153 135.544C147.929 135.768 147.663 135.949 147.353 136.088C147.044 136.216 146.713 136.28 146.361 136.28C146.02 136.28 145.695 136.216 145.385 136.088C145.087 135.949 144.825 135.768 144.601 135.544C144.377 135.32 144.196 135.059 144.057 134.76C143.929 134.461 143.865 134.141 143.865 133.8C143.865 133.448 143.929 133.117 144.057 132.808C144.196 132.499 144.377 132.232 144.601 132.008C144.825 131.784 145.087 131.608 145.385 131.48C145.695 131.341 146.02 131.272 146.361 131.272C146.713 131.272 147.044 131.341 147.353 131.48C147.663 131.608 147.929 131.784 148.153 132.008C148.388 132.232 148.575 132.499 148.713 132.808C148.852 133.117 148.921 133.448 148.921 133.8ZM165.27 142.776C164.822 142.232 164.332 141.848 163.798 141.624C163.276 141.4 162.71 141.288 162.102 141.288C161.505 141.288 160.966 141.4 160.486 141.624C160.006 141.848 159.596 142.189 159.254 142.648C158.913 143.096 158.652 143.672 158.47 144.376C158.289 145.069 158.198 145.891 158.198 146.84C158.198 147.8 158.273 148.616 158.422 149.288C158.582 149.949 158.806 150.493 159.094 150.92C159.382 151.336 159.734 151.64 160.15 151.832C160.566 152.013 161.03 152.104 161.542 152.104C162.364 152.104 163.062 151.933 163.638 151.592C164.214 151.251 164.758 150.765 165.27 150.136V142.776ZM169.222 131.224V155H166.806C166.284 155 165.953 154.76 165.814 154.28L165.478 152.696C164.817 153.453 164.054 154.067 163.19 154.536C162.337 155.005 161.34 155.24 160.198 155.24C159.302 155.24 158.481 155.053 157.734 154.68C156.988 154.307 156.342 153.768 155.798 153.064C155.265 152.349 154.849 151.469 154.55 150.424C154.262 149.379 154.118 148.184 154.118 146.84C154.118 145.624 154.284 144.493 154.614 143.448C154.945 142.403 155.42 141.496 156.038 140.728C156.657 139.96 157.398 139.363 158.262 138.936C159.126 138.499 160.097 138.28 161.174 138.28C162.092 138.28 162.876 138.424 163.526 138.712C164.177 139 164.758 139.389 165.27 139.88V131.224H169.222ZM185.699 141.784C185.592 141.955 185.48 142.077 185.363 142.152C185.245 142.216 185.096 142.248 184.915 142.248C184.723 142.248 184.515 142.195 184.291 142.088C184.077 141.981 183.827 141.864 183.539 141.736C183.251 141.597 182.92 141.475 182.547 141.368C182.184 141.261 181.752 141.208 181.251 141.208C180.472 141.208 179.859 141.373 179.411 141.704C178.973 142.035 178.755 142.467 178.755 143C178.755 143.352 178.867 143.651 179.091 143.896C179.325 144.131 179.629 144.339 180.003 144.52C180.387 144.701 180.819 144.867 181.299 145.016C181.779 145.155 182.264 145.309 182.755 145.48C183.256 145.651 183.747 145.848 184.227 146.072C184.707 146.285 185.133 146.563 185.507 146.904C185.891 147.235 186.195 147.635 186.419 148.104C186.653 148.573 186.771 149.139 186.771 149.8C186.771 150.589 186.627 151.32 186.339 151.992C186.061 152.653 185.645 153.229 185.091 153.72C184.536 154.2 183.848 154.579 183.027 154.856C182.216 155.123 181.277 155.256 180.211 155.256C179.645 155.256 179.091 155.203 178.547 155.096C178.013 155 177.496 154.861 176.995 154.68C176.504 154.499 176.045 154.285 175.619 154.04C175.203 153.795 174.835 153.528 174.515 153.24L175.427 151.736C175.544 151.555 175.683 151.416 175.843 151.32C176.003 151.224 176.205 151.176 176.451 151.176C176.696 151.176 176.925 151.245 177.139 151.384C177.363 151.523 177.619 151.672 177.907 151.832C178.195 151.992 178.531 152.141 178.915 152.28C179.309 152.419 179.805 152.488 180.403 152.488C180.872 152.488 181.272 152.435 181.603 152.328C181.944 152.211 182.221 152.061 182.435 151.88C182.659 151.699 182.819 151.491 182.915 151.256C183.021 151.011 183.075 150.76 183.075 150.504C183.075 150.12 182.957 149.805 182.723 149.56C182.499 149.315 182.195 149.101 181.811 148.92C181.437 148.739 181.005 148.579 180.515 148.44C180.035 148.291 179.539 148.131 179.027 147.96C178.525 147.789 178.029 147.592 177.539 147.368C177.059 147.133 176.627 146.84 176.243 146.488C175.869 146.136 175.565 145.704 175.331 145.192C175.107 144.68 174.995 144.061 174.995 143.336C174.995 142.664 175.128 142.024 175.395 141.416C175.661 140.808 176.051 140.28 176.563 139.832C177.085 139.373 177.731 139.011 178.499 138.744C179.277 138.467 180.173 138.328 181.187 138.328C182.317 138.328 183.347 138.515 184.275 138.888C185.203 139.261 185.976 139.752 186.595 140.36L185.699 141.784Z" fill="#222222"/>
<path d="M149.052 72.15V74H141.052V72.15H143.982V63.72C143.982 63.3867 143.992 63.0433 144.012 62.69L141.932 64.43C141.812 64.5233 141.692 64.5833 141.572 64.61C141.458 64.63 141.348 64.63 141.242 64.61C141.142 64.59 141.052 64.5567 140.972 64.51C140.892 64.4567 140.832 64.4 140.792 64.34L140.012 63.27L144.422 59.52H146.452V72.15H149.052ZM161.913 71.7C162.18 71.7 162.39 71.7767 162.543 71.93C162.703 72.0767 162.783 72.2733 162.783 72.52V74H152.863V73.18C152.863 73.0133 152.897 72.84 152.963 72.66C153.037 72.4733 153.15 72.3067 153.303 72.16L157.693 67.76C158.06 67.3867 158.387 67.03 158.673 66.69C158.967 66.35 159.21 66.0133 159.403 65.68C159.597 65.3467 159.743 65.01 159.843 64.67C159.95 64.3233 160.003 63.96 160.003 63.58C160.003 63.2333 159.953 62.93 159.853 62.67C159.753 62.4033 159.61 62.18 159.423 62C159.243 61.82 159.023 61.6867 158.763 61.6C158.51 61.5067 158.223 61.46 157.903 61.46C157.61 61.46 157.337 61.5033 157.083 61.59C156.837 61.67 156.617 61.7867 156.423 61.94C156.23 62.0867 156.067 62.26 155.933 62.46C155.8 62.66 155.7 62.88 155.633 63.12C155.52 63.4267 155.373 63.63 155.193 63.73C155.013 63.83 154.753 63.8533 154.413 63.8L153.113 63.57C153.213 62.8767 153.407 62.27 153.693 61.75C153.98 61.2233 154.337 60.7867 154.763 60.44C155.197 60.0867 155.69 59.8233 156.243 59.65C156.803 59.47 157.403 59.38 158.043 59.38C158.71 59.38 159.32 59.48 159.873 59.68C160.427 59.8733 160.9 60.15 161.293 60.51C161.687 60.87 161.993 61.3033 162.213 61.81C162.433 62.3167 162.543 62.88 162.543 63.5C162.543 64.0333 162.463 64.5267 162.303 64.98C162.15 65.4333 161.94 65.8667 161.673 66.28C161.413 66.6933 161.107 67.0933 160.753 67.48C160.4 67.8667 160.03 68.26 159.643 68.66L156.383 71.99C156.697 71.8967 157.007 71.8267 157.313 71.78C157.627 71.7267 157.923 71.7 158.203 71.7H161.913Z" fill="white"/>
<defs>
<filter id="filter0_di_1_113" x="0.759583" y="0.556152" width="302.765" height="302.765" filterUnits="userSpaceOnUse" color-interpolation-filters="sRGB">
<feFlood flood-opacity="0" result="BackgroundImageFix"/>
<feColorMatrix in="SourceAlpha" type="matrix" values="0 0 0 0 0 0 0 0 0 0 0 0 0 0 0 0 0 0 127 0" result="hardAlpha"/>
<feOffset dy="8"/>
<feGaussianBlur stdDeviation="4"/>
<feComposite in2="hardAlpha" operator="out"/>
<feColorMatrix type="matrix" values="0 0 0 0 0 0 0 0 0 0.407762 0 0 0 0 0.358831 0 0 0 0.25 0"/>
<feBlend mode="normal" in2="BackgroundImageFix" result="effect1_dropShadow_1_113"/>
<feBlend mode="normal" in="SourceGraphic" in2="effect1_dropShadow_1_113" result="shape"/>
<feColorMatrix in="SourceAlpha" type="matrix" values="0 0 0 0 0 0 0 0 0 0 0 0 0 0 0 0 0 0 127 0" result="hardAlpha"/>
<feOffset dy="2.2"/>
<feGaussianBlur stdDeviation="2.2"/>
<feComposite in2="hardAlpha" operator="arithmetic" k2="-1" k3="1"/>
<feColorMatrix type="matrix" values="0 0 0 0 1 0 0 0 0 1 0 0 0 0 1 0 0 0 0.25 0"/>
<feBlend mode="normal" in2="shape" result="effect2_innerShadow_1_113"/>
</filter>
<filter id="filter1_di_1_113" x="14.2032" y="10" width="276.695" height="276.695" filterUnits="userSpaceOnUse" color-interpolation-filters="sRGB">
<feFlood flood-opacity="0" result="BackgroundImageFix"/>
<feColorMatrix in="SourceAlpha" type="matrix" values="0 0 0 0 0 0 0 0 0 0 0 0 0 0 0 0 0 0 127 0" result="hardAlpha"/>
<feOffset dy="4"/>
<feGaussianBlur stdDeviation="4"/>
<feComposite in2="hardAlpha" operator="out"/>
<feColorMatrix type="matrix" values="0 0 0 0 0 0 0 0 0 0.242029 0 0 0 0 0.227508 0 0 0 0.25 0"/>
<feBlend mode="normal" in2="BackgroundImageFix" result="effect1_dropShadow_1_113"/>
<feBlend mode="normal" in="SourceGraphic" in2="effect1_dropShadow_1_113" result="shape"/>
<feColorMatrix in="SourceAlpha" type="matrix" values="0 0 0 0 0 0 0 0 0 0 0 0 0 0 0 0 0 0 127 0" result="hardAlpha"/>
<feOffset dy="2"/>
<feGaussianBlur stdDeviation="2"/>
<feComposite in2="hardAlpha" operator="arithmetic" k2="-1" k3="1"/>
<feColorMatrix type="matrix" values="0 0 0 0 0.224172 0 0 0 0 0 0 0 0 0 0 0 0 0 0.25 0"/>
<feBlend mode="normal" in2="shape" result="effect2_innerShadow_1_113"/>
</filter>
<filter id="filter2_i_1_113" x="115.823" y="29.6948" width="71.7605" height="74.6104" filterUnits="userSpaceOnUse" color-interpolation-filters="sRGB">
<feFlood flood-opacity="0" result="BackgroundImageFix"/>
<feBlend mode="normal" in="SourceGraphic" in2="BackgroundImageFix" result="shape"/>
<feColorMatrix in="SourceAlpha" type="matrix" values="0 0 0 0 0 0 0 0 0 0 0 0 0 0 0 0 0 0 127 0" result="hardAlpha"/>
<feOffset dy="2"/>
<feGaussianBlur stdDeviation="2"/>
<feComposite in2="hardAlpha" operator="arithmetic" k2="-1" k3="1"/>
<feColorMatrix type="matrix" values="0 0 0 0 0.164648 0 0 0 0 0.0247999 0 0 0 0 0.0247999 0 0 0 0.23 0"/>
<feBlend mode="normal" in2="shape" result="effect1_innerShadow_1_113"/>
</filter>
</defs>
</svg>
