<svg width="304" height="304" viewBox="0 0 304 304" fill="none" xmlns="http://www.w3.org/2000/svg">
<g filter="url(#filter0_di_1_111)">
<path d="M148.757 8.37437C150.514 6.61701 153.363 6.61701 155.121 8.37436L287.503 140.757C289.26 142.514 289.26 145.363 287.503 147.121L155.121 279.503C153.363 281.26 150.514 281.26 148.757 279.503L16.3744 147.121C14.617 145.363 14.617 142.514 16.3744 140.757L148.757 8.37437Z" stroke="#39BFA7" stroke-width="13" shape-rendering="crispEdges"/>
</g>
<g filter="url(#filter1_di_1_111)">
<path fill-rule="evenodd" clip-rule="evenodd" d="M279.766 151.419C283.671 147.513 283.671 141.182 279.766 137.276L159.419 16.9289C155.513 13.0237 149.182 13.0237 145.276 16.9289L24.9289 137.276C21.0237 141.182 21.0237 147.513 24.9289 151.419L145.276 271.766C149.182 275.671 155.513 275.671 159.419 271.766L279.766 151.419ZM157.455 28.8547C154.331 25.7305 149.265 25.7305 146.141 28.8547L114.6 60.3961C111.475 63.5203 111.475 68.5856 114.6 71.7098L146.141 103.251C149.265 106.375 154.331 106.375 157.455 103.251L188.996 71.7098C192.12 68.5856 192.12 63.5203 188.996 60.3961L157.455 28.8547ZM148.97 31.6831C150.532 30.121 153.064 30.121 154.626 31.6831L186.168 63.2245C187.73 64.7866 187.73 67.3193 186.168 68.8814L154.626 100.423C153.064 101.985 150.532 101.985 148.97 100.423L117.428 68.8814C115.866 67.3193 115.866 64.7866 117.428 63.2245L148.97 31.6831Z" fill="white"/>
</g>
<g filter="url(#filter2_i_1_111)">
<path d="M148.653 30.8851C150.219 29.2979 152.781 29.2979 154.347 30.8851L186.227 63.1904C187.765 64.7481 187.765 67.2519 186.227 68.8096L154.347 101.115C152.781 102.702 150.219 102.702 148.653 101.115L116.773 68.8096C115.235 67.2519 115.235 64.7481 116.773 63.1904L148.653 30.8851Z" fill="#39BFA7"/>
</g>
<path d="M96.9804 129.4H90.0044V149H85.7004V129.4H78.7244V125.864H96.9804V129.4ZM102.453 135.432C102.965 134.451 103.573 133.683 104.277 133.128C104.981 132.563 105.813 132.28 106.773 132.28C107.53 132.28 108.138 132.445 108.597 132.776L108.341 135.736C108.288 135.928 108.208 136.067 108.101 136.152C108.005 136.227 107.872 136.264 107.701 136.264C107.541 136.264 107.301 136.237 106.981 136.184C106.672 136.131 106.368 136.104 106.069 136.104C105.632 136.104 105.242 136.168 104.901 136.296C104.56 136.424 104.25 136.611 103.973 136.856C103.706 137.091 103.466 137.379 103.253 137.72C103.05 138.061 102.858 138.451 102.677 138.888V149H98.7251V132.584H101.045C101.45 132.584 101.733 132.659 101.893 132.808C102.053 132.947 102.16 133.203 102.213 133.576L102.453 135.432ZM121.676 141.992C120.535 142.045 119.575 142.147 118.796 142.296C118.017 142.435 117.393 142.616 116.924 142.84C116.455 143.064 116.119 143.325 115.916 143.624C115.713 143.923 115.612 144.248 115.612 144.6C115.612 145.293 115.815 145.789 116.22 146.088C116.636 146.387 117.175 146.536 117.836 146.536C118.647 146.536 119.345 146.392 119.932 146.104C120.529 145.805 121.111 145.357 121.676 144.76V141.992ZM112.62 134.872C114.508 133.144 116.78 132.28 119.436 132.28C120.396 132.28 121.255 132.44 122.012 132.76C122.769 133.069 123.409 133.507 123.932 134.072C124.455 134.627 124.849 135.293 125.116 136.072C125.393 136.851 125.532 137.704 125.532 138.632V149H123.74C123.367 149 123.079 148.947 122.876 148.84C122.673 148.723 122.513 148.493 122.396 148.152L122.044 146.968C121.628 147.341 121.223 147.672 120.828 147.96C120.433 148.237 120.023 148.472 119.596 148.664C119.169 148.856 118.711 149 118.22 149.096C117.74 149.203 117.207 149.256 116.62 149.256C115.927 149.256 115.287 149.165 114.7 148.984C114.113 148.792 113.607 148.509 113.18 148.136C112.753 147.763 112.423 147.299 112.188 146.744C111.953 146.189 111.836 145.544 111.836 144.808C111.836 144.392 111.905 143.981 112.044 143.576C112.183 143.16 112.407 142.765 112.716 142.392C113.036 142.019 113.447 141.667 113.948 141.336C114.449 141.005 115.063 140.717 115.788 140.472C116.524 140.227 117.377 140.029 118.348 139.88C119.319 139.72 120.428 139.624 121.676 139.592V138.632C121.676 137.533 121.441 136.723 120.972 136.2C120.503 135.667 119.825 135.4 118.94 135.4C118.3 135.4 117.767 135.475 117.34 135.624C116.924 135.773 116.556 135.944 116.236 136.136C115.916 136.317 115.623 136.483 115.356 136.632C115.1 136.781 114.812 136.856 114.492 136.856C114.215 136.856 113.98 136.787 113.788 136.648C113.596 136.499 113.441 136.328 113.324 136.136L112.62 134.872ZM146.239 132.584L139.727 149H136.143L129.631 132.584H132.895C133.194 132.584 133.439 132.653 133.631 132.792C133.834 132.931 133.967 133.107 134.031 133.32L137.199 142.088C137.37 142.6 137.519 143.101 137.647 143.592C137.775 144.083 137.887 144.573 137.983 145.064C138.09 144.573 138.207 144.083 138.335 143.592C138.463 143.101 138.618 142.6 138.799 142.088L142.031 133.32C142.106 133.107 142.239 132.931 142.431 132.792C142.623 132.653 142.852 132.584 143.119 132.584H146.239ZM160.981 138.904C160.981 138.392 160.906 137.912 160.757 137.464C160.618 137.005 160.405 136.605 160.117 136.264C159.829 135.923 159.461 135.656 159.013 135.464C158.576 135.261 158.064 135.16 157.477 135.16C156.336 135.16 155.434 135.485 154.773 136.136C154.122 136.787 153.706 137.709 153.525 138.904H160.981ZM153.445 141.288C153.509 142.131 153.658 142.861 153.893 143.48C154.128 144.088 154.437 144.595 154.821 145C155.205 145.395 155.658 145.693 156.181 145.896C156.714 146.088 157.301 146.184 157.941 146.184C158.581 146.184 159.13 146.109 159.589 145.96C160.058 145.811 160.464 145.645 160.805 145.464C161.157 145.283 161.461 145.117 161.717 144.968C161.984 144.819 162.24 144.744 162.485 144.744C162.816 144.744 163.061 144.867 163.221 145.112L164.357 146.552C163.92 147.064 163.429 147.496 162.885 147.848C162.341 148.189 161.77 148.467 161.173 148.68C160.586 148.883 159.984 149.027 159.365 149.112C158.757 149.197 158.165 149.24 157.589 149.24C156.448 149.24 155.386 149.053 154.405 148.68C153.424 148.296 152.57 147.736 151.845 147C151.12 146.253 150.549 145.336 150.133 144.248C149.717 143.149 149.509 141.88 149.509 140.44C149.509 139.32 149.69 138.269 150.053 137.288C150.416 136.296 150.933 135.437 151.605 134.712C152.288 133.976 153.114 133.395 154.085 132.968C155.066 132.541 156.17 132.328 157.397 132.328C158.432 132.328 159.386 132.493 160.261 132.824C161.136 133.155 161.888 133.64 162.517 134.28C163.146 134.909 163.637 135.688 163.989 136.616C164.352 137.533 164.533 138.584 164.533 139.768C164.533 140.365 164.469 140.771 164.341 140.984C164.213 141.187 163.968 141.288 163.605 141.288H153.445ZM174.059 125.224V149H170.107V125.224H174.059ZM191.132 138.904C191.132 138.392 191.058 137.912 190.908 137.464C190.77 137.005 190.556 136.605 190.268 136.264C189.98 135.923 189.612 135.656 189.164 135.464C188.727 135.261 188.215 135.16 187.628 135.16C186.487 135.16 185.586 135.485 184.924 136.136C184.274 136.787 183.858 137.709 183.676 138.904H191.132ZM183.596 141.288C183.66 142.131 183.81 142.861 184.044 143.48C184.279 144.088 184.588 144.595 184.972 145C185.356 145.395 185.81 145.693 186.332 145.896C186.866 146.088 187.452 146.184 188.092 146.184C188.732 146.184 189.282 146.109 189.74 145.96C190.21 145.811 190.615 145.645 190.956 145.464C191.308 145.283 191.612 145.117 191.868 144.968C192.135 144.819 192.391 144.744 192.636 144.744C192.967 144.744 193.212 144.867 193.372 145.112L194.508 146.552C194.071 147.064 193.58 147.496 193.036 147.848C192.492 148.189 191.922 148.467 191.324 148.68C190.738 148.883 190.135 149.027 189.516 149.112C188.908 149.197 188.316 149.24 187.74 149.24C186.599 149.24 185.538 149.053 184.556 148.68C183.575 148.296 182.722 147.736 181.996 147C181.271 146.253 180.7 145.336 180.284 144.248C179.868 143.149 179.66 141.88 179.66 140.44C179.66 139.32 179.842 138.269 180.204 137.288C180.567 136.296 181.084 135.437 181.756 134.712C182.439 133.976 183.266 133.395 184.236 132.968C185.218 132.541 186.322 132.328 187.548 132.328C188.583 132.328 189.538 132.493 190.412 132.824C191.287 133.155 192.039 133.64 192.668 134.28C193.298 134.909 193.788 135.688 194.14 136.616C194.503 137.533 194.684 138.584 194.684 139.768C194.684 140.365 194.62 140.771 194.492 140.984C194.364 141.187 194.119 141.288 193.756 141.288H183.596ZM203.938 135.432C204.45 134.451 205.058 133.683 205.762 133.128C206.466 132.563 207.298 132.28 208.258 132.28C209.015 132.28 209.623 132.445 210.082 132.776L209.826 135.736C209.773 135.928 209.693 136.067 209.586 136.152C209.49 136.227 209.357 136.264 209.186 136.264C209.026 136.264 208.786 136.237 208.466 136.184C208.157 136.131 207.853 136.104 207.554 136.104C207.117 136.104 206.727 136.168 206.386 136.296C206.045 136.424 205.735 136.611 205.458 136.856C205.191 137.091 204.951 137.379 204.738 137.72C204.535 138.061 204.343 138.451 204.162 138.888V149H200.21V132.584H202.53C202.935 132.584 203.218 132.659 203.378 132.808C203.538 132.947 203.645 133.203 203.698 133.576L203.938 135.432ZM224.661 135.784C224.554 135.955 224.442 136.077 224.325 136.152C224.208 136.216 224.058 136.248 223.877 136.248C223.685 136.248 223.477 136.195 223.253 136.088C223.04 135.981 222.789 135.864 222.501 135.736C222.213 135.597 221.882 135.475 221.509 135.368C221.146 135.261 220.714 135.208 220.213 135.208C219.434 135.208 218.821 135.373 218.373 135.704C217.936 136.035 217.717 136.467 217.717 137C217.717 137.352 217.829 137.651 218.053 137.896C218.288 138.131 218.592 138.339 218.965 138.52C219.349 138.701 219.781 138.867 220.261 139.016C220.741 139.155 221.226 139.309 221.717 139.48C222.218 139.651 222.709 139.848 223.189 140.072C223.669 140.285 224.096 140.563 224.469 140.904C224.853 141.235 225.157 141.635 225.381 142.104C225.616 142.573 225.733 143.139 225.733 143.8C225.733 144.589 225.589 145.32 225.301 145.992C225.024 146.653 224.608 147.229 224.053 147.72C223.498 148.2 222.81 148.579 221.989 148.856C221.178 149.123 220.24 149.256 219.173 149.256C218.608 149.256 218.053 149.203 217.509 149.096C216.976 149 216.458 148.861 215.957 148.68C215.466 148.499 215.008 148.285 214.581 148.04C214.165 147.795 213.797 147.528 213.477 147.24L214.389 145.736C214.506 145.555 214.645 145.416 214.805 145.32C214.965 145.224 215.168 145.176 215.413 145.176C215.658 145.176 215.888 145.245 216.101 145.384C216.325 145.523 216.581 145.672 216.869 145.832C217.157 145.992 217.493 146.141 217.877 146.28C218.272 146.419 218.768 146.488 219.365 146.488C219.834 146.488 220.234 146.435 220.565 146.328C220.906 146.211 221.184 146.061 221.397 145.88C221.621 145.699 221.781 145.491 221.877 145.256C221.984 145.011 222.037 144.76 222.037 144.504C222.037 144.12 221.92 143.805 221.685 143.56C221.461 143.315 221.157 143.101 220.773 142.92C220.4 142.739 219.968 142.579 219.477 142.44C218.997 142.291 218.501 142.131 217.989 141.96C217.488 141.789 216.992 141.592 216.501 141.368C216.021 141.133 215.589 140.84 215.205 140.488C214.832 140.136 214.528 139.704 214.293 139.192C214.069 138.68 213.957 138.061 213.957 137.336C213.957 136.664 214.09 136.024 214.357 135.416C214.624 134.808 215.013 134.28 215.525 133.832C216.048 133.373 216.693 133.011 217.461 132.744C218.24 132.467 219.136 132.328 220.149 132.328C221.28 132.328 222.309 132.515 223.237 132.888C224.165 133.261 224.938 133.752 225.557 134.36L224.661 135.784ZM122.819 173.864V197H118.499V186.888H107.635V197H103.315V173.864H107.635V183.816H118.499V173.864H122.819ZM138.173 189.992C137.032 190.045 136.072 190.147 135.293 190.296C134.515 190.435 133.891 190.616 133.421 190.84C132.952 191.064 132.616 191.325 132.413 191.624C132.211 191.923 132.109 192.248 132.109 192.6C132.109 193.293 132.312 193.789 132.717 194.088C133.133 194.387 133.672 194.536 134.333 194.536C135.144 194.536 135.843 194.392 136.429 194.104C137.027 193.805 137.608 193.357 138.173 192.76V189.992ZM129.117 182.872C131.005 181.144 133.277 180.28 135.933 180.28C136.893 180.28 137.752 180.44 138.509 180.76C139.267 181.069 139.907 181.507 140.429 182.072C140.952 182.627 141.347 183.293 141.613 184.072C141.891 184.851 142.029 185.704 142.029 186.632V197H140.237C139.864 197 139.576 196.947 139.373 196.84C139.171 196.723 139.011 196.493 138.893 196.152L138.541 194.968C138.125 195.341 137.72 195.672 137.325 195.96C136.931 196.237 136.52 196.472 136.093 196.664C135.667 196.856 135.208 197 134.717 197.096C134.237 197.203 133.704 197.256 133.117 197.256C132.424 197.256 131.784 197.165 131.197 196.984C130.611 196.792 130.104 196.509 129.677 196.136C129.251 195.763 128.92 195.299 128.685 194.744C128.451 194.189 128.333 193.544 128.333 192.808C128.333 192.392 128.403 191.981 128.541 191.576C128.68 191.16 128.904 190.765 129.213 190.392C129.533 190.019 129.944 189.667 130.445 189.336C130.947 189.005 131.56 188.717 132.285 188.472C133.021 188.227 133.875 188.029 134.845 187.88C135.816 187.72 136.925 187.624 138.173 187.592V186.632C138.173 185.533 137.939 184.723 137.469 184.2C137 183.667 136.323 183.4 135.437 183.4C134.797 183.4 134.264 183.475 133.837 183.624C133.421 183.773 133.053 183.944 132.733 184.136C132.413 184.317 132.12 184.483 131.853 184.632C131.597 184.781 131.309 184.856 130.989 184.856C130.712 184.856 130.477 184.787 130.285 184.648C130.093 184.499 129.939 184.328 129.821 184.136L129.117 182.872ZM152.263 192.744C152.711 193.288 153.197 193.672 153.719 193.896C154.253 194.12 154.829 194.232 155.447 194.232C156.045 194.232 156.583 194.12 157.063 193.896C157.543 193.672 157.949 193.331 158.279 192.872C158.621 192.413 158.882 191.837 159.063 191.144C159.245 190.44 159.335 189.613 159.335 188.664C159.335 187.704 159.255 186.893 159.095 186.232C158.946 185.56 158.727 185.016 158.439 184.6C158.151 184.184 157.799 183.88 157.383 183.688C156.978 183.496 156.514 183.4 155.991 183.4C155.17 183.4 154.471 183.576 153.895 183.928C153.319 184.269 152.775 184.755 152.263 185.384V192.744ZM152.055 182.824C152.727 182.067 153.49 181.453 154.343 180.984C155.197 180.515 156.199 180.28 157.351 180.28C158.247 180.28 159.063 180.467 159.799 180.84C160.546 181.213 161.186 181.757 161.719 182.472C162.263 183.176 162.679 184.051 162.967 185.096C163.266 186.131 163.415 187.32 163.415 188.664C163.415 189.891 163.25 191.027 162.919 192.072C162.589 193.117 162.114 194.024 161.495 194.792C160.887 195.56 160.146 196.163 159.271 196.6C158.407 197.027 157.437 197.24 156.359 197.24C155.442 197.24 154.658 197.101 154.007 196.824C153.357 196.536 152.775 196.141 152.263 195.64V202.36H148.311V180.584H150.727C151.239 180.584 151.575 180.824 151.735 181.304L152.055 182.824ZM173.011 192.744C173.459 193.288 173.944 193.672 174.467 193.896C175 194.12 175.576 194.232 176.195 194.232C176.792 194.232 177.331 194.12 177.811 193.896C178.291 193.672 178.696 193.331 179.027 192.872C179.368 192.413 179.63 191.837 179.811 191.144C179.992 190.44 180.083 189.613 180.083 188.664C180.083 187.704 180.003 186.893 179.843 186.232C179.694 185.56 179.475 185.016 179.187 184.6C178.899 184.184 178.547 183.88 178.131 183.688C177.726 183.496 177.262 183.4 176.739 183.4C175.918 183.4 175.219 183.576 174.643 183.928C174.067 184.269 173.523 184.755 173.011 185.384V192.744ZM172.803 182.824C173.475 182.067 174.238 181.453 175.091 180.984C175.944 180.515 176.947 180.28 178.099 180.28C178.995 180.28 179.811 180.467 180.547 180.84C181.294 181.213 181.934 181.757 182.467 182.472C183.011 183.176 183.427 184.051 183.715 185.096C184.014 186.131 184.163 187.32 184.163 188.664C184.163 189.891 183.998 191.027 183.667 192.072C183.336 193.117 182.862 194.024 182.243 194.792C181.635 195.56 180.894 196.163 180.019 196.6C179.155 197.027 178.184 197.24 177.107 197.24C176.19 197.24 175.406 197.101 174.755 196.824C174.104 196.536 173.523 196.141 173.011 195.64V202.36H169.059V180.584H171.475C171.987 180.584 172.323 180.824 172.483 181.304L172.803 182.824ZM204.25 180.584L195.306 201.512C195.188 201.789 195.034 201.997 194.842 202.136C194.66 202.285 194.378 202.36 193.994 202.36H191.05L194.122 195.768L187.482 180.584H190.954C191.263 180.584 191.503 180.659 191.674 180.808C191.855 180.957 191.988 181.128 192.074 181.32L195.562 189.832C195.679 190.12 195.775 190.408 195.85 190.696C195.935 190.984 196.015 191.277 196.09 191.576C196.186 191.277 196.282 190.984 196.378 190.696C196.474 190.397 196.58 190.104 196.698 189.816L199.994 181.32C200.079 181.107 200.218 180.931 200.41 180.792C200.612 180.653 200.836 180.584 201.082 180.584H204.25Z" fill="#222222"/>
<path d="M136.406 72.15V74H128.406V72.15H131.336V63.72C131.336 63.3867 131.346 63.0433 131.366 62.69L129.286 64.43C129.166 64.5233 129.046 64.5833 128.926 64.61C128.813 64.63 128.703 64.63 128.596 64.61C128.496 64.59 128.406 64.5567 128.326 64.51C128.246 64.4567 128.186 64.4 128.146 64.34L127.366 63.27L131.776 59.52H133.806V72.15H136.406ZM146.577 68.55V63.82C146.577 63.3733 146.607 62.88 146.667 62.34L142.177 68.55H146.577ZM150.547 68.55V69.98C150.547 70.1133 150.504 70.23 150.417 70.33C150.331 70.4233 150.207 70.47 150.047 70.47H148.727V74H146.577V70.47H140.477C140.311 70.47 140.164 70.42 140.037 70.32C139.911 70.2133 139.831 70.0833 139.797 69.93L139.537 68.68L146.387 59.53H148.727V68.55H150.547ZM156.549 59.14V67.65H157.009C157.176 67.65 157.306 67.63 157.399 67.59C157.499 67.5433 157.599 67.4533 157.699 67.32L160.249 64.17C160.356 64.03 160.472 63.9233 160.599 63.85C160.732 63.7767 160.902 63.74 161.109 63.74H163.369L160.179 67.55C159.952 67.85 159.706 68.08 159.439 68.24C159.579 68.34 159.702 68.4567 159.809 68.59C159.922 68.7233 160.029 68.8667 160.129 69.02L163.549 74H161.319C161.126 74 160.959 73.97 160.819 73.91C160.679 73.8433 160.562 73.7267 160.469 73.56L157.849 69.67C157.756 69.5167 157.659 69.4167 157.559 69.37C157.459 69.3233 157.309 69.3 157.109 69.3H156.549V74H154.079V59.14H156.549ZM176.023 68.2H172.143V72.32H170.133V68.2H166.273V66.37H170.133V62.27H172.143V66.37H176.023V68.2Z" fill="white"/>
<defs>
<filter id="filter0_di_1_111" x="0.556351" y="0.556152" width="302.765" height="302.765" filterUnits="userSpaceOnUse" color-interpolation-filters="sRGB">
<feFlood flood-opacity="0" result="BackgroundImageFix"/>
<feColorMatrix in="SourceAlpha" type="matrix" values="0 0 0 0 0 0 0 0 0 0 0 0 0 0 0 0 0 0 127 0" result="hardAlpha"/>
<feOffset dy="8"/>
<feGaussianBlur stdDeviation="4"/>
<feComposite in2="hardAlpha" operator="out"/>
<feColorMatrix type="matrix" values="0 0 0 0 0 0 0 0 0 0.407762 0 0 0 0 0.358831 0 0 0 0.25 0"/>
<feBlend mode="normal" in2="BackgroundImageFix" result="effect1_dropShadow_1_111"/>
<feBlend mode="normal" in="SourceGraphic" in2="effect1_dropShadow_1_111" result="shape"/>
<feColorMatrix in="SourceAlpha" type="matrix" values="0 0 0 0 0 0 0 0 0 0 0 0 0 0 0 0 0 0 127 0" result="hardAlpha"/>
<feOffset dy="2.2"/>
<feGaussianBlur stdDeviation="2.2"/>
<feComposite in2="hardAlpha" operator="arithmetic" k2="-1" k3="1"/>
<feColorMatrix type="matrix" values="0 0 0 0 1 0 0 0 0 1 0 0 0 0 1 0 0 0 0.25 0"/>
<feBlend mode="normal" in2="shape" result="effect2_innerShadow_1_111"/>
</filter>
<filter id="filter1_di_1_111" x="14" y="10" width="276.695" height="276.695" filterUnits="userSpaceOnUse" color-interpolation-filters="sRGB">
<feFlood flood-opacity="0" result="BackgroundImageFix"/>
<feColorMatrix in="SourceAlpha" type="matrix" values="0 0 0 0 0 0 0 0 0 0 0 0 0 0 0 0 0 0 127 0" result="hardAlpha"/>
<feOffset dy="4"/>
<feGaussianBlur stdDeviation="4"/>
<feComposite in2="hardAlpha" operator="out"/>
<feColorMatrix type="matrix" values="0 0 0 0 0.242029 0 0 0 0 0 0 0 0 0 0 0 0 0 0.25 0"/>
<feBlend mode="normal" in2="BackgroundImageFix" result="effect1_dropShadow_1_111"/>
<feBlend mode="normal" in="SourceGraphic" in2="effect1_dropShadow_1_111" result="shape"/>
<feColorMatrix in="SourceAlpha" type="matrix" values="0 0 0 0 0 0 0 0 0 0 0 0 0 0 0 0 0 0 127 0" result="hardAlpha"/>
<feOffset dy="2"/>
<feGaussianBlur stdDeviation="2"/>
<feComposite in2="hardAlpha" operator="arithmetic" k2="-1" k3="1"/>
<feColorMatrix type="matrix" values="0 0 0 0 0.224172 0 0 0 0 0 0 0 0 0 0 0 0 0 0.25 0"/>
<feBlend mode="normal" in2="shape" result="effect2_innerShadow_1_111"/>
</filter>
<filter id="filter2_i_1_111" x="115.62" y="29.6948" width="71.7605" height="74.6104" filterUnits="userSpaceOnUse" color-interpolation-filters="sRGB">
<feFlood flood-opacity="0" result="BackgroundImageFix"/>
<feBlend mode="normal" in="SourceGraphic" in2="BackgroundImageFix" result="shape"/>
<feColorMatrix in="SourceAlpha" type="matrix" values="0 0 0 0 0 0 0 0 0 0 0 0 0 0 0 0 0 0 127 0" result="hardAlpha"/>
<feOffset dy="2"/>
<feGaussianBlur stdDeviation="2"/>
<feComposite in2="hardAlpha" operator="arithmetic" k2="-1" k3="1"/>
<feColorMatrix type="matrix" values="0 0 0 0 0.164648 0 0 0 0 0.0247999 0 0 0 0 0.0247999 0 0 0 0.23 0"/>
<feBlend mode="normal" in2="shape" result="effect1_innerShadow_1_111"/>
</filter>
</defs>
</svg>
