<svg width="304" height="304" viewBox="0 0 304 304" fill="none" xmlns="http://www.w3.org/2000/svg">
<g filter="url(#filter0_di_1_112)">
<path d="M148.858 8.37437C150.616 6.61701 153.465 6.61701 155.222 8.37436L287.605 140.757C289.362 142.514 289.362 145.363 287.605 147.121L155.222 279.503C153.465 281.26 150.616 281.26 148.858 279.503L16.476 147.121C14.7186 145.363 14.7186 142.514 16.476 140.757L148.858 8.37437Z" stroke="#39BFA7" stroke-width="13" shape-rendering="crispEdges"/>
</g>
<g filter="url(#filter1_di_1_112)">
<path fill-rule="evenodd" clip-rule="evenodd" d="M279.868 151.419C283.773 147.513 283.773 141.182 279.868 137.276L159.52 16.9289C155.615 13.0237 149.283 13.0237 145.378 16.9289L25.0306 137.276C21.1253 141.182 21.1253 147.513 25.0306 151.419L145.378 271.766C149.283 275.671 155.615 275.671 159.52 271.766L279.868 151.419ZM157.556 28.8547C154.432 25.7305 149.367 25.7305 146.243 28.8547L114.701 60.3961C111.577 63.5203 111.577 68.5856 114.701 71.7098L146.243 103.251C149.367 106.375 154.432 106.375 157.556 103.251L189.098 71.7098C192.222 68.5856 192.222 63.5203 189.098 60.3961L157.556 28.8547ZM149.071 31.6831C150.633 30.121 153.166 30.121 154.728 31.6831L186.269 63.2245C187.832 64.7866 187.832 67.3193 186.269 68.8814L154.728 100.423C153.166 101.985 150.633 101.985 149.071 100.423L117.53 68.8814C115.968 67.3193 115.968 64.7866 117.53 63.2245L149.071 31.6831Z" fill="white"/>
</g>
<g filter="url(#filter2_i_1_112)">
<path d="M148.755 30.8851C150.321 29.2979 152.882 29.2979 154.449 30.8851L186.329 63.1904C187.866 64.7481 187.866 67.2519 186.329 68.8096L154.449 101.115C152.882 102.702 150.321 102.702 148.755 101.115L116.874 68.8096C115.337 67.2519 115.337 64.7481 116.874 63.1904L148.755 30.8851Z" fill="#39BFA7"/>
</g>
<path d="M91.4102 145.448V149H77.8582V125.864H82.1622V145.448H91.4102ZM102.839 132.328C104.055 132.328 105.159 132.525 106.151 132.92C107.154 133.315 108.007 133.875 108.711 134.6C109.426 135.325 109.975 136.211 110.359 137.256C110.743 138.301 110.935 139.469 110.935 140.76C110.935 142.061 110.743 143.235 110.359 144.28C109.975 145.325 109.426 146.216 108.711 146.952C108.007 147.688 107.154 148.253 106.151 148.648C105.159 149.043 104.055 149.24 102.839 149.24C101.613 149.24 100.498 149.043 99.4955 148.648C98.4928 148.253 97.6342 147.688 96.9195 146.952C96.2155 146.216 95.6662 145.325 95.2715 144.28C94.8875 143.235 94.6955 142.061 94.6955 140.76C94.6955 139.469 94.8875 138.301 95.2715 137.256C95.6662 136.211 96.2155 135.325 96.9195 134.6C97.6342 133.875 98.4928 133.315 99.4955 132.92C100.498 132.525 101.613 132.328 102.839 132.328ZM102.839 146.2C104.205 146.2 105.213 145.741 105.863 144.824C106.525 143.907 106.855 142.563 106.855 140.792C106.855 139.021 106.525 137.672 105.863 136.744C105.213 135.816 104.205 135.352 102.839 135.352C101.453 135.352 100.423 135.821 99.7515 136.76C99.0902 137.688 98.7595 139.032 98.7595 140.792C98.7595 142.552 99.0902 143.896 99.7515 144.824C100.423 145.741 101.453 146.2 102.839 146.2ZM128.27 136.056C128.153 136.205 128.036 136.323 127.918 136.408C127.812 136.493 127.652 136.536 127.438 136.536C127.236 136.536 127.038 136.477 126.846 136.36C126.654 136.232 126.425 136.093 126.158 135.944C125.892 135.784 125.572 135.645 125.198 135.528C124.836 135.4 124.382 135.336 123.838 135.336C123.145 135.336 122.537 135.464 122.014 135.72C121.492 135.965 121.054 136.323 120.702 136.792C120.361 137.261 120.105 137.832 119.934 138.504C119.764 139.165 119.678 139.917 119.678 140.76C119.678 141.635 119.769 142.413 119.95 143.096C120.142 143.779 120.414 144.355 120.766 144.824C121.118 145.283 121.545 145.635 122.046 145.88C122.548 146.115 123.113 146.232 123.742 146.232C124.372 146.232 124.878 146.157 125.262 146.008C125.657 145.848 125.988 145.677 126.254 145.496C126.521 145.304 126.75 145.133 126.942 144.984C127.145 144.824 127.369 144.744 127.614 144.744C127.934 144.744 128.174 144.867 128.334 145.112L129.47 146.552C129.033 147.064 128.558 147.496 128.046 147.848C127.534 148.189 127.001 148.467 126.446 148.68C125.902 148.883 125.337 149.027 124.75 149.112C124.174 149.197 123.598 149.24 123.022 149.24C122.009 149.24 121.054 149.053 120.158 148.68C119.262 148.296 118.478 147.741 117.806 147.016C117.134 146.291 116.601 145.405 116.206 144.36C115.822 143.304 115.63 142.104 115.63 140.76C115.63 139.555 115.801 138.44 116.142 137.416C116.494 136.381 117.006 135.491 117.678 134.744C118.35 133.987 119.182 133.395 120.174 132.968C121.166 132.541 122.308 132.328 123.598 132.328C124.825 132.328 125.897 132.525 126.814 132.92C127.742 133.315 128.574 133.88 129.31 134.616L128.27 136.056ZM143.18 141.992C142.039 142.045 141.079 142.147 140.3 142.296C139.521 142.435 138.897 142.616 138.428 142.84C137.959 143.064 137.623 143.325 137.42 143.624C137.217 143.923 137.116 144.248 137.116 144.6C137.116 145.293 137.319 145.789 137.724 146.088C138.14 146.387 138.679 146.536 139.34 146.536C140.151 146.536 140.849 146.392 141.436 146.104C142.033 145.805 142.615 145.357 143.18 144.76V141.992ZM134.124 134.872C136.012 133.144 138.284 132.28 140.94 132.28C141.9 132.28 142.759 132.44 143.516 132.76C144.273 133.069 144.913 133.507 145.436 134.072C145.959 134.627 146.353 135.293 146.62 136.072C146.897 136.851 147.036 137.704 147.036 138.632V149H145.244C144.871 149 144.583 148.947 144.38 148.84C144.177 148.723 144.017 148.493 143.9 148.152L143.548 146.968C143.132 147.341 142.727 147.672 142.332 147.96C141.937 148.237 141.527 148.472 141.1 148.664C140.673 148.856 140.215 149 139.724 149.096C139.244 149.203 138.711 149.256 138.124 149.256C137.431 149.256 136.791 149.165 136.204 148.984C135.617 148.792 135.111 148.509 134.684 148.136C134.257 147.763 133.927 147.299 133.692 146.744C133.457 146.189 133.34 145.544 133.34 144.808C133.34 144.392 133.409 143.981 133.548 143.576C133.687 143.16 133.911 142.765 134.22 142.392C134.54 142.019 134.951 141.667 135.452 141.336C135.953 141.005 136.567 140.717 137.292 140.472C138.028 140.227 138.881 140.029 139.852 139.88C140.823 139.72 141.932 139.624 143.18 139.592V138.632C143.18 137.533 142.945 136.723 142.476 136.2C142.007 135.667 141.329 135.4 140.444 135.4C139.804 135.4 139.271 135.475 138.844 135.624C138.428 135.773 138.06 135.944 137.74 136.136C137.42 136.317 137.127 136.483 136.86 136.632C136.604 136.781 136.316 136.856 135.996 136.856C135.719 136.856 135.484 136.787 135.292 136.648C135.1 136.499 134.945 136.328 134.828 136.136L134.124 134.872ZM169.659 149H165.707V135.544H158.091V144.44C158.091 144.952 158.214 145.352 158.459 145.64C158.715 145.928 159.062 146.072 159.499 146.072C159.745 146.072 159.947 146.045 160.107 145.992C160.278 145.928 160.422 145.864 160.539 145.8C160.667 145.736 160.779 145.677 160.875 145.624C160.971 145.56 161.067 145.528 161.163 145.528C161.281 145.528 161.377 145.56 161.451 145.624C161.526 145.677 161.606 145.763 161.691 145.88L162.875 147.8C162.299 148.28 161.638 148.643 160.891 148.888C160.145 149.133 159.371 149.256 158.571 149.256C157.142 149.256 156.043 148.856 155.275 148.056C154.518 147.245 154.139 146.131 154.139 144.712V135.544H152.459C152.246 135.544 152.065 135.475 151.915 135.336C151.766 135.197 151.691 134.989 151.691 134.712V133.144L154.331 132.696L155.163 128.232C155.217 128.019 155.318 127.853 155.467 127.736C155.617 127.619 155.809 127.56 156.043 127.56H158.091V132.728H169.659V149ZM170.347 127.736C170.347 128.077 170.278 128.403 170.139 128.712C170.001 129.011 169.814 129.272 169.579 129.496C169.355 129.72 169.083 129.901 168.763 130.04C168.454 130.168 168.123 130.232 167.771 130.232C167.43 130.232 167.11 130.168 166.811 130.04C166.513 129.901 166.251 129.72 166.027 129.496C165.803 129.272 165.622 129.011 165.483 128.712C165.355 128.403 165.291 128.077 165.291 127.736C165.291 127.384 165.355 127.059 165.483 126.76C165.622 126.451 165.803 126.184 166.027 125.96C166.251 125.725 166.513 125.544 166.811 125.416C167.11 125.277 167.43 125.208 167.771 125.208C168.123 125.208 168.454 125.277 168.763 125.416C169.083 125.544 169.355 125.725 169.579 125.96C169.814 126.184 170.001 126.451 170.139 126.76C170.278 127.059 170.347 127.384 170.347 127.736ZM183.517 132.328C184.733 132.328 185.837 132.525 186.829 132.92C187.832 133.315 188.685 133.875 189.389 134.6C190.104 135.325 190.653 136.211 191.037 137.256C191.421 138.301 191.613 139.469 191.613 140.76C191.613 142.061 191.421 143.235 191.037 144.28C190.653 145.325 190.104 146.216 189.389 146.952C188.685 147.688 187.832 148.253 186.829 148.648C185.837 149.043 184.733 149.24 183.517 149.24C182.29 149.24 181.176 149.043 180.173 148.648C179.17 148.253 178.312 147.688 177.597 146.952C176.893 146.216 176.344 145.325 175.949 144.28C175.565 143.235 175.373 142.061 175.373 140.76C175.373 139.469 175.565 138.301 175.949 137.256C176.344 136.211 176.893 135.325 177.597 134.6C178.312 133.875 179.17 133.315 180.173 132.92C181.176 132.525 182.29 132.328 183.517 132.328ZM183.517 146.2C184.882 146.2 185.89 145.741 186.541 144.824C187.202 143.907 187.533 142.563 187.533 140.792C187.533 139.021 187.202 137.672 186.541 136.744C185.89 135.816 184.882 135.352 183.517 135.352C182.13 135.352 181.101 135.821 180.429 136.76C179.768 137.688 179.437 139.032 179.437 140.792C179.437 142.552 179.768 143.896 180.429 144.824C181.101 145.741 182.13 146.2 183.517 146.2ZM200.884 134.6C201.215 134.269 201.561 133.965 201.924 133.688C202.297 133.4 202.687 133.16 203.092 132.968C203.508 132.765 203.951 132.611 204.42 132.504C204.889 132.387 205.401 132.328 205.956 132.328C206.852 132.328 207.647 132.483 208.34 132.792C209.033 133.091 209.609 133.517 210.068 134.072C210.537 134.616 210.889 135.272 211.124 136.04C211.369 136.797 211.492 137.635 211.492 138.552V149H207.54V138.552C207.54 137.549 207.311 136.776 206.852 136.232C206.393 135.677 205.695 135.4 204.756 135.4C204.073 135.4 203.433 135.555 202.836 135.864C202.239 136.173 201.673 136.595 201.14 137.128V149H197.188V132.584H199.604C200.116 132.584 200.452 132.824 200.612 133.304L200.884 134.6ZM227.826 135.784C227.72 135.955 227.608 136.077 227.49 136.152C227.373 136.216 227.224 136.248 227.042 136.248C226.85 136.248 226.642 136.195 226.418 136.088C226.205 135.981 225.954 135.864 225.666 135.736C225.378 135.597 225.048 135.475 224.674 135.368C224.312 135.261 223.88 135.208 223.378 135.208C222.6 135.208 221.986 135.373 221.538 135.704C221.101 136.035 220.882 136.467 220.882 137C220.882 137.352 220.994 137.651 221.218 137.896C221.453 138.131 221.757 138.339 222.13 138.52C222.514 138.701 222.946 138.867 223.426 139.016C223.906 139.155 224.392 139.309 224.882 139.48C225.384 139.651 225.874 139.848 226.354 140.072C226.834 140.285 227.261 140.563 227.634 140.904C228.018 141.235 228.322 141.635 228.546 142.104C228.781 142.573 228.898 143.139 228.898 143.8C228.898 144.589 228.754 145.32 228.466 145.992C228.189 146.653 227.773 147.229 227.218 147.72C226.664 148.2 225.976 148.579 225.154 148.856C224.344 149.123 223.405 149.256 222.338 149.256C221.773 149.256 221.218 149.203 220.674 149.096C220.141 149 219.624 148.861 219.122 148.68C218.632 148.499 218.173 148.285 217.746 148.04C217.33 147.795 216.962 147.528 216.642 147.24L217.554 145.736C217.672 145.555 217.81 145.416 217.97 145.32C218.13 145.224 218.333 145.176 218.578 145.176C218.824 145.176 219.053 145.245 219.266 145.384C219.49 145.523 219.746 145.672 220.034 145.832C220.322 145.992 220.658 146.141 221.042 146.28C221.437 146.419 221.933 146.488 222.53 146.488C223 146.488 223.4 146.435 223.73 146.328C224.072 146.211 224.349 146.061 224.562 145.88C224.786 145.699 224.946 145.491 225.042 145.256C225.149 145.011 225.202 144.76 225.202 144.504C225.202 144.12 225.085 143.805 224.85 143.56C224.626 143.315 224.322 143.101 223.938 142.92C223.565 142.739 223.133 142.579 222.642 142.44C222.162 142.291 221.666 142.131 221.154 141.96C220.653 141.789 220.157 141.592 219.666 141.368C219.186 141.133 218.754 140.84 218.37 140.488C217.997 140.136 217.693 139.704 217.458 139.192C217.234 138.68 217.122 138.061 217.122 137.336C217.122 136.664 217.256 136.024 217.522 135.416C217.789 134.808 218.178 134.28 218.69 133.832C219.213 133.373 219.858 133.011 220.626 132.744C221.405 132.467 222.301 132.328 223.314 132.328C224.445 132.328 225.474 132.515 226.402 132.888C227.33 133.261 228.104 133.752 228.722 134.36L227.826 135.784ZM126.022 191.544C126.257 191.544 126.465 191.635 126.646 191.816L128.342 193.656C127.404 194.819 126.246 195.709 124.87 196.328C123.505 196.947 121.862 197.256 119.942 197.256C118.225 197.256 116.678 196.963 115.302 196.376C113.937 195.789 112.769 194.973 111.798 193.928C110.828 192.883 110.081 191.635 109.558 190.184C109.046 188.733 108.79 187.149 108.79 185.432C108.79 183.693 109.068 182.104 109.622 180.664C110.177 179.213 110.956 177.965 111.958 176.92C112.972 175.875 114.177 175.064 115.574 174.488C116.972 173.901 118.518 173.608 120.214 173.608C121.9 173.608 123.393 173.885 124.694 174.44C126.006 174.995 127.121 175.72 128.038 176.616L126.598 178.616C126.513 178.744 126.401 178.856 126.262 178.952C126.134 179.048 125.953 179.096 125.719 179.096C125.558 179.096 125.393 179.053 125.222 178.968C125.052 178.872 124.865 178.76 124.662 178.632C124.46 178.493 124.225 178.344 123.958 178.184C123.692 178.024 123.382 177.88 123.03 177.752C122.678 177.613 122.268 177.501 121.798 177.416C121.34 177.32 120.806 177.272 120.198 177.272C119.164 177.272 118.214 177.459 117.35 177.832C116.497 178.195 115.761 178.728 115.142 179.432C114.524 180.125 114.044 180.979 113.702 181.992C113.361 182.995 113.19 184.141 113.19 185.432C113.19 186.733 113.372 187.891 113.734 188.904C114.108 189.917 114.609 190.771 115.238 191.464C115.868 192.157 116.609 192.691 117.462 193.064C118.316 193.427 119.233 193.608 120.214 193.608C120.801 193.608 121.329 193.576 121.798 193.512C122.278 193.448 122.716 193.347 123.11 193.208C123.516 193.069 123.894 192.893 124.247 192.68C124.609 192.456 124.966 192.184 125.318 191.864C125.425 191.768 125.537 191.693 125.654 191.64C125.772 191.576 125.894 191.544 126.022 191.544ZM141.899 189.992C140.757 190.045 139.797 190.147 139.019 190.296C138.24 190.435 137.616 190.616 137.147 190.84C136.677 191.064 136.341 191.325 136.139 191.624C135.936 191.923 135.835 192.248 135.835 192.6C135.835 193.293 136.037 193.789 136.443 194.088C136.859 194.387 137.397 194.536 138.059 194.536C138.869 194.536 139.568 194.392 140.155 194.104C140.752 193.805 141.333 193.357 141.899 192.76V189.992ZM132.843 182.872C134.731 181.144 137.003 180.28 139.659 180.28C140.619 180.28 141.477 180.44 142.235 180.76C142.992 181.069 143.632 181.507 144.155 182.072C144.677 182.627 145.072 183.293 145.339 184.072C145.616 184.851 145.755 185.704 145.755 186.632V197H143.963C143.589 197 143.301 196.947 143.099 196.84C142.896 196.723 142.736 196.493 142.619 196.152L142.267 194.968C141.851 195.341 141.445 195.672 141.051 195.96C140.656 196.237 140.245 196.472 139.819 196.664C139.392 196.856 138.933 197 138.443 197.096C137.963 197.203 137.429 197.256 136.843 197.256C136.149 197.256 135.509 197.165 134.923 196.984C134.336 196.792 133.829 196.509 133.403 196.136C132.976 195.763 132.645 195.299 132.411 194.744C132.176 194.189 132.059 193.544 132.059 192.808C132.059 192.392 132.128 191.981 132.267 191.576C132.405 191.16 132.629 190.765 132.939 190.392C133.259 190.019 133.669 189.667 134.171 189.336C134.672 189.005 135.285 188.717 136.011 188.472C136.747 188.227 137.6 188.029 138.571 187.88C139.541 187.72 140.651 187.624 141.899 187.592V186.632C141.899 185.533 141.664 184.723 141.195 184.2C140.725 183.667 140.048 183.4 139.163 183.4C138.523 183.4 137.989 183.475 137.563 183.624C137.147 183.773 136.779 183.944 136.459 184.136C136.139 184.317 135.845 184.483 135.579 184.632C135.323 184.781 135.035 184.856 134.715 184.856C134.437 184.856 134.203 184.787 134.011 184.648C133.819 184.499 133.664 184.328 133.547 184.136L132.843 182.872ZM152.037 197V180.584H154.453C154.965 180.584 155.301 180.824 155.461 181.304L155.717 182.52C156.005 182.2 156.303 181.907 156.613 181.64C156.933 181.373 157.269 181.144 157.621 180.952C157.983 180.76 158.367 180.611 158.773 180.504C159.189 180.387 159.642 180.328 160.133 180.328C161.167 180.328 162.015 180.611 162.677 181.176C163.349 181.731 163.85 182.472 164.181 183.4C164.437 182.856 164.757 182.392 165.141 182.008C165.525 181.613 165.946 181.293 166.405 181.048C166.863 180.803 167.349 180.621 167.861 180.504C168.383 180.387 168.906 180.328 169.429 180.328C170.335 180.328 171.141 180.467 171.845 180.744C172.549 181.021 173.141 181.427 173.621 181.96C174.101 182.493 174.463 183.144 174.709 183.912C174.965 184.68 175.093 185.56 175.093 186.552V197H171.141V186.552C171.141 185.507 170.911 184.723 170.453 184.2C169.994 183.667 169.322 183.4 168.437 183.4C168.031 183.4 167.653 183.469 167.301 183.608C166.959 183.747 166.655 183.949 166.389 184.216C166.133 184.472 165.93 184.797 165.781 185.192C165.631 185.587 165.557 186.04 165.557 186.552V197H161.589V186.552C161.589 185.453 161.365 184.653 160.917 184.152C160.479 183.651 159.834 183.4 158.981 183.4C158.405 183.4 157.866 183.544 157.365 183.832C156.874 184.109 156.415 184.493 155.989 184.984V197H152.037ZM185.361 192.744C185.809 193.288 186.295 193.672 186.817 193.896C187.351 194.12 187.927 194.232 188.545 194.232C189.143 194.232 189.681 194.12 190.161 193.896C190.641 193.672 191.047 193.331 191.377 192.872C191.719 192.413 191.98 191.837 192.161 191.144C192.343 190.44 192.433 189.613 192.433 188.664C192.433 187.704 192.353 186.893 192.193 186.232C192.044 185.56 191.825 185.016 191.537 184.6C191.249 184.184 190.897 183.88 190.481 183.688C190.076 183.496 189.612 183.4 189.089 183.4C188.268 183.4 187.569 183.576 186.993 183.928C186.417 184.269 185.873 184.755 185.361 185.384V192.744ZM185.153 182.824C185.825 182.067 186.588 181.453 187.441 180.984C188.295 180.515 189.297 180.28 190.449 180.28C191.345 180.28 192.161 180.467 192.897 180.84C193.644 181.213 194.284 181.757 194.817 182.472C195.361 183.176 195.777 184.051 196.065 185.096C196.364 186.131 196.513 187.32 196.513 188.664C196.513 189.891 196.348 191.027 196.017 192.072C195.687 193.117 195.212 194.024 194.593 194.792C193.985 195.56 193.244 196.163 192.369 196.6C191.505 197.027 190.535 197.24 189.457 197.24C188.54 197.24 187.756 197.101 187.105 196.824C186.455 196.536 185.873 196.141 185.361 195.64V202.36H181.409V180.584H183.825C184.337 180.584 184.673 180.824 184.833 181.304L185.153 182.824Z" fill="#222222"/>
<path d="M142.209 71.7C142.476 71.7 142.686 71.7767 142.839 71.93C142.999 72.0767 143.079 72.2733 143.079 72.52V74H133.159V73.18C133.159 73.0133 133.193 72.84 133.259 72.66C133.333 72.4733 133.446 72.3067 133.599 72.16L137.989 67.76C138.356 67.3867 138.683 67.03 138.969 66.69C139.263 66.35 139.506 66.0133 139.699 65.68C139.893 65.3467 140.039 65.01 140.139 64.67C140.246 64.3233 140.299 63.96 140.299 63.58C140.299 63.2333 140.249 62.93 140.149 62.67C140.049 62.4033 139.906 62.18 139.719 62C139.539 61.82 139.319 61.6867 139.059 61.6C138.806 61.5067 138.519 61.46 138.199 61.46C137.906 61.46 137.633 61.5033 137.379 61.59C137.133 61.67 136.913 61.7867 136.719 61.94C136.526 62.0867 136.363 62.26 136.229 62.46C136.096 62.66 135.996 62.88 135.929 63.12C135.816 63.4267 135.669 63.63 135.489 63.73C135.309 63.83 135.049 63.8533 134.709 63.8L133.409 63.57C133.509 62.8767 133.703 62.27 133.989 61.75C134.276 61.2233 134.633 60.7867 135.059 60.44C135.493 60.0867 135.986 59.8233 136.539 59.65C137.099 59.47 137.699 59.38 138.339 59.38C139.006 59.38 139.616 59.48 140.169 59.68C140.723 59.8733 141.196 60.15 141.589 60.51C141.983 60.87 142.289 61.3033 142.509 61.81C142.729 62.3167 142.839 62.88 142.839 63.5C142.839 64.0333 142.759 64.5267 142.599 64.98C142.446 65.4333 142.236 65.8667 141.969 66.28C141.709 66.6933 141.403 67.0933 141.049 67.48C140.696 67.8667 140.326 68.26 139.939 68.66L136.679 71.99C136.993 71.8967 137.303 71.8267 137.609 71.78C137.923 71.7267 138.219 71.7 138.499 71.7H142.209ZM149.861 64.79C150.181 64.7233 150.488 64.6767 150.781 64.65C151.074 64.6167 151.358 64.6 151.631 64.6C152.391 64.6 153.061 64.7133 153.641 64.94C154.221 65.1667 154.708 65.48 155.101 65.88C155.494 66.28 155.791 66.75 155.991 67.29C156.191 67.8233 156.291 68.4 156.291 69.02C156.291 69.7867 156.154 70.4867 155.881 71.12C155.614 71.7533 155.241 72.2967 154.761 72.75C154.281 73.1967 153.711 73.5433 153.051 73.79C152.398 74.0367 151.684 74.16 150.911 74.16C150.458 74.16 150.028 74.1133 149.621 74.02C149.214 73.9267 148.831 73.8033 148.471 73.65C148.118 73.49 147.788 73.31 147.481 73.11C147.181 72.9033 146.911 72.6867 146.671 72.46L147.431 71.41C147.591 71.1833 147.801 71.07 148.061 71.07C148.228 71.07 148.398 71.1233 148.571 71.23C148.744 71.3367 148.941 71.4533 149.161 71.58C149.388 71.7067 149.651 71.8233 149.951 71.93C150.258 72.0367 150.624 72.09 151.051 72.09C151.504 72.09 151.904 72.0167 152.251 71.87C152.598 71.7233 152.884 71.52 153.111 71.26C153.344 70.9933 153.518 70.68 153.631 70.32C153.751 69.9533 153.811 69.5567 153.811 69.13C153.811 68.3433 153.581 67.73 153.121 67.29C152.668 66.8433 151.994 66.62 151.101 66.62C150.414 66.62 149.711 66.7467 148.991 67L147.451 66.56L148.651 59.54H155.791V60.59C155.791 60.9433 155.681 61.23 155.461 61.45C155.241 61.67 154.868 61.78 154.341 61.78H150.371L149.861 64.79ZM169.882 68.2H166.002V72.32H163.992V68.2H160.132V66.37H163.992V62.27H166.002V66.37H169.882V68.2Z" fill="white"/>
<defs>
<filter id="filter0_di_1_112" x="0.657959" y="0.556152" width="302.765" height="302.765" filterUnits="userSpaceOnUse" color-interpolation-filters="sRGB">
<feFlood flood-opacity="0" result="BackgroundImageFix"/>
<feColorMatrix in="SourceAlpha" type="matrix" values="0 0 0 0 0 0 0 0 0 0 0 0 0 0 0 0 0 0 127 0" result="hardAlpha"/>
<feOffset dy="8"/>
<feGaussianBlur stdDeviation="4"/>
<feComposite in2="hardAlpha" operator="out"/>
<feColorMatrix type="matrix" values="0 0 0 0 0 0 0 0 0 0.407762 0 0 0 0 0.358831 0 0 0 0.25 0"/>
<feBlend mode="normal" in2="BackgroundImageFix" result="effect1_dropShadow_1_112"/>
<feBlend mode="normal" in="SourceGraphic" in2="effect1_dropShadow_1_112" result="shape"/>
<feColorMatrix in="SourceAlpha" type="matrix" values="0 0 0 0 0 0 0 0 0 0 0 0 0 0 0 0 0 0 127 0" result="hardAlpha"/>
<feOffset dy="2.2"/>
<feGaussianBlur stdDeviation="2.2"/>
<feComposite in2="hardAlpha" operator="arithmetic" k2="-1" k3="1"/>
<feColorMatrix type="matrix" values="0 0 0 0 1 0 0 0 0 1 0 0 0 0 1 0 0 0 0.25 0"/>
<feBlend mode="normal" in2="shape" result="effect2_innerShadow_1_112"/>
</filter>
<filter id="filter1_di_1_112" x="14.1016" y="10" width="276.695" height="276.695" filterUnits="userSpaceOnUse" color-interpolation-filters="sRGB">
<feFlood flood-opacity="0" result="BackgroundImageFix"/>
<feColorMatrix in="SourceAlpha" type="matrix" values="0 0 0 0 0 0 0 0 0 0 0 0 0 0 0 0 0 0 127 0" result="hardAlpha"/>
<feOffset dy="4"/>
<feGaussianBlur stdDeviation="4"/>
<feComposite in2="hardAlpha" operator="out"/>
<feColorMatrix type="matrix" values="0 0 0 0 0.242029 0 0 0 0 0 0 0 0 0 0 0 0 0 0.25 0"/>
<feBlend mode="normal" in2="BackgroundImageFix" result="effect1_dropShadow_1_112"/>
<feBlend mode="normal" in="SourceGraphic" in2="effect1_dropShadow_1_112" result="shape"/>
<feColorMatrix in="SourceAlpha" type="matrix" values="0 0 0 0 0 0 0 0 0 0 0 0 0 0 0 0 0 0 127 0" result="hardAlpha"/>
<feOffset dy="2"/>
<feGaussianBlur stdDeviation="2"/>
<feComposite in2="hardAlpha" operator="arithmetic" k2="-1" k3="1"/>
<feColorMatrix type="matrix" values="0 0 0 0 0.224172 0 0 0 0 0 0 0 0 0 0 0 0 0 0.25 0"/>
<feBlend mode="normal" in2="shape" result="effect2_innerShadow_1_112"/>
</filter>
<filter id="filter2_i_1_112" x="115.721" y="29.6948" width="71.7605" height="74.6104" filterUnits="userSpaceOnUse" color-interpolation-filters="sRGB">
<feFlood flood-opacity="0" result="BackgroundImageFix"/>
<feBlend mode="normal" in="SourceGraphic" in2="BackgroundImageFix" result="shape"/>
<feColorMatrix in="SourceAlpha" type="matrix" values="0 0 0 0 0 0 0 0 0 0 0 0 0 0 0 0 0 0 127 0" result="hardAlpha"/>
<feOffset dy="2"/>
<feGaussianBlur stdDeviation="2"/>
<feComposite in2="hardAlpha" operator="arithmetic" k2="-1" k3="1"/>
<feColorMatrix type="matrix" values="0 0 0 0 0.164648 0 0 0 0 0.0247999 0 0 0 0 0.0247999 0 0 0 0.23 0"/>
<feBlend mode="normal" in2="shape" result="effect1_innerShadow_1_112"/>
</filter>
</defs>
</svg>
