<svg width="770" height="638" viewBox="0 0 770 638" fill="none" xmlns="http://www.w3.org/2000/svg">
<path d="M481.637 45C295.637 72.3333 9.31514 184.6 124.515 311C177.182 364.333 394.515 369 632.515 311C765.515 278.588 813.515 415 681.515 531C634.113 572.656 580.015 661.5 185.015 630.5" stroke="#222222" stroke-width="2" stroke-dasharray="16 32"/>
<path d="M525.616 1.448C525.669 1.43733 525.744 1.432 525.84 1.432C526.021 1.432 526.155 1.46933 526.24 1.544C526.336 1.608 526.384 1.69333 526.384 1.8C526.384 1.96 526.299 2.12 526.128 2.28C525.957 2.42933 525.749 2.52533 525.504 2.568L525.44 2.648C525.344 2.744 525.232 2.90933 525.104 3.144C524.901 3.51733 524.699 4.04533 524.496 4.728C524.229 5.688 523.995 6.984 523.792 8.616C523.664 9.68267 523.547 10.872 523.44 12.184C523.429 12.2587 523.424 12.376 523.424 12.536C523.403 12.8773 523.371 13.16 523.328 13.384C523.285 13.5973 523.205 13.7787 523.088 13.928C522.992 14.0347 522.821 14.1467 522.576 14.264C522.341 14.3707 522.123 14.424 521.92 14.424C521.653 14.424 521.493 14.3173 521.44 14.104C521.205 13.3147 520.923 12.1627 520.592 10.648C520.539 10.4133 520.459 10.0667 520.352 9.608C520.245 9.14933 520.149 8.74933 520.064 8.408L519.632 6.76C519.568 7.432 519.488 8.10933 519.392 8.792C519.221 10.0187 519.035 11.0427 518.832 11.864C518.64 12.6853 518.325 13.4213 517.888 14.072C517.771 14.2533 517.605 14.4027 517.392 14.52C517.189 14.6267 516.981 14.68 516.768 14.68C516.619 14.68 516.48 14.6533 516.352 14.6C516.224 14.536 516.16 14.4507 516.16 14.344C516.16 14.2693 516.181 14.2053 516.224 14.152C516.619 13.448 516.912 12.6907 517.104 11.88C517.307 11.0587 517.493 10.0453 517.664 8.84C517.909 7.03733 518.032 5.37333 518.032 3.848C518.032 3.22933 518.021 2.76533 518 2.456C517.989 2.25333 518.112 2.07733 518.368 1.928C518.624 1.768 518.891 1.688 519.168 1.688C519.381 1.688 519.541 1.74133 519.648 1.848C519.893 2.09333 520.08 2.37067 520.208 2.68C520.347 2.97867 520.517 3.42667 520.72 4.024C520.987 4.792 521.323 5.95467 521.728 7.512C521.803 7.77867 521.904 8.17867 522.032 8.712C522.075 8.38133 522.149 7.87467 522.256 7.192C522.427 6.168 522.608 5.29333 522.8 4.568C523.003 3.84267 523.333 3.17067 523.792 2.552C524.251 1.92267 524.859 1.55467 525.616 1.448ZM532.088 1.96C531.971 1.928 531.854 1.912 531.736 1.912C531.502 1.912 531.294 1.97067 531.112 2.088C530.878 2.216 530.744 2.344 530.712 2.472C530.574 2.97333 530.483 3.304 530.44 3.464V3.512C530.44 3.56533 530.462 3.61867 530.504 3.672C530.547 3.71467 530.595 3.74667 530.648 3.768C530.734 3.81067 530.83 3.832 530.936 3.832C531.107 3.832 531.31 3.784 531.544 3.688C531.79 3.58133 531.95 3.43733 532.024 3.256C532.088 3.07467 532.179 2.75467 532.296 2.296V2.264C532.296 2.21067 532.275 2.15733 532.232 2.104C532.19 2.04 532.142 1.992 532.088 1.96ZM531.464 8.376C531.4 8.80267 531.278 9.576 531.096 10.696C530.926 11.8053 530.782 12.8133 530.664 13.72C530.632 13.9227 530.488 14.0987 530.232 14.248C529.987 14.3867 529.736 14.456 529.48 14.456C529.31 14.456 529.176 14.424 529.08 14.36C528.995 14.2853 528.963 14.1787 528.984 14.04C529.166 12.9733 529.358 11.7573 529.56 10.392C529.774 9.016 529.923 8.03467 530.008 7.448L530.344 5.256C530.376 5.064 530.52 4.89867 530.776 4.76C531.043 4.62133 531.299 4.552 531.544 4.552C531.694 4.552 531.811 4.584 531.896 4.648C531.982 4.712 532.014 4.80267 531.992 4.92L531.464 8.376ZM541.345 3.976C541.398 3.82667 541.537 3.69867 541.761 3.592C541.985 3.47467 542.209 3.416 542.433 3.416C542.753 3.416 542.913 3.528 542.913 3.752C542.913 3.784 542.902 3.84267 542.881 3.928C542.422 5.48533 542.017 6.67467 541.665 7.496C541.601 7.656 541.451 7.79467 541.217 7.912C540.993 8.01867 540.769 8.072 540.545 8.072C540.278 8.072 540.123 7.98133 540.081 7.8C539.889 6.94667 539.59 6.52 539.185 6.52C538.993 6.52 538.779 6.62133 538.545 6.824C538.033 7.29333 537.627 7.928 537.329 8.728C537.041 9.528 536.897 10.2907 536.897 11.016C536.897 11.5493 536.987 12.0293 537.169 12.456C537.35 12.872 537.654 13.1333 538.081 13.24C538.145 13.2613 538.246 13.272 538.385 13.272C538.737 13.272 539.083 13.144 539.425 12.888C539.777 12.6213 540.065 12.3493 540.289 12.072C540.513 11.784 540.801 11.3947 541.153 10.904C541.238 10.7867 541.371 10.696 541.553 10.632C541.734 10.5573 541.915 10.52 542.097 10.52C542.267 10.52 542.401 10.552 542.497 10.616C542.603 10.6693 542.657 10.7547 542.657 10.872C542.657 10.9787 542.619 11.0907 542.545 11.208C541.979 12.0933 541.291 12.8613 540.481 13.512C539.67 14.152 538.817 14.472 537.921 14.472C537.739 14.472 537.558 14.456 537.377 14.424C536.662 14.3067 536.129 13.96 535.777 13.384C535.425 12.7973 535.249 12.12 535.249 11.352C535.249 11.0747 535.275 10.776 535.329 10.456C535.499 9.432 535.841 8.47733 536.353 7.592C536.865 6.696 537.537 6.04 538.369 5.624C538.785 5.42133 539.201 5.32 539.617 5.32C540.011 5.32 540.374 5.42667 540.705 5.64L541.345 3.976ZM552.234 8.824C552.234 7.69333 551.573 6.80267 550.25 6.152C549.919 6.42933 549.589 6.79733 549.258 7.256C548.853 7.84267 548.517 8.49867 548.25 9.224C548.143 9.512 548.042 9.90667 547.946 10.408C547.85 10.8987 547.802 11.3573 547.802 11.784C547.802 12.2213 547.861 12.5733 547.978 12.84C548.106 13.096 548.309 13.224 548.586 13.224C548.81 13.224 549.071 13.1333 549.37 12.952C550.191 12.472 550.874 11.8747 551.418 11.16C551.962 10.4453 552.234 9.66667 552.234 8.824ZM552.682 5.928C553.066 6.29067 553.359 6.70133 553.562 7.16C553.775 7.61867 553.882 8.104 553.882 8.616C553.882 9.352 553.669 10.0987 553.242 10.856C552.954 11.368 552.533 11.9067 551.978 12.472C551.423 13.0373 550.805 13.5173 550.122 13.912C549.45 14.296 548.805 14.488 548.186 14.488C547.802 14.488 547.439 14.4027 547.098 14.232C546.373 13.8373 546.01 13.128 546.01 12.104C546.01 11.368 546.175 10.5627 546.506 9.688C546.837 8.80267 547.189 8.056 547.562 7.448C548.469 6.008 549.423 5.10133 550.426 4.728C550.703 4.62133 551.002 4.568 551.322 4.568C551.695 4.568 552.01 4.664 552.266 4.856C552.522 5.03733 552.671 5.32533 552.714 5.72V5.784C552.714 5.816 552.703 5.864 552.682 5.928ZM559.335 6.84C559.335 7.24533 559.436 7.60267 559.639 7.912C559.852 8.22133 560.108 8.48267 560.407 8.696C560.706 8.90933 561.111 9.16 561.623 9.448C562.316 9.84267 562.844 10.2 563.207 10.52C563.58 10.84 563.826 11.24 563.943 11.72C563.986 11.9333 564.007 12.088 564.007 12.184C564.007 12.9307 563.612 13.4693 562.823 13.8C562.034 14.12 561.138 14.28 560.135 14.28C559.74 14.28 559.394 14.2533 559.095 14.2C558.743 14.136 558.375 14.0133 557.991 13.832C557.618 13.64 557.303 13.4107 557.047 13.144C556.802 12.8667 556.679 12.584 556.679 12.296C556.679 11.848 557.026 11.4373 557.719 11.064C557.911 10.968 558.098 10.92 558.279 10.92C558.45 10.92 558.588 10.9573 558.695 11.032C558.812 11.1067 558.871 11.1973 558.871 11.304C558.871 11.496 558.716 11.6827 558.407 11.864C558.343 11.896 558.311 11.944 558.311 12.008C558.311 12.136 558.412 12.2907 558.615 12.472C558.818 12.6533 558.978 12.776 559.095 12.84C559.415 13.0213 559.927 13.1333 560.631 13.176C560.716 13.1867 560.866 13.192 561.079 13.192C561.463 13.192 561.772 13.128 562.007 13C562.242 12.872 562.343 12.6373 562.311 12.296C562.268 11.8373 561.804 11.32 560.919 10.744L560.311 10.36C559.756 10.0187 559.298 9.72 558.935 9.464C558.583 9.19733 558.279 8.88267 558.023 8.52C557.767 8.14667 557.639 7.73067 557.639 7.272C557.639 6.984 557.692 6.696 557.799 6.408C558.034 5.71467 558.471 5.18133 559.111 4.808C559.751 4.424 560.439 4.232 561.175 4.232C561.932 4.232 562.567 4.424 563.079 4.808C563.602 5.192 563.863 5.736 563.863 6.44C563.863 6.664 563.831 6.904 563.767 7.16C563.724 7.352 563.564 7.51733 563.287 7.656C563.01 7.79467 562.748 7.864 562.503 7.864C562.354 7.864 562.236 7.832 562.151 7.768C562.076 7.704 562.06 7.61333 562.103 7.496C562.167 7.272 562.199 7.048 562.199 6.824C562.199 6.472 562.108 6.17333 561.927 5.928C561.746 5.68267 561.479 5.512 561.127 5.416C560.935 5.37333 560.791 5.352 560.695 5.352C560.311 5.352 559.986 5.49067 559.719 5.768C559.463 6.03467 559.335 6.392 559.335 6.84ZM570.67 1.96C570.552 1.928 570.435 1.912 570.318 1.912C570.083 1.912 569.875 1.97067 569.694 2.088C569.459 2.216 569.326 2.344 569.294 2.472C569.155 2.97333 569.064 3.304 569.022 3.464V3.512C569.022 3.56533 569.043 3.61867 569.086 3.672C569.128 3.71467 569.176 3.74667 569.23 3.768C569.315 3.81067 569.411 3.832 569.518 3.832C569.688 3.832 569.891 3.784 570.126 3.688C570.371 3.58133 570.531 3.43733 570.606 3.256C570.67 3.07467 570.76 2.75467 570.878 2.296V2.264C570.878 2.21067 570.856 2.15733 570.814 2.104C570.771 2.04 570.723 1.992 570.67 1.96ZM570.046 8.376C569.982 8.80267 569.859 9.576 569.678 10.696C569.507 11.8053 569.363 12.8133 569.246 13.72C569.214 13.9227 569.07 14.0987 568.814 14.248C568.568 14.3867 568.318 14.456 568.062 14.456C567.891 14.456 567.758 14.424 567.662 14.36C567.576 14.2853 567.544 14.1787 567.566 14.04C567.747 12.9733 567.939 11.7573 568.142 10.392C568.355 9.016 568.504 8.03467 568.59 7.448L568.926 5.256C568.958 5.064 569.102 4.89867 569.358 4.76C569.624 4.62133 569.88 4.552 570.126 4.552C570.275 4.552 570.392 4.584 570.478 4.648C570.563 4.712 570.595 4.80267 570.574 4.92L570.046 8.376ZM575.43 12.024C575.409 12.152 575.398 12.2427 575.398 12.296C575.398 12.7227 575.606 12.936 576.022 12.936C576.267 12.936 576.566 12.8667 576.918 12.728C577.238 12.6 577.83 12.328 578.694 11.912C578.715 11.6453 578.737 11.3893 578.758 11.144C578.79 10.888 578.817 10.6587 578.838 10.456L578.95 9.352C578.214 9.704 577.665 9.98133 577.302 10.184C576.769 10.4933 576.342 10.7867 576.022 11.064C575.702 11.3307 575.505 11.6507 575.43 12.024ZM579.59 4.488C580.07 4.488 580.39 4.61067 580.55 4.856C580.721 5.09067 580.806 5.43733 580.806 5.896L580.79 6.344C580.747 7.12267 580.651 8.264 580.502 9.768C580.47 9.98133 580.433 10.3387 580.39 10.84C580.347 11.1493 580.31 11.4 580.278 11.592C580.395 11.656 580.454 11.7413 580.454 11.848C580.454 11.9227 580.417 12.0347 580.342 12.184L580.278 12.264L580.182 12.36C580.107 12.904 580.07 13.368 580.07 13.752C580.219 13.8373 580.294 13.9387 580.294 14.056C580.294 14.2373 580.161 14.4293 579.894 14.632C579.819 14.6853 579.734 14.7387 579.638 14.792C579.563 14.8347 579.457 14.872 579.318 14.904C579.19 14.936 579.062 14.952 578.934 14.952C578.539 14.952 578.358 14.808 578.39 14.52L578.518 13.176C577.089 13.8587 575.99 14.2 575.222 14.2C574.251 14.2 573.766 13.6773 573.766 12.632C573.766 11.6293 574.283 10.776 575.318 10.072C576.363 9.368 577.611 8.73333 579.062 8.168C579.105 7.752 579.137 7.33067 579.158 6.904C579.158 6.81867 579.163 6.712 579.174 6.584C579.185 6.456 579.19 6.312 579.19 6.152C579.19 5.94933 579.174 5.816 579.142 5.752L579.094 5.688H579.078C578.918 5.688 578.619 5.90667 578.182 6.344C577.787 6.728 577.297 7.304 576.71 8.072C576.625 8.18933 576.481 8.28533 576.278 8.36C576.086 8.43467 575.889 8.472 575.686 8.472C575.537 8.472 575.409 8.44533 575.302 8.392C575.206 8.33867 575.158 8.25867 575.158 8.152C575.158 8.06667 575.201 7.95467 575.286 7.816C576.758 5.59733 578.193 4.488 579.59 4.488Z" fill="#999999"/>
<path d="M92.496 599.4C94.6187 598.568 95.68 597.789 95.68 597.064C95.68 596.648 95.4187 596.333 94.896 596.12C94.3733 595.896 93.6853 595.693 92.832 595.512C92.6293 595.48 92.3947 595.427 92.128 595.352L91.68 595.208C91.328 596.989 91.0507 598.552 90.848 599.896C91.232 599.853 91.7813 599.688 92.496 599.4ZM95.712 595.064C96.2027 595.245 96.576 595.48 96.832 595.768C97.0987 596.056 97.232 596.371 97.232 596.712C97.232 597.203 96.9653 597.699 96.432 598.2C95.7173 598.872 94.8587 599.453 93.856 599.944C92.864 600.424 91.872 600.749 90.88 600.92C90.7947 600.941 90.7307 600.952 90.688 600.952C90.4213 602.733 90.224 604.355 90.096 605.816C90.0747 606.019 89.9253 606.195 89.648 606.344C89.3707 606.493 89.0933 606.568 88.816 606.568C88.6667 606.568 88.544 606.536 88.448 606.472C88.352 606.408 88.3093 606.312 88.32 606.184C88.4907 604.477 88.7093 602.685 88.976 600.808C88.4747 600.595 88.224 600.216 88.224 599.672C88.224 599.437 88.2773 599.165 88.384 598.856C88.4373 598.717 88.5653 598.6 88.768 598.504C88.9707 598.397 89.1787 598.333 89.392 598.312C89.5733 597.267 89.8347 596.008 90.176 594.536C89.6533 594.163 89.3707 593.688 89.328 593.112C89.3173 592.92 89.44 592.749 89.696 592.6C89.952 592.44 90.2133 592.36 90.48 592.36C90.8427 592.36 91.0293 592.493 91.04 592.76C91.0507 592.995 91.1413 593.213 91.312 593.416C91.3653 593.405 91.4453 593.4 91.552 593.4C91.8933 593.4 92.0427 593.517 92 593.752L91.952 593.912C92.272 594.093 92.64 594.248 93.056 594.376C93.472 594.493 93.968 594.616 94.544 594.744C95.1413 594.883 95.5307 594.989 95.712 595.064ZM100.227 604.024C100.205 604.152 100.195 604.243 100.195 604.296C100.195 604.723 100.403 604.936 100.819 604.936C101.064 604.936 101.363 604.867 101.715 604.728C102.035 604.6 102.627 604.328 103.491 603.912C103.512 603.645 103.533 603.389 103.555 603.144C103.587 602.888 103.613 602.659 103.635 602.456L103.747 601.352C103.011 601.704 102.461 601.981 102.099 602.184C101.565 602.493 101.139 602.787 100.819 603.064C100.499 603.331 100.301 603.651 100.227 604.024ZM104.387 596.488C104.867 596.488 105.187 596.611 105.347 596.856C105.517 597.091 105.603 597.437 105.603 597.896L105.587 598.344C105.544 599.123 105.448 600.264 105.299 601.768C105.267 601.981 105.229 602.339 105.187 602.84C105.144 603.149 105.107 603.4 105.075 603.592C105.192 603.656 105.251 603.741 105.251 603.848C105.251 603.923 105.213 604.035 105.139 604.184L105.075 604.264L104.979 604.36C104.904 604.904 104.867 605.368 104.867 605.752C105.016 605.837 105.091 605.939 105.091 606.056C105.091 606.237 104.957 606.429 104.691 606.632C104.616 606.685 104.531 606.739 104.435 606.792C104.36 606.835 104.253 606.872 104.115 606.904C103.987 606.936 103.859 606.952 103.731 606.952C103.336 606.952 103.155 606.808 103.187 606.52L103.315 605.176C101.885 605.859 100.787 606.2 100.019 606.2C99.0481 606.2 98.5627 605.677 98.5627 604.632C98.5627 603.629 99.0801 602.776 100.115 602.072C101.16 601.368 102.408 600.733 103.859 600.168C103.901 599.752 103.933 599.331 103.955 598.904C103.955 598.819 103.96 598.712 103.971 598.584C103.981 598.456 103.987 598.312 103.987 598.152C103.987 597.949 103.971 597.816 103.939 597.752L103.891 597.688H103.875C103.715 597.688 103.416 597.907 102.979 598.344C102.584 598.728 102.093 599.304 101.507 600.072C101.421 600.189 101.277 600.285 101.075 600.36C100.883 600.435 100.685 600.472 100.483 600.472C100.333 600.472 100.205 600.445 100.099 600.392C100.003 600.339 99.9547 600.259 99.9547 600.152C99.9547 600.067 99.9974 599.955 100.083 599.816C101.555 597.597 102.989 596.488 104.387 596.488ZM114.462 602.328C114.505 602.147 114.526 601.933 114.526 601.688C114.526 600.835 114.206 600.003 113.566 599.192C113.203 598.723 112.819 598.344 112.414 598.056C112.094 600.051 111.843 601.661 111.662 602.888C111.577 603.389 111.459 604.141 111.31 605.144C111.63 605.293 111.923 605.368 112.19 605.368C112.638 605.368 113.043 605.149 113.406 604.712C113.673 604.392 113.897 604.024 114.078 603.608C114.259 603.192 114.387 602.765 114.462 602.328ZM112.59 596.504C113.251 596.728 113.849 597.107 114.382 597.64C114.915 598.163 115.331 598.776 115.63 599.48C115.939 600.173 116.094 600.867 116.094 601.56C116.094 601.933 116.046 602.296 115.95 602.648C115.747 603.384 115.438 604.045 115.022 604.632C114.617 605.208 114.126 605.667 113.55 606.008C112.985 606.339 112.377 606.504 111.726 606.504C111.523 606.504 111.315 606.488 111.102 606.456C110.675 609.187 110.291 611.416 109.95 613.144C109.907 613.347 109.758 613.517 109.502 613.656C109.246 613.795 108.985 613.864 108.718 613.864C108.537 613.864 108.398 613.827 108.302 613.752C108.195 613.677 108.158 613.565 108.19 613.416C108.713 610.771 109.171 608.248 109.566 605.848L109.534 605.832C109.395 605.736 109.326 605.629 109.326 605.512C109.326 605.331 109.454 605.16 109.71 605C110.051 603.027 110.435 600.493 110.862 597.4L110.654 597.416L110.478 597.432C110.297 597.432 110.163 597.4 110.078 597.336C109.993 597.272 109.95 597.192 109.95 597.096C109.95 596.936 110.03 596.781 110.19 596.632C110.35 596.483 110.547 596.387 110.782 596.344C110.974 596.312 111.166 596.296 111.358 596.296C111.497 596.296 111.683 596.307 111.918 596.328C112.259 596.285 112.483 596.344 112.59 596.504ZM126.155 596.568C126.326 596.621 126.406 596.733 126.395 596.904C126.096 599.763 125.659 602.744 125.083 605.848C125.04 606.051 124.891 606.221 124.635 606.36C124.379 606.499 124.123 606.568 123.867 606.568C123.707 606.568 123.579 606.536 123.483 606.472C123.387 606.397 123.355 606.296 123.387 606.168C123.643 605.059 123.856 603.923 124.027 602.76C124.198 601.597 124.363 600.264 124.523 598.76C123.648 599.571 122.774 600.456 121.899 601.416L121.019 606.28C120.976 606.483 120.822 606.659 120.555 606.808C120.288 606.957 120.022 607.032 119.755 607.032C119.595 607.032 119.472 607 119.387 606.936C119.302 606.861 119.27 606.755 119.291 606.616L120.075 602.216C119.947 602.184 119.883 602.109 119.883 601.992C119.883 601.907 119.931 601.8 120.027 601.672L120.219 601.416L121.659 593.592C121.691 593.4 121.84 593.235 122.107 593.096C122.374 592.957 122.635 592.888 122.891 592.888C123.04 592.888 123.158 592.92 123.243 592.984C123.328 593.048 123.36 593.139 123.339 593.256L122.315 599.048C123.104 598.259 123.984 597.507 124.955 596.792C125.264 596.579 125.552 596.472 125.819 596.472C125.947 596.472 126.059 596.504 126.155 596.568ZM136.168 600.824C136.168 599.693 135.507 598.803 134.184 598.152C133.854 598.429 133.523 598.797 133.192 599.256C132.787 599.843 132.451 600.499 132.184 601.224C132.078 601.512 131.976 601.907 131.88 602.408C131.784 602.899 131.736 603.357 131.736 603.784C131.736 604.221 131.795 604.573 131.912 604.84C132.04 605.096 132.243 605.224 132.52 605.224C132.744 605.224 133.006 605.133 133.304 604.952C134.126 604.472 134.808 603.875 135.352 603.16C135.896 602.445 136.168 601.667 136.168 600.824ZM136.616 597.928C137 598.291 137.294 598.701 137.496 599.16C137.71 599.619 137.816 600.104 137.816 600.616C137.816 601.352 137.603 602.099 137.176 602.856C136.888 603.368 136.467 603.907 135.912 604.472C135.358 605.037 134.739 605.517 134.056 605.912C133.384 606.296 132.739 606.488 132.12 606.488C131.736 606.488 131.374 606.403 131.032 606.232C130.307 605.837 129.944 605.128 129.944 604.104C129.944 603.368 130.11 602.563 130.44 601.688C130.771 600.803 131.123 600.056 131.496 599.448C132.403 598.008 133.358 597.101 134.36 596.728C134.638 596.621 134.936 596.568 135.256 596.568C135.63 596.568 135.944 596.664 136.2 596.856C136.456 597.037 136.606 597.325 136.648 597.72V597.784C136.648 597.816 136.638 597.864 136.616 597.928ZM143.27 598.84C143.27 599.245 143.371 599.603 143.574 599.912C143.787 600.221 144.043 600.483 144.342 600.696C144.64 600.909 145.046 601.16 145.558 601.448C146.251 601.843 146.779 602.2 147.142 602.52C147.515 602.84 147.76 603.24 147.878 603.72C147.92 603.933 147.942 604.088 147.942 604.184C147.942 604.931 147.547 605.469 146.758 605.8C145.968 606.12 145.072 606.28 144.07 606.28C143.675 606.28 143.328 606.253 143.03 606.2C142.678 606.136 142.31 606.013 141.926 605.832C141.552 605.64 141.238 605.411 140.982 605.144C140.736 604.867 140.614 604.584 140.614 604.296C140.614 603.848 140.96 603.437 141.654 603.064C141.846 602.968 142.032 602.92 142.214 602.92C142.384 602.92 142.523 602.957 142.63 603.032C142.747 603.107 142.806 603.197 142.806 603.304C142.806 603.496 142.651 603.683 142.342 603.864C142.278 603.896 142.246 603.944 142.246 604.008C142.246 604.136 142.347 604.291 142.549 604.472C142.752 604.653 142.912 604.776 143.03 604.84C143.35 605.021 143.862 605.133 144.566 605.176C144.651 605.187 144.8 605.192 145.014 605.192C145.398 605.192 145.707 605.128 145.942 605C146.176 604.872 146.278 604.637 146.246 604.296C146.203 603.837 145.739 603.32 144.854 602.744L144.246 602.36C143.691 602.019 143.232 601.72 142.87 601.464C142.518 601.197 142.214 600.883 141.958 600.52C141.702 600.147 141.574 599.731 141.574 599.272C141.574 598.984 141.627 598.696 141.734 598.408C141.968 597.715 142.406 597.181 143.046 596.808C143.686 596.424 144.374 596.232 145.11 596.232C145.867 596.232 146.502 596.424 147.014 596.808C147.536 597.192 147.798 597.736 147.798 598.44C147.798 598.664 147.766 598.904 147.702 599.16C147.659 599.352 147.499 599.517 147.222 599.656C146.944 599.795 146.683 599.864 146.438 599.864C146.288 599.864 146.171 599.832 146.086 599.768C146.011 599.704 145.995 599.613 146.038 599.496C146.102 599.272 146.134 599.048 146.134 598.824C146.134 598.472 146.043 598.173 145.862 597.928C145.68 597.683 145.414 597.512 145.062 597.416C144.87 597.373 144.726 597.352 144.63 597.352C144.246 597.352 143.92 597.491 143.654 597.768C143.398 598.035 143.27 598.392 143.27 598.84Z" fill="#999999"/>
<path d="M6.384 177.688C6.45867 177.731 6.496 177.789 6.496 177.864C6.496 178.013 6.35733 178.168 6.08 178.328C5.80267 178.477 5.536 178.552 5.28 178.552C5.13067 178.552 5.024 178.525 4.96 178.472C4.90667 178.429 4.752 178.317 4.496 178.136C4.25067 177.944 4 177.784 3.744 177.656C3.488 177.528 3.264 177.464 3.072 177.464C2.90133 177.464 2.72 177.528 2.528 177.656C2.34667 177.773 2.17067 177.907 2 178.056C1.82933 178.195 1.70667 178.296 1.632 178.36C1.49333 178.467 1.31733 178.557 1.104 178.632C0.901333 178.707 0.714667 178.744 0.544 178.744C0.394667 178.744 0.277333 178.717 0.192 178.664C0.117333 178.611 0.096 178.525 0.128 178.408L0.576 176.488C1.48267 172.552 2.27733 169.213 2.96 166.472C3.00267 166.291 3.15733 166.136 3.424 166.008C3.70133 165.869 3.968 165.8 4.224 165.8C4.36267 165.8 4.46933 165.827 4.544 165.88C4.61867 165.933 4.64 166.013 4.608 166.12C4.288 167.475 3.81867 169.507 3.2 172.216L2.144 176.776C2.50667 176.595 2.85333 176.483 3.184 176.44C3.35467 176.419 3.47733 176.408 3.552 176.408C4.02133 176.408 4.46933 176.52 4.896 176.744C5.33333 176.957 5.82933 177.272 6.384 177.688ZM13.2914 165.96C13.174 165.928 13.0567 165.912 12.9394 165.912C12.7047 165.912 12.4967 165.971 12.3154 166.088C12.0807 166.216 11.9474 166.344 11.9154 166.472C11.7767 166.973 11.686 167.304 11.6434 167.464V167.512C11.6434 167.565 11.6647 167.619 11.7074 167.672C11.75 167.715 11.798 167.747 11.8514 167.768C11.9367 167.811 12.0327 167.832 12.1394 167.832C12.31 167.832 12.5127 167.784 12.7474 167.688C12.9927 167.581 13.1527 167.437 13.2274 167.256C13.2914 167.075 13.382 166.755 13.4994 166.296V166.264C13.4994 166.211 13.478 166.157 13.4354 166.104C13.3927 166.04 13.3447 165.992 13.2914 165.96ZM12.6674 172.376C12.6034 172.803 12.4807 173.576 12.2994 174.696C12.1287 175.805 11.9847 176.813 11.8674 177.72C11.8354 177.923 11.6914 178.099 11.4354 178.248C11.19 178.387 10.9394 178.456 10.6834 178.456C10.5127 178.456 10.3794 178.424 10.2834 178.36C10.198 178.285 10.166 178.179 10.1874 178.04C10.3687 176.973 10.5607 175.757 10.7634 174.392C10.9767 173.016 11.126 172.035 11.2114 171.448L11.5474 169.256C11.5794 169.064 11.7234 168.899 11.9794 168.76C12.246 168.621 12.502 168.552 12.7474 168.552C12.8967 168.552 13.014 168.584 13.0994 168.648C13.1847 168.712 13.2167 168.803 13.1954 168.92L12.6674 172.376ZM26.2437 168.568C26.1904 169.688 26.1637 170.691 26.1637 171.576C26.1637 173.773 26.3131 175.731 26.6117 177.448C26.6544 177.693 26.5584 177.907 26.3238 178.088C26.0891 178.259 25.8331 178.344 25.5557 178.344C25.3958 178.344 25.2624 178.307 25.1558 178.232C25.0491 178.157 24.9851 178.045 24.9637 177.896C24.6864 175.827 24.5264 173.896 24.4838 172.104C23.9717 173.32 23.3584 175.027 22.6437 177.224C22.6331 177.267 22.6011 177.325 22.5477 177.4C22.4517 177.528 22.3077 177.629 22.1157 177.704C21.9237 177.779 21.7317 177.816 21.5398 177.816C21.3904 177.816 21.2731 177.795 21.1877 177.752C21.0491 177.677 20.9797 177.576 20.9797 177.448C20.9797 177.416 20.9904 177.357 21.0117 177.272C21.0224 177.155 21.0278 176.984 21.0278 176.76C21.0278 176.387 20.9957 175.848 20.9317 175.144L20.8677 174.28C20.8251 173.235 20.7877 172.451 20.7557 171.928C20.2437 172.867 19.8384 173.56 19.5397 174.008C19.2837 175.363 18.8571 176.675 18.2597 177.944C18.1851 178.093 18.0251 178.221 17.7797 178.328C17.5344 178.435 17.2944 178.488 17.0597 178.488C16.9104 178.488 16.7877 178.461 16.6917 178.408C16.6064 178.355 16.5637 178.28 16.5637 178.184C16.5637 178.12 16.5797 178.051 16.6117 177.976C17.1024 176.909 17.4757 175.816 17.7317 174.696C17.6891 174.653 17.6677 174.595 17.6677 174.52C17.6677 174.413 17.7104 174.301 17.7957 174.184L17.8597 174.072C18.0304 173.219 18.1157 172.312 18.1157 171.352C18.1157 170.947 18.0997 170.547 18.0677 170.152C18.0571 169.971 18.1797 169.805 18.4357 169.656C18.6917 169.507 18.9531 169.432 19.2197 169.432C19.3691 169.432 19.4917 169.464 19.5877 169.528C19.6837 169.592 19.7371 169.683 19.7477 169.8C19.7691 169.992 19.7904 170.301 19.8117 170.728C20.0571 170.28 20.3184 169.859 20.5957 169.464C20.6171 169.283 20.7451 169.128 20.9797 169C21.2144 168.861 21.4597 168.792 21.7157 168.792C21.8757 168.792 22.0091 168.829 22.1157 168.904C22.2331 168.968 22.2971 169.075 22.3077 169.224C22.4144 170.6 22.4891 171.827 22.5317 172.904C23.2464 171.155 23.9557 169.709 24.6597 168.568C24.7344 168.451 24.8784 168.344 25.0918 168.248C25.3051 168.152 25.5131 168.104 25.7157 168.104C25.8758 168.104 26.0038 168.141 26.0998 168.216C26.2064 168.291 26.2544 168.408 26.2437 168.568ZM31.7674 176.024C31.746 176.152 31.7354 176.243 31.7354 176.296C31.7354 176.723 31.9434 176.936 32.3594 176.936C32.6047 176.936 32.9034 176.867 33.2554 176.728C33.5754 176.6 34.1674 176.328 35.0314 175.912C35.0527 175.645 35.074 175.389 35.0954 175.144C35.1274 174.888 35.154 174.659 35.1754 174.456L35.2874 173.352C34.5514 173.704 34.002 173.981 33.6394 174.184C33.106 174.493 32.6794 174.787 32.3594 175.064C32.0394 175.331 31.842 175.651 31.7674 176.024ZM35.9274 168.488C36.4074 168.488 36.7274 168.611 36.8874 168.856C37.058 169.091 37.1434 169.437 37.1434 169.896L37.1274 170.344C37.0847 171.123 36.9887 172.264 36.8394 173.768C36.8074 173.981 36.77 174.339 36.7274 174.84C36.6847 175.149 36.6474 175.4 36.6154 175.592C36.7327 175.656 36.7914 175.741 36.7914 175.848C36.7914 175.923 36.754 176.035 36.6794 176.184L36.6154 176.264L36.5194 176.36C36.4447 176.904 36.4074 177.368 36.4074 177.752C36.5567 177.837 36.6314 177.939 36.6314 178.056C36.6314 178.237 36.498 178.429 36.2314 178.632C36.1567 178.685 36.0714 178.739 35.9754 178.792C35.9007 178.835 35.794 178.872 35.6554 178.904C35.5274 178.936 35.3994 178.952 35.2714 178.952C34.8767 178.952 34.6954 178.808 34.7274 178.52L34.8554 177.176C33.426 177.859 32.3274 178.2 31.5594 178.2C30.5887 178.2 30.1034 177.677 30.1034 176.632C30.1034 175.629 30.6207 174.776 31.6554 174.072C32.7007 173.368 33.9487 172.733 35.3994 172.168C35.442 171.752 35.474 171.331 35.4954 170.904C35.4954 170.819 35.5007 170.712 35.5114 170.584C35.522 170.456 35.5274 170.312 35.5274 170.152C35.5274 169.949 35.5114 169.816 35.4794 169.752L35.4314 169.688H35.4154C35.2554 169.688 34.9567 169.907 34.5194 170.344C34.1247 170.728 33.634 171.304 33.0474 172.072C32.962 172.189 32.818 172.285 32.6154 172.36C32.4234 172.435 32.226 172.472 32.0234 172.472C31.874 172.472 31.746 172.445 31.6394 172.392C31.5434 172.339 31.4954 172.259 31.4954 172.152C31.4954 172.067 31.538 171.955 31.6234 171.816C33.0954 169.597 34.53 168.488 35.9274 168.488ZM43.5226 170.84C43.5226 171.245 43.624 171.603 43.8266 171.912C44.04 172.221 44.296 172.483 44.5946 172.696C44.8933 172.909 45.2986 173.16 45.8106 173.448C46.504 173.843 47.032 174.2 47.3946 174.52C47.768 174.84 48.0133 175.24 48.1306 175.72C48.1733 175.933 48.1946 176.088 48.1946 176.184C48.1946 176.931 47.8 177.469 47.0106 177.8C46.2213 178.12 45.3253 178.28 44.3226 178.28C43.928 178.28 43.5813 178.253 43.2826 178.2C42.9306 178.136 42.5626 178.013 42.1786 177.832C41.8053 177.64 41.4906 177.411 41.2346 177.144C40.9893 176.867 40.8666 176.584 40.8666 176.296C40.8666 175.848 41.2133 175.437 41.9066 175.064C42.0986 174.968 42.2853 174.92 42.4666 174.92C42.6373 174.92 42.776 174.957 42.8826 175.032C43 175.107 43.0586 175.197 43.0586 175.304C43.0586 175.496 42.904 175.683 42.5946 175.864C42.5306 175.896 42.4986 175.944 42.4986 176.008C42.4986 176.136 42.6 176.291 42.8026 176.472C43.0053 176.653 43.1653 176.776 43.2826 176.84C43.6026 177.021 44.1146 177.133 44.8186 177.176C44.904 177.187 45.0533 177.192 45.2666 177.192C45.6506 177.192 45.96 177.128 46.1946 177C46.4293 176.872 46.5306 176.637 46.4986 176.296C46.456 175.837 45.992 175.32 45.1066 174.744L44.4986 174.36C43.944 174.019 43.4853 173.72 43.1226 173.464C42.7706 173.197 42.4666 172.883 42.2106 172.52C41.9546 172.147 41.8266 171.731 41.8266 171.272C41.8266 170.984 41.88 170.696 41.9866 170.408C42.2213 169.715 42.6586 169.181 43.2986 168.808C43.9386 168.424 44.6266 168.232 45.3626 168.232C46.12 168.232 46.7546 168.424 47.2666 168.808C47.7893 169.192 48.0506 169.736 48.0506 170.44C48.0506 170.664 48.0186 170.904 47.9546 171.16C47.912 171.352 47.752 171.517 47.4746 171.656C47.1973 171.795 46.936 171.864 46.6906 171.864C46.5413 171.864 46.424 171.832 46.3386 171.768C46.264 171.704 46.248 171.613 46.2906 171.496C46.3546 171.272 46.3866 171.048 46.3866 170.824C46.3866 170.472 46.296 170.173 46.1146 169.928C45.9333 169.683 45.6666 169.512 45.3146 169.416C45.1226 169.373 44.9786 169.352 44.8826 169.352C44.4986 169.352 44.1733 169.491 43.9066 169.768C43.6506 170.035 43.5226 170.392 43.5226 170.84ZM54.1445 170.84C54.1445 171.245 54.2458 171.603 54.4485 171.912C54.6618 172.221 54.9178 172.483 55.2165 172.696C55.5152 172.909 55.9205 173.16 56.4325 173.448C57.1258 173.843 57.6538 174.2 58.0165 174.52C58.3898 174.84 58.6352 175.24 58.7525 175.72C58.7952 175.933 58.8165 176.088 58.8165 176.184C58.8165 176.931 58.4218 177.469 57.6325 177.8C56.8432 178.12 55.9472 178.28 54.9445 178.28C54.5498 178.28 54.2032 178.253 53.9045 178.2C53.5525 178.136 53.1845 178.013 52.8005 177.832C52.4272 177.64 52.1125 177.411 51.8565 177.144C51.6112 176.867 51.4885 176.584 51.4885 176.296C51.4885 175.848 51.8352 175.437 52.5285 175.064C52.7205 174.968 52.9072 174.92 53.0885 174.92C53.2592 174.92 53.3978 174.957 53.5045 175.032C53.6218 175.107 53.6805 175.197 53.6805 175.304C53.6805 175.496 53.5258 175.683 53.2165 175.864C53.1525 175.896 53.1205 175.944 53.1205 176.008C53.1205 176.136 53.2218 176.291 53.4245 176.472C53.6272 176.653 53.7872 176.776 53.9045 176.84C54.2245 177.021 54.7365 177.133 55.4405 177.176C55.5258 177.187 55.6752 177.192 55.8885 177.192C56.2725 177.192 56.5818 177.128 56.8165 177C57.0512 176.872 57.1525 176.637 57.1205 176.296C57.0778 175.837 56.6138 175.32 55.7285 174.744L55.1205 174.36C54.5658 174.019 54.1072 173.72 53.7445 173.464C53.3925 173.197 53.0885 172.883 52.8325 172.52C52.5765 172.147 52.4485 171.731 52.4485 171.272C52.4485 170.984 52.5018 170.696 52.6085 170.408C52.8432 169.715 53.2805 169.181 53.9205 168.808C54.5605 168.424 55.2485 168.232 55.9845 168.232C56.7418 168.232 57.3765 168.424 57.8885 168.808C58.4112 169.192 58.6725 169.736 58.6725 170.44C58.6725 170.664 58.6405 170.904 58.5765 171.16C58.5338 171.352 58.3738 171.517 58.0965 171.656C57.8192 171.795 57.5578 171.864 57.3125 171.864C57.1632 171.864 57.0458 171.832 56.9605 171.768C56.8858 171.704 56.8698 171.613 56.9125 171.496C56.9765 171.272 57.0085 171.048 57.0085 170.824C57.0085 170.472 56.9178 170.173 56.7365 169.928C56.5552 169.683 56.2885 169.512 55.9365 169.416C55.7445 169.373 55.6005 169.352 55.5045 169.352C55.1205 169.352 54.7952 169.491 54.5285 169.768C54.2725 170.035 54.1445 170.392 54.1445 170.84ZM68.6309 172.824C68.6309 171.693 67.9695 170.803 66.6469 170.152C66.3162 170.429 65.9855 170.797 65.6549 171.256C65.2495 171.843 64.9135 172.499 64.6469 173.224C64.5402 173.512 64.4389 173.907 64.3429 174.408C64.2469 174.899 64.1989 175.357 64.1989 175.784C64.1989 176.221 64.2575 176.573 64.3749 176.84C64.5029 177.096 64.7055 177.224 64.9829 177.224C65.2069 177.224 65.4682 177.133 65.7669 176.952C66.5882 176.472 67.2709 175.875 67.8149 175.16C68.3589 174.445 68.6309 173.667 68.6309 172.824ZM69.0789 169.928C69.4629 170.291 69.7562 170.701 69.9589 171.16C70.1722 171.619 70.2789 172.104 70.2789 172.616C70.2789 173.352 70.0655 174.099 69.6389 174.856C69.3509 175.368 68.9295 175.907 68.3749 176.472C67.8202 177.037 67.2015 177.517 66.5189 177.912C65.8469 178.296 65.2015 178.488 64.5829 178.488C64.1989 178.488 63.8362 178.403 63.4949 178.232C62.7695 177.837 62.4069 177.128 62.4069 176.104C62.4069 175.368 62.5722 174.563 62.9029 173.688C63.2335 172.803 63.5855 172.056 63.9589 171.448C64.8655 170.008 65.8202 169.101 66.8229 168.728C67.1002 168.621 67.3989 168.568 67.7189 168.568C68.0922 168.568 68.4069 168.664 68.6629 168.856C68.9189 169.037 69.0682 169.325 69.1109 169.72V169.784C69.1109 169.816 69.1002 169.864 69.0789 169.928ZM74.644 165.592C74.6653 165.389 74.804 165.219 75.06 165.08C75.3267 164.931 75.588 164.856 75.844 164.856C76.004 164.856 76.1267 164.888 76.212 164.952C76.2973 165.016 76.3347 165.117 76.324 165.256C76.0147 168.04 75.6947 170.824 75.364 173.608L74.884 177.784C74.8627 177.987 74.7187 178.163 74.452 178.312C74.1853 178.461 73.9187 178.536 73.652 178.536C73.2893 178.536 73.124 178.397 73.156 178.12L73.908 171.848C74.2493 168.904 74.4947 166.819 74.644 165.592Z" fill="#999999"/>
<path d="M706.384 264.688C706.459 264.731 706.496 264.789 706.496 264.864C706.496 265.013 706.357 265.168 706.08 265.328C705.803 265.477 705.536 265.552 705.28 265.552C705.131 265.552 705.024 265.525 704.96 265.472C704.907 265.429 704.752 265.317 704.496 265.136C704.251 264.944 704 264.784 703.744 264.656C703.488 264.528 703.264 264.464 703.072 264.464C702.901 264.464 702.72 264.528 702.528 264.656C702.347 264.773 702.171 264.907 702 265.056C701.829 265.195 701.707 265.296 701.632 265.36C701.493 265.467 701.317 265.557 701.104 265.632C700.901 265.707 700.715 265.744 700.544 265.744C700.395 265.744 700.277 265.717 700.192 265.664C700.117 265.611 700.096 265.525 700.128 265.408L700.576 263.488C701.483 259.552 702.277 256.213 702.96 253.472C703.003 253.291 703.157 253.136 703.424 253.008C703.701 252.869 703.968 252.8 704.224 252.8C704.363 252.8 704.469 252.827 704.544 252.88C704.619 252.933 704.64 253.013 704.608 253.12C704.288 254.475 703.819 256.507 703.2 259.216L702.144 263.776C702.507 263.595 702.853 263.483 703.184 263.44C703.355 263.419 703.477 263.408 703.552 263.408C704.021 263.408 704.469 263.52 704.896 263.744C705.333 263.957 705.829 264.272 706.384 264.688ZM711.867 263.024C711.846 263.152 711.835 263.243 711.835 263.296C711.835 263.723 712.043 263.936 712.459 263.936C712.705 263.936 713.003 263.867 713.355 263.728C713.675 263.6 714.267 263.328 715.131 262.912C715.153 262.645 715.174 262.389 715.195 262.144C715.227 261.888 715.254 261.659 715.275 261.456L715.387 260.352C714.651 260.704 714.102 260.981 713.739 261.184C713.206 261.493 712.779 261.787 712.459 262.064C712.139 262.331 711.942 262.651 711.867 263.024ZM716.027 255.488C716.507 255.488 716.827 255.611 716.987 255.856C717.158 256.091 717.243 256.437 717.243 256.896L717.227 257.344C717.185 258.123 717.089 259.264 716.939 260.768C716.907 260.981 716.87 261.339 716.827 261.84C716.785 262.149 716.747 262.4 716.715 262.592C716.833 262.656 716.891 262.741 716.891 262.848C716.891 262.923 716.854 263.035 716.779 263.184L716.715 263.264L716.619 263.36C716.545 263.904 716.507 264.368 716.507 264.752C716.657 264.837 716.731 264.939 716.731 265.056C716.731 265.237 716.598 265.429 716.331 265.632C716.257 265.685 716.171 265.739 716.075 265.792C716.001 265.835 715.894 265.872 715.755 265.904C715.627 265.936 715.499 265.952 715.371 265.952C714.977 265.952 714.795 265.808 714.827 265.52L714.955 264.176C713.526 264.859 712.427 265.2 711.659 265.2C710.689 265.2 710.203 264.677 710.203 263.632C710.203 262.629 710.721 261.776 711.755 261.072C712.801 260.368 714.049 259.733 715.499 259.168C715.542 258.752 715.574 258.331 715.595 257.904C715.595 257.819 715.601 257.712 715.611 257.584C715.622 257.456 715.627 257.312 715.627 257.152C715.627 256.949 715.611 256.816 715.579 256.752L715.531 256.688H715.515C715.355 256.688 715.057 256.907 714.619 257.344C714.225 257.728 713.734 258.304 713.147 259.072C713.062 259.189 712.918 259.285 712.715 259.36C712.523 259.435 712.326 259.472 712.123 259.472C711.974 259.472 711.846 259.445 711.739 259.392C711.643 259.339 711.595 259.259 711.595 259.152C711.595 259.067 711.638 258.955 711.723 258.816C713.195 256.597 714.63 255.488 716.027 255.488ZM725.623 255.44C725.932 255.312 726.215 255.248 726.471 255.248C726.748 255.248 726.972 255.323 727.143 255.472C727.313 255.611 727.399 255.84 727.399 256.16C727.399 256.469 727.351 256.805 727.255 257.168C727.159 257.531 727.025 257.957 726.855 258.448L726.631 259.12C726.567 259.323 726.401 259.493 726.135 259.632C725.868 259.771 725.612 259.84 725.367 259.84C725.207 259.84 725.084 259.808 724.999 259.744C724.924 259.669 724.908 259.563 724.951 259.424C725.143 258.827 725.335 258.165 725.527 257.44C725.569 257.109 725.601 256.891 725.623 256.784L725.559 256.848C724.737 257.552 723.985 258.437 723.303 259.504C722.993 261.2 722.801 262.901 722.727 264.608C722.716 264.811 722.577 264.992 722.311 265.152C722.055 265.301 721.788 265.376 721.511 265.376C721.351 265.376 721.217 265.339 721.111 265.264C721.004 265.189 720.956 265.077 720.967 264.928C721.052 263.392 721.217 261.899 721.463 260.448C721.356 260.373 721.303 260.288 721.303 260.192C721.303 260.128 721.324 260.059 721.367 259.984L721.607 259.584C721.841 258.357 722.129 257.125 722.471 255.888C722.524 255.696 722.689 255.531 722.967 255.392C723.255 255.243 723.527 255.168 723.783 255.168C723.943 255.168 724.065 255.2 724.151 255.264C724.236 255.328 724.257 255.424 724.215 255.552C724.044 256.149 723.937 256.544 723.895 256.736C724.535 256.096 725.111 255.664 725.623 255.44ZM736.777 255.648C737.203 255.883 737.417 256.379 737.417 257.136C737.417 257.413 737.39 257.723 737.337 258.064C737.283 258.395 737.225 258.709 737.161 259.008L737.049 259.648L736.377 264.624C736.59 264.677 736.681 264.811 736.649 265.024C736.531 265.611 736.115 265.984 735.401 266.144L735.241 266.16C735.059 266.16 734.899 266.123 734.761 266.048C734.622 265.973 734.563 265.856 734.585 265.696C735.033 262.453 735.363 260.021 735.577 258.4C735.587 258.357 735.609 258.235 735.641 258.032C735.683 257.829 735.705 257.637 735.705 257.456C735.705 257.115 735.614 256.939 735.433 256.928C735.294 256.907 735.065 257.099 734.745 257.504C734.435 257.899 734.265 258.117 734.233 258.16C733.593 258.885 732.995 259.696 732.441 260.592C732.185 262.149 731.982 263.408 731.833 264.368L731.753 264.88C731.721 265.083 731.571 265.259 731.305 265.408C731.038 265.557 730.777 265.632 730.521 265.632C730.361 265.632 730.233 265.6 730.137 265.536C730.051 265.461 730.019 265.355 730.041 265.216C730.318 263.584 730.537 262.251 730.697 261.216C730.633 261.152 730.601 261.077 730.601 260.992C730.601 260.939 730.617 260.88 730.649 260.816C730.681 260.763 730.707 260.715 730.729 260.672C730.761 260.629 730.787 260.592 730.809 260.56L731.449 256.688C731.481 256.496 731.625 256.331 731.881 256.192C732.137 256.053 732.393 255.984 732.649 255.984C732.809 255.984 732.931 256.016 733.017 256.08C733.102 256.144 733.134 256.24 733.113 256.368C733.059 256.72 732.985 257.173 732.889 257.728L733.561 257.008C734.009 256.56 734.435 256.192 734.841 255.904C735.246 255.616 735.657 255.472 736.073 255.472C736.339 255.472 736.574 255.531 736.777 255.648ZM742.483 263.024C742.462 263.152 742.451 263.243 742.451 263.296C742.451 263.723 742.659 263.936 743.075 263.936C743.32 263.936 743.619 263.867 743.971 263.728C744.291 263.6 744.883 263.328 745.747 262.912C745.768 262.645 745.79 262.389 745.811 262.144C745.843 261.888 745.87 261.659 745.891 261.456L746.003 260.352C745.267 260.704 744.718 260.981 744.355 261.184C743.822 261.493 743.395 261.787 743.075 262.064C742.755 262.331 742.558 262.651 742.483 263.024ZM746.643 255.488C747.123 255.488 747.443 255.611 747.603 255.856C747.774 256.091 747.859 256.437 747.859 256.896L747.843 257.344C747.8 258.123 747.704 259.264 747.555 260.768C747.523 260.981 747.486 261.339 747.443 261.84C747.4 262.149 747.363 262.4 747.331 262.592C747.448 262.656 747.507 262.741 747.507 262.848C747.507 262.923 747.47 263.035 747.395 263.184L747.331 263.264L747.235 263.36C747.16 263.904 747.123 264.368 747.123 264.752C747.272 264.837 747.347 264.939 747.347 265.056C747.347 265.237 747.214 265.429 746.947 265.632C746.872 265.685 746.787 265.739 746.691 265.792C746.616 265.835 746.51 265.872 746.371 265.904C746.243 265.936 746.115 265.952 745.987 265.952C745.592 265.952 745.411 265.808 745.443 265.52L745.571 264.176C744.142 264.859 743.043 265.2 742.275 265.2C741.304 265.2 740.819 264.677 740.819 263.632C740.819 262.629 741.336 261.776 742.371 261.072C743.416 260.368 744.664 259.733 746.115 259.168C746.158 258.752 746.19 258.331 746.211 257.904C746.211 257.819 746.216 257.712 746.227 257.584C746.238 257.456 746.243 257.312 746.243 257.152C746.243 256.949 746.227 256.816 746.195 256.752L746.147 256.688H746.131C745.971 256.688 745.672 256.907 745.235 257.344C744.84 257.728 744.35 258.304 743.763 259.072C743.678 259.189 743.534 259.285 743.331 259.36C743.139 259.435 742.942 259.472 742.739 259.472C742.59 259.472 742.462 259.445 742.355 259.392C742.259 259.339 742.211 259.259 742.211 259.152C742.211 259.067 742.254 258.955 742.339 258.816C743.811 256.597 745.246 255.488 746.643 255.488ZM757.71 254.976C757.764 254.827 757.902 254.699 758.126 254.592C758.35 254.475 758.574 254.416 758.798 254.416C759.118 254.416 759.278 254.528 759.278 254.752C759.278 254.784 759.268 254.843 759.246 254.928C758.788 256.485 758.382 257.675 758.03 258.496C757.966 258.656 757.817 258.795 757.582 258.912C757.358 259.019 757.134 259.072 756.91 259.072C756.644 259.072 756.489 258.981 756.446 258.8C756.254 257.947 755.956 257.52 755.55 257.52C755.358 257.52 755.145 257.621 754.91 257.824C754.398 258.293 753.993 258.928 753.694 259.728C753.406 260.528 753.262 261.291 753.262 262.016C753.262 262.549 753.353 263.029 753.534 263.456C753.716 263.872 754.02 264.133 754.446 264.24C754.51 264.261 754.612 264.272 754.75 264.272C755.102 264.272 755.449 264.144 755.79 263.888C756.142 263.621 756.43 263.349 756.654 263.072C756.878 262.784 757.166 262.395 757.518 261.904C757.604 261.787 757.737 261.696 757.918 261.632C758.1 261.557 758.281 261.52 758.462 261.52C758.633 261.52 758.766 261.552 758.862 261.616C758.969 261.669 759.022 261.755 759.022 261.872C759.022 261.979 758.985 262.091 758.91 262.208C758.345 263.093 757.657 263.861 756.846 264.512C756.036 265.152 755.182 265.472 754.286 265.472C754.105 265.472 753.924 265.456 753.742 265.424C753.028 265.307 752.494 264.96 752.142 264.384C751.79 263.797 751.614 263.12 751.614 262.352C751.614 262.075 751.641 261.776 751.694 261.456C751.865 260.432 752.206 259.477 752.718 258.592C753.23 257.696 753.902 257.04 754.734 256.624C755.15 256.421 755.566 256.32 755.982 256.32C756.377 256.32 756.74 256.427 757.07 256.64L757.71 254.976ZM764.024 263.024C764.002 263.152 763.992 263.243 763.992 263.296C763.992 263.723 764.2 263.936 764.616 263.936C764.861 263.936 765.16 263.867 765.512 263.728C765.832 263.6 766.424 263.328 767.288 262.912C767.309 262.645 767.33 262.389 767.352 262.144C767.384 261.888 767.41 261.659 767.432 261.456L767.544 260.352C766.808 260.704 766.258 260.981 765.896 261.184C765.362 261.493 764.936 261.787 764.616 262.064C764.296 262.331 764.098 262.651 764.024 263.024ZM768.184 255.488C768.664 255.488 768.984 255.611 769.144 255.856C769.314 256.091 769.4 256.437 769.4 256.896L769.384 257.344C769.341 258.123 769.245 259.264 769.096 260.768C769.064 260.981 769.026 261.339 768.984 261.84C768.941 262.149 768.904 262.4 768.872 262.592C768.989 262.656 769.048 262.741 769.048 262.848C769.048 262.923 769.01 263.035 768.936 263.184L768.872 263.264L768.776 263.36C768.701 263.904 768.664 264.368 768.664 264.752C768.813 264.837 768.888 264.939 768.888 265.056C768.888 265.237 768.754 265.429 768.488 265.632C768.413 265.685 768.328 265.739 768.232 265.792C768.157 265.835 768.05 265.872 767.912 265.904C767.784 265.936 767.656 265.952 767.528 265.952C767.133 265.952 766.952 265.808 766.984 265.52L767.112 264.176C765.682 264.859 764.584 265.2 763.816 265.2C762.845 265.2 762.36 264.677 762.36 263.632C762.36 262.629 762.877 261.776 763.912 261.072C764.957 260.368 766.205 259.733 767.656 259.168C767.698 258.752 767.73 258.331 767.752 257.904C767.752 257.819 767.757 257.712 767.768 257.584C767.778 257.456 767.784 257.312 767.784 257.152C767.784 256.949 767.768 256.816 767.736 256.752L767.688 256.688H767.672C767.512 256.688 767.213 256.907 766.776 257.344C766.381 257.728 765.89 258.304 765.304 259.072C765.218 259.189 765.074 259.285 764.872 259.36C764.68 259.435 764.482 259.472 764.28 259.472C764.13 259.472 764.002 259.445 763.896 259.392C763.8 259.339 763.752 259.259 763.752 259.152C763.752 259.067 763.794 258.955 763.88 258.816C765.352 256.597 766.786 255.488 768.184 255.488Z" fill="#999999"/>
<path d="M495.392 562.928C495.627 562.939 495.744 563.013 495.744 563.152C495.744 563.312 495.616 563.493 495.36 563.696C495.115 563.888 494.896 563.984 494.704 563.984C493.787 563.984 492.768 564.011 491.648 564.064C490.741 567.701 490.112 571.072 489.76 574.176C489.909 574.187 490.032 574.224 490.128 574.288C490.235 574.341 490.288 574.416 490.288 574.512C490.288 574.64 490.192 574.779 490 574.928L489.376 575.408C489.301 575.483 489.157 575.552 488.944 575.616C488.741 575.68 488.549 575.712 488.368 575.712C488.037 575.712 487.888 575.579 487.92 575.312C488.293 571.803 488.976 568.112 489.968 564.24L489.952 564.176C488.736 564.283 487.6 564.4 486.544 564.528C486.384 564.549 486.256 564.528 486.16 564.464C486.064 564.389 486.021 564.277 486.032 564.128C486.043 563.979 486.133 563.856 486.304 563.76C486.485 563.664 486.677 563.589 486.88 563.536C487.904 563.237 489.045 563.035 490.304 562.928L490.4 562.656C490.443 562.507 490.592 562.379 490.848 562.272C491.104 562.155 491.355 562.096 491.6 562.096C491.76 562.096 491.883 562.128 491.968 562.192C492.064 562.256 492.096 562.347 492.064 562.464L491.968 562.832L492.72 562.816C493.499 562.816 494.389 562.853 495.392 562.928ZM501.016 565.44C501.326 565.312 501.608 565.248 501.864 565.248C502.142 565.248 502.366 565.323 502.536 565.472C502.707 565.611 502.792 565.84 502.792 566.16C502.792 566.469 502.744 566.805 502.648 567.168C502.552 567.531 502.419 567.957 502.248 568.448L502.024 569.12C501.96 569.323 501.795 569.493 501.528 569.632C501.262 569.771 501.006 569.84 500.76 569.84C500.6 569.84 500.478 569.808 500.392 569.744C500.318 569.669 500.302 569.563 500.344 569.424C500.536 568.827 500.728 568.165 500.92 567.44C500.963 567.109 500.995 566.891 501.016 566.784L500.952 566.848C500.131 567.552 499.379 568.437 498.696 569.504C498.387 571.2 498.195 572.901 498.12 574.608C498.11 574.811 497.971 574.992 497.704 575.152C497.448 575.301 497.182 575.376 496.904 575.376C496.744 575.376 496.611 575.339 496.504 575.264C496.398 575.189 496.35 575.077 496.36 574.928C496.446 573.392 496.611 571.899 496.856 570.448C496.75 570.373 496.696 570.288 496.696 570.192C496.696 570.128 496.718 570.059 496.76 569.984L497 569.584C497.235 568.357 497.523 567.125 497.864 565.888C497.918 565.696 498.083 565.531 498.36 565.392C498.648 565.243 498.92 565.168 499.176 565.168C499.336 565.168 499.459 565.2 499.544 565.264C499.63 565.328 499.651 565.424 499.608 565.552C499.438 566.149 499.331 566.544 499.288 566.736C499.928 566.096 500.504 565.664 501.016 565.44ZM510.893 569.824C510.893 568.693 510.232 567.803 508.909 567.152C508.579 567.429 508.248 567.797 507.917 568.256C507.512 568.843 507.176 569.499 506.909 570.224C506.803 570.512 506.701 570.907 506.605 571.408C506.509 571.899 506.461 572.357 506.461 572.784C506.461 573.221 506.52 573.573 506.637 573.84C506.765 574.096 506.968 574.224 507.245 574.224C507.469 574.224 507.731 574.133 508.029 573.952C508.851 573.472 509.533 572.875 510.077 572.16C510.621 571.445 510.893 570.667 510.893 569.824ZM511.341 566.928C511.725 567.291 512.019 567.701 512.221 568.16C512.435 568.619 512.541 569.104 512.541 569.616C512.541 570.352 512.328 571.099 511.901 571.856C511.613 572.368 511.192 572.907 510.637 573.472C510.083 574.037 509.464 574.517 508.781 574.912C508.109 575.296 507.464 575.488 506.845 575.488C506.461 575.488 506.099 575.403 505.757 575.232C505.032 574.837 504.669 574.128 504.669 573.104C504.669 572.368 504.835 571.563 505.165 570.688C505.496 569.803 505.848 569.056 506.221 568.448C507.128 567.008 508.083 566.101 509.085 565.728C509.363 565.621 509.661 565.568 509.981 565.568C510.355 565.568 510.669 565.664 510.925 565.856C511.181 566.037 511.331 566.325 511.373 566.72V566.784C511.373 566.816 511.363 566.864 511.341 566.928ZM522.172 569.824C522.172 568.693 521.51 567.803 520.188 567.152C519.857 567.429 519.526 567.797 519.196 568.256C518.79 568.843 518.454 569.499 518.188 570.224C518.081 570.512 517.98 570.907 517.884 571.408C517.788 571.899 517.74 572.357 517.74 572.784C517.74 573.221 517.798 573.573 517.916 573.84C518.044 574.096 518.246 574.224 518.524 574.224C518.748 574.224 519.009 574.133 519.308 573.952C520.129 573.472 520.812 572.875 521.356 572.16C521.9 571.445 522.172 570.667 522.172 569.824ZM522.62 566.928C523.004 567.291 523.297 567.701 523.5 568.16C523.713 568.619 523.82 569.104 523.82 569.616C523.82 570.352 523.606 571.099 523.18 571.856C522.892 572.368 522.47 572.907 521.916 573.472C521.361 574.037 520.742 574.517 520.06 574.912C519.388 575.296 518.742 575.488 518.124 575.488C517.74 575.488 517.377 575.403 517.036 575.232C516.31 574.837 515.948 574.128 515.948 573.104C515.948 572.368 516.113 571.563 516.444 570.688C516.774 569.803 517.126 569.056 517.5 568.448C518.406 567.008 519.361 566.101 520.364 565.728C520.641 565.621 520.94 565.568 521.26 565.568C521.633 565.568 521.948 565.664 522.204 565.856C522.46 566.037 522.609 566.325 522.652 566.72V566.784C522.652 566.816 522.641 566.864 522.62 566.928ZM529.041 574.032C529.244 574.192 529.505 574.272 529.825 574.272C530.198 574.272 530.673 574.149 531.249 573.904C531.59 571.931 531.857 569.989 532.049 568.08H532.017C531.441 568.08 530.913 568.277 530.433 568.672C529.953 569.067 529.553 569.557 529.233 570.144C528.924 570.731 528.71 571.312 528.593 571.888C528.54 572.155 528.513 572.416 528.513 572.672C528.513 573.301 528.689 573.755 529.041 574.032ZM532.433 563.008C532.444 562.816 532.577 562.651 532.833 562.512C533.089 562.363 533.35 562.288 533.617 562.288C533.948 562.288 534.108 562.411 534.097 562.656C533.916 566.176 533.532 569.808 532.945 573.552C533.116 573.637 533.201 573.749 533.201 573.888C533.201 574.048 533.073 574.203 532.817 574.352L532.721 574.944C532.678 575.147 532.524 575.323 532.257 575.472C532.001 575.611 531.745 575.68 531.489 575.68C531.329 575.68 531.201 575.648 531.105 575.584C531.009 575.509 530.977 575.403 531.009 575.264C531.009 575.211 531.014 575.173 531.025 575.152C530.342 575.365 529.777 575.472 529.329 575.472C528.838 575.472 528.396 575.365 528.001 575.152C527.606 574.949 527.318 574.656 527.137 574.272C526.956 573.888 526.865 573.456 526.865 572.976C526.865 572.805 526.886 572.571 526.929 572.272C527.078 571.408 527.398 570.576 527.889 569.776C528.38 568.976 528.998 568.32 529.745 567.808C530.492 567.296 531.297 567.024 532.161 566.992C532.289 565.531 532.38 564.203 532.433 563.008ZM543.525 569.824C543.525 568.693 542.863 567.803 541.541 567.152C541.21 567.429 540.879 567.797 540.549 568.256C540.143 568.843 539.807 569.499 539.541 570.224C539.434 570.512 539.333 570.907 539.237 571.408C539.141 571.899 539.093 572.357 539.093 572.784C539.093 573.221 539.151 573.573 539.269 573.84C539.397 574.096 539.599 574.224 539.877 574.224C540.101 574.224 540.362 574.133 540.661 573.952C541.482 573.472 542.165 572.875 542.709 572.16C543.253 571.445 543.525 570.667 543.525 569.824ZM543.973 566.928C544.357 567.291 544.65 567.701 544.853 568.16C545.066 568.619 545.173 569.104 545.173 569.616C545.173 570.352 544.959 571.099 544.533 571.856C544.245 572.368 543.823 572.907 543.269 573.472C542.714 574.037 542.095 574.517 541.413 574.912C540.741 575.296 540.095 575.488 539.477 575.488C539.093 575.488 538.73 575.403 538.389 575.232C537.663 574.837 537.301 574.128 537.301 573.104C537.301 572.368 537.466 571.563 537.797 570.688C538.127 569.803 538.479 569.056 538.853 568.448C539.759 567.008 540.714 566.101 541.717 565.728C541.994 565.621 542.293 565.568 542.613 565.568C542.986 565.568 543.301 565.664 543.557 565.856C543.813 566.037 543.962 566.325 544.005 566.72V566.784C544.005 566.816 543.994 566.864 543.973 566.928ZM550.626 567.84C550.626 568.245 550.727 568.603 550.93 568.912C551.143 569.221 551.399 569.483 551.698 569.696C551.996 569.909 552.402 570.16 552.914 570.448C553.607 570.843 554.135 571.2 554.498 571.52C554.871 571.84 555.116 572.24 555.234 572.72C555.276 572.933 555.298 573.088 555.298 573.184C555.298 573.931 554.903 574.469 554.114 574.8C553.324 575.12 552.428 575.28 551.426 575.28C551.031 575.28 550.684 575.253 550.386 575.2C550.034 575.136 549.666 575.013 549.282 574.832C548.908 574.64 548.594 574.411 548.338 574.144C548.092 573.867 547.97 573.584 547.97 573.296C547.97 572.848 548.316 572.437 549.01 572.064C549.202 571.968 549.388 571.92 549.57 571.92C549.74 571.92 549.879 571.957 549.986 572.032C550.103 572.107 550.162 572.197 550.162 572.304C550.162 572.496 550.007 572.683 549.698 572.864C549.634 572.896 549.602 572.944 549.602 573.008C549.602 573.136 549.703 573.291 549.906 573.472C550.108 573.653 550.268 573.776 550.386 573.84C550.706 574.021 551.218 574.133 551.922 574.176C552.007 574.187 552.156 574.192 552.37 574.192C552.754 574.192 553.063 574.128 553.298 574C553.532 573.872 553.634 573.637 553.602 573.296C553.559 572.837 553.095 572.32 552.21 571.744L551.602 571.36C551.047 571.019 550.588 570.72 550.226 570.464C549.874 570.197 549.57 569.883 549.314 569.52C549.058 569.147 548.93 568.731 548.93 568.272C548.93 567.984 548.983 567.696 549.09 567.408C549.324 566.715 549.762 566.181 550.402 565.808C551.042 565.424 551.73 565.232 552.466 565.232C553.223 565.232 553.858 565.424 554.37 565.808C554.892 566.192 555.154 566.736 555.154 567.44C555.154 567.664 555.122 567.904 555.058 568.16C555.015 568.352 554.855 568.517 554.578 568.656C554.3 568.795 554.039 568.864 553.794 568.864C553.644 568.864 553.527 568.832 553.442 568.768C553.367 568.704 553.351 568.613 553.394 568.496C553.458 568.272 553.49 568.048 553.49 567.824C553.49 567.472 553.399 567.173 553.218 566.928C553.036 566.683 552.77 566.512 552.418 566.416C552.226 566.373 552.082 566.352 551.986 566.352C551.602 566.352 551.276 566.491 551.01 566.768C550.754 567.035 550.626 567.392 550.626 567.84Z" fill="#999999"/>
<g filter="url(#filter0_i_1_86)">
<path d="M480.5 25.8194C480.5 25.8194 488.714 15.9011 488.714 11.429C488.714 6.9569 485.037 3.33154 480.5 3.33154C475.963 3.33154 472.286 6.9569 472.286 11.429C472.286 15.9011 480.5 25.8194 480.5 25.8194ZM483.016 27.9618L480.5 31L477.984 27.9618C477.909 27.8715 477.778 27.7107 477.598 27.487C477.304 27.1204 476.978 26.7059 476.627 26.2505C475.625 24.9498 474.623 23.5761 473.682 22.1845C473.004 21.1803 472.381 20.2017 471.827 19.2574C470.024 16.1866 469 13.6561 469 11.429C469 5.09562 474.169 0 480.5 0C486.831 0 492 5.09562 492 11.429C492 13.6561 490.976 16.1866 489.173 19.2574C488.619 20.2017 487.996 21.1803 487.318 22.1845C486.377 23.5761 485.375 24.9498 484.373 26.2505C484.022 26.7059 483.696 27.1204 483.402 27.487C483.222 27.7107 483.091 27.8715 483.016 27.9618ZM480.5 6.52632C483.222 6.52632 485.429 8.71776 485.429 11.4211C485.429 14.1243 483.222 16.3158 480.5 16.3158C477.778 16.3158 475.571 14.1243 475.571 11.4211C475.571 8.71776 477.778 6.52632 480.5 6.52632ZM480.5 9.78947C479.593 9.78947 478.857 10.52 478.857 11.4211C478.857 12.3221 479.593 13.0526 480.5 13.0526C481.407 13.0526 482.143 12.3221 482.143 11.4211C482.143 10.52 481.407 9.78947 480.5 9.78947Z" fill="#F87932" fill-opacity="0.8"/>
</g>
<g filter="url(#filter1_i_1_86)">
<path d="M184.5 617.819C184.5 617.819 192.714 607.901 192.714 603.429C192.714 598.957 189.037 595.332 184.5 595.332C179.963 595.332 176.286 598.957 176.286 603.429C176.286 607.901 184.5 617.819 184.5 617.819ZM187.016 619.962L184.5 623L181.984 619.962C181.909 619.871 181.778 619.711 181.598 619.487C181.304 619.12 180.978 618.706 180.627 618.251C179.625 616.95 178.623 615.576 177.682 614.184C177.004 613.18 176.381 612.202 175.827 611.257C174.024 608.187 173 605.656 173 603.429C173 597.096 178.169 592 184.5 592C190.831 592 196 597.096 196 603.429C196 605.656 194.976 608.187 193.173 611.257C192.619 612.202 191.996 613.18 191.318 614.184C190.377 615.576 189.375 616.95 188.373 618.251C188.022 618.706 187.696 619.12 187.402 619.487C187.222 619.711 187.091 619.871 187.016 619.962ZM184.5 598.526C187.222 598.526 189.429 600.718 189.429 603.421C189.429 606.124 187.222 608.316 184.5 608.316C181.778 608.316 179.571 606.124 179.571 603.421C179.571 600.718 181.778 598.526 184.5 598.526ZM184.5 601.789C183.593 601.789 182.857 602.52 182.857 603.421C182.857 604.322 183.593 605.053 184.5 605.053C185.407 605.053 186.143 604.322 186.143 603.421C186.143 602.52 185.407 601.789 184.5 601.789Z" fill="#F87932" fill-opacity="0.8"/>
</g>
<g filter="url(#filter2_i_1_86)">
<path d="M112.5 189.819C112.5 189.819 120.714 179.901 120.714 175.429C120.714 170.957 117.037 167.332 112.5 167.332C107.963 167.332 104.286 170.957 104.286 175.429C104.286 179.901 112.5 189.819 112.5 189.819ZM115.016 191.962L112.5 195L109.984 191.962C109.909 191.871 109.778 191.711 109.598 191.487C109.304 191.12 108.978 190.706 108.627 190.251C107.625 188.95 106.623 187.576 105.682 186.184C105.004 185.18 104.381 184.202 103.827 183.257C102.024 180.187 101 177.656 101 175.429C101 169.096 106.169 164 112.5 164C118.831 164 124 169.096 124 175.429C124 177.656 122.976 180.187 121.173 183.257C120.619 184.202 119.996 185.18 119.318 186.184C118.377 187.576 117.375 188.95 116.373 190.251C116.022 190.706 115.696 191.12 115.402 191.487C115.222 191.711 115.091 191.871 115.016 191.962ZM112.5 170.526C115.222 170.526 117.429 172.718 117.429 175.421C117.429 178.124 115.222 180.316 112.5 180.316C109.778 180.316 107.571 178.124 107.571 175.421C107.571 172.718 109.778 170.526 112.5 170.526ZM112.5 173.789C111.593 173.789 110.857 174.52 110.857 175.421C110.857 176.322 111.593 177.053 112.5 177.053C113.407 177.053 114.143 176.322 114.143 175.421C114.143 174.52 113.407 173.789 112.5 173.789Z" fill="#39BFA7" fill-opacity="0.8"/>
</g>
<g filter="url(#filter3_i_1_86)">
<path d="M664.5 276.819C664.5 276.819 672.714 266.901 672.714 262.429C672.714 257.957 669.037 254.332 664.5 254.332C659.963 254.332 656.286 257.957 656.286 262.429C656.286 266.901 664.5 276.819 664.5 276.819ZM667.016 278.962L664.5 282L661.984 278.962C661.909 278.871 661.778 278.711 661.598 278.487C661.304 278.12 660.978 277.706 660.627 277.251C659.625 275.95 658.623 274.576 657.682 273.184C657.004 272.18 656.381 271.202 655.827 270.257C654.024 267.187 653 264.656 653 262.429C653 256.096 658.169 251 664.5 251C670.831 251 676 256.096 676 262.429C676 264.656 674.976 267.187 673.173 270.257C672.619 271.202 671.996 272.18 671.318 273.184C670.377 274.576 669.375 275.95 668.373 277.251C668.022 277.706 667.696 278.12 667.402 278.487C667.222 278.711 667.091 278.871 667.016 278.962ZM664.5 257.526C667.222 257.526 669.429 259.718 669.429 262.421C669.429 265.124 667.222 267.316 664.5 267.316C661.778 267.316 659.571 265.124 659.571 262.421C659.571 259.718 661.778 257.526 664.5 257.526ZM664.5 260.789C663.593 260.789 662.857 261.52 662.857 262.421C662.857 263.322 663.593 264.053 664.5 264.053C665.407 264.053 666.143 263.322 666.143 262.421C666.143 261.52 665.407 260.789 664.5 260.789Z" fill="#39BFA7" fill-opacity="0.8"/>
</g>
<g filter="url(#filter4_i_1_86)">
<path d="M591.5 586.819C591.5 586.819 599.714 576.901 599.714 572.429C599.714 567.957 596.037 564.332 591.5 564.332C586.963 564.332 583.286 567.957 583.286 572.429C583.286 576.901 591.5 586.819 591.5 586.819ZM594.016 588.962L591.5 592L588.984 588.962C588.909 588.871 588.778 588.711 588.598 588.487C588.304 588.12 587.978 587.706 587.627 587.251C586.625 585.95 585.623 584.576 584.682 583.184C584.004 582.18 583.381 581.202 582.827 580.257C581.024 577.187 580 574.656 580 572.429C580 566.096 585.169 561 591.5 561C597.831 561 603 566.096 603 572.429C603 574.656 601.976 577.187 600.173 580.257C599.619 581.202 598.996 582.18 598.318 583.184C597.377 584.576 596.375 585.95 595.373 587.251C595.022 587.706 594.696 588.12 594.402 588.487C594.222 588.711 594.091 588.871 594.016 588.962ZM591.5 567.526C594.222 567.526 596.429 569.718 596.429 572.421C596.429 575.124 594.222 577.316 591.5 577.316C588.778 577.316 586.571 575.124 586.571 572.421C586.571 569.718 588.778 567.526 591.5 567.526ZM591.5 570.789C590.593 570.789 589.857 571.52 589.857 572.421C589.857 573.322 590.593 574.053 591.5 574.053C592.407 574.053 593.143 573.322 593.143 572.421C593.143 571.52 592.407 570.789 591.5 570.789Z" fill="#39BFA7" fill-opacity="0.8"/>
</g>
<defs>
<filter id="filter0_i_1_86" x="469" y="0" width="23" height="33" filterUnits="userSpaceOnUse" color-interpolation-filters="sRGB">
<feFlood flood-opacity="0" result="BackgroundImageFix"/>
<feBlend mode="normal" in="SourceGraphic" in2="BackgroundImageFix" result="shape"/>
<feColorMatrix in="SourceAlpha" type="matrix" values="0 0 0 0 0 0 0 0 0 0 0 0 0 0 0 0 0 0 127 0" result="hardAlpha"/>
<feOffset dy="2"/>
<feGaussianBlur stdDeviation="2"/>
<feComposite in2="hardAlpha" operator="arithmetic" k2="-1" k3="1"/>
<feColorMatrix type="matrix" values="0 0 0 0 0.176993 0 0 0 0 0 0 0 0 0 0 0 0 0 0.4 0"/>
<feBlend mode="normal" in2="shape" result="effect1_innerShadow_1_86"/>
</filter>
<filter id="filter1_i_1_86" x="173" y="592" width="23" height="33" filterUnits="userSpaceOnUse" color-interpolation-filters="sRGB">
<feFlood flood-opacity="0" result="BackgroundImageFix"/>
<feBlend mode="normal" in="SourceGraphic" in2="BackgroundImageFix" result="shape"/>
<feColorMatrix in="SourceAlpha" type="matrix" values="0 0 0 0 0 0 0 0 0 0 0 0 0 0 0 0 0 0 127 0" result="hardAlpha"/>
<feOffset dy="2"/>
<feGaussianBlur stdDeviation="2"/>
<feComposite in2="hardAlpha" operator="arithmetic" k2="-1" k3="1"/>
<feColorMatrix type="matrix" values="0 0 0 0 0.176993 0 0 0 0 0 0 0 0 0 0 0 0 0 0.4 0"/>
<feBlend mode="normal" in2="shape" result="effect1_innerShadow_1_86"/>
</filter>
<filter id="filter2_i_1_86" x="101" y="164" width="23" height="33" filterUnits="userSpaceOnUse" color-interpolation-filters="sRGB">
<feFlood flood-opacity="0" result="BackgroundImageFix"/>
<feBlend mode="normal" in="SourceGraphic" in2="BackgroundImageFix" result="shape"/>
<feColorMatrix in="SourceAlpha" type="matrix" values="0 0 0 0 0 0 0 0 0 0 0 0 0 0 0 0 0 0 127 0" result="hardAlpha"/>
<feOffset dy="2"/>
<feGaussianBlur stdDeviation="2"/>
<feComposite in2="hardAlpha" operator="arithmetic" k2="-1" k3="1"/>
<feColorMatrix type="matrix" values="0 0 0 0 0.176993 0 0 0 0 0 0 0 0 0 0 0 0 0 0.4 0"/>
<feBlend mode="normal" in2="shape" result="effect1_innerShadow_1_86"/>
</filter>
<filter id="filter3_i_1_86" x="653" y="251" width="23" height="33" filterUnits="userSpaceOnUse" color-interpolation-filters="sRGB">
<feFlood flood-opacity="0" result="BackgroundImageFix"/>
<feBlend mode="normal" in="SourceGraphic" in2="BackgroundImageFix" result="shape"/>
<feColorMatrix in="SourceAlpha" type="matrix" values="0 0 0 0 0 0 0 0 0 0 0 0 0 0 0 0 0 0 127 0" result="hardAlpha"/>
<feOffset dy="2"/>
<feGaussianBlur stdDeviation="2"/>
<feComposite in2="hardAlpha" operator="arithmetic" k2="-1" k3="1"/>
<feColorMatrix type="matrix" values="0 0 0 0 0.176993 0 0 0 0 0 0 0 0 0 0 0 0 0 0.4 0"/>
<feBlend mode="normal" in2="shape" result="effect1_innerShadow_1_86"/>
</filter>
<filter id="filter4_i_1_86" x="580" y="561" width="23" height="33" filterUnits="userSpaceOnUse" color-interpolation-filters="sRGB">
<feFlood flood-opacity="0" result="BackgroundImageFix"/>
<feBlend mode="normal" in="SourceGraphic" in2="BackgroundImageFix" result="shape"/>
<feColorMatrix in="SourceAlpha" type="matrix" values="0 0 0 0 0 0 0 0 0 0 0 0 0 0 0 0 0 0 127 0" result="hardAlpha"/>
<feOffset dy="2"/>
<feGaussianBlur stdDeviation="2"/>
<feComposite in2="hardAlpha" operator="arithmetic" k2="-1" k3="1"/>
<feColorMatrix type="matrix" values="0 0 0 0 0.176993 0 0 0 0 0 0 0 0 0 0 0 0 0 0.4 0"/>
<feBlend mode="normal" in2="shape" result="effect1_innerShadow_1_86"/>
</filter>
</defs>
</svg>
