<svg width="317" height="468" viewBox="0 0 317 468" fill="none" xmlns="http://www.w3.org/2000/svg">
<path d="M194.92 37C101.871 53.0693 -41.3659 119.071 16.2646 193.382C42.6119 224.737 151.336 227.48 270.399 193.382C319.5 179.32 346.011 263 294.912 322.72C279.699 340.5 266.5 361.5 206.5 383.88C146.5 406.26 108.363 422.637 87 467.5" stroke="#222222" stroke-dasharray="8 16"/>
<path d="M181.808 1.224C181.835 1.21867 181.872 1.216 181.92 1.216C182.011 1.216 182.077 1.23467 182.12 1.272C182.168 1.304 182.192 1.34667 182.192 1.4C182.192 1.48 182.149 1.56 182.064 1.64C181.979 1.71467 181.875 1.76267 181.752 1.784L181.72 1.824C181.672 1.872 181.616 1.95467 181.552 2.072C181.451 2.25867 181.349 2.52267 181.248 2.864C181.115 3.344 180.997 3.992 180.896 4.808C180.832 5.34133 180.773 5.936 180.72 6.592C180.715 6.62933 180.712 6.688 180.712 6.768C180.701 6.93867 180.685 7.08 180.664 7.192C180.643 7.29867 180.603 7.38933 180.544 7.464C180.496 7.51733 180.411 7.57333 180.288 7.632C180.171 7.68533 180.061 7.712 179.96 7.712C179.827 7.712 179.747 7.65867 179.72 7.552C179.603 7.15733 179.461 6.58133 179.296 5.824C179.269 5.70667 179.229 5.53333 179.176 5.304C179.123 5.07467 179.075 4.87467 179.032 4.704L178.816 3.88C178.784 4.216 178.744 4.55467 178.696 4.896C178.611 5.50933 178.517 6.02133 178.416 6.432C178.32 6.84267 178.163 7.21067 177.944 7.536C177.885 7.62667 177.803 7.70133 177.696 7.76C177.595 7.81333 177.491 7.84 177.384 7.84C177.309 7.84 177.24 7.82667 177.176 7.8C177.112 7.768 177.08 7.72533 177.08 7.672C177.08 7.63467 177.091 7.60267 177.112 7.576C177.309 7.224 177.456 6.84533 177.552 6.44C177.653 6.02933 177.747 5.52267 177.832 4.92C177.955 4.01867 178.016 3.18667 178.016 2.424C178.016 2.11467 178.011 1.88267 178 1.728C177.995 1.62667 178.056 1.53867 178.184 1.464C178.312 1.384 178.445 1.344 178.584 1.344C178.691 1.344 178.771 1.37067 178.824 1.424C178.947 1.54667 179.04 1.68533 179.104 1.84C179.173 1.98933 179.259 2.21333 179.36 2.512C179.493 2.896 179.661 3.47733 179.864 4.256C179.901 4.38933 179.952 4.58933 180.016 4.856C180.037 4.69067 180.075 4.43733 180.128 4.096C180.213 3.584 180.304 3.14667 180.4 2.784C180.501 2.42133 180.667 2.08533 180.896 1.776C181.125 1.46133 181.429 1.27733 181.808 1.224ZM185.044 1.48C184.985 1.464 184.927 1.456 184.868 1.456C184.751 1.456 184.647 1.48533 184.556 1.544C184.439 1.608 184.372 1.672 184.356 1.736C184.287 1.98667 184.241 2.152 184.22 2.232V2.256C184.22 2.28267 184.231 2.30933 184.252 2.336C184.273 2.35733 184.297 2.37333 184.324 2.384C184.367 2.40533 184.415 2.416 184.468 2.416C184.553 2.416 184.655 2.392 184.772 2.344C184.895 2.29067 184.975 2.21867 185.012 2.128C185.044 2.03733 185.089 1.87733 185.148 1.648V1.632C185.148 1.60533 185.137 1.57867 185.116 1.552C185.095 1.52 185.071 1.496 185.044 1.48ZM184.732 4.688C184.7 4.90133 184.639 5.288 184.548 5.848C184.463 6.40267 184.391 6.90667 184.332 7.36C184.316 7.46133 184.244 7.54933 184.116 7.624C183.993 7.69333 183.868 7.728 183.74 7.728C183.655 7.728 183.588 7.712 183.54 7.68C183.497 7.64267 183.481 7.58933 183.492 7.52C183.583 6.98667 183.679 6.37867 183.78 5.696C183.887 5.008 183.961 4.51733 184.004 4.224L184.172 3.128C184.188 3.032 184.26 2.94933 184.388 2.88C184.521 2.81067 184.649 2.776 184.772 2.776C184.847 2.776 184.905 2.792 184.948 2.824C184.991 2.856 185.007 2.90133 184.996 2.96L184.732 4.688ZM189.672 2.488C189.699 2.41333 189.768 2.34933 189.88 2.296C189.992 2.23733 190.104 2.208 190.216 2.208C190.376 2.208 190.456 2.264 190.456 2.376C190.456 2.392 190.451 2.42133 190.44 2.464C190.211 3.24267 190.008 3.83733 189.832 4.248C189.8 4.328 189.726 4.39733 189.608 4.456C189.496 4.50933 189.384 4.536 189.272 4.536C189.139 4.536 189.062 4.49067 189.04 4.4C188.944 3.97333 188.795 3.76 188.592 3.76C188.496 3.76 188.39 3.81067 188.272 3.912C188.016 4.14667 187.814 4.464 187.664 4.864C187.52 5.264 187.448 5.64533 187.448 6.008C187.448 6.27467 187.494 6.51467 187.584 6.728C187.675 6.936 187.827 7.06667 188.04 7.12C188.072 7.13067 188.123 7.136 188.192 7.136C188.368 7.136 188.542 7.072 188.712 6.944C188.888 6.81067 189.032 6.67467 189.144 6.536C189.256 6.392 189.4 6.19733 189.576 5.952C189.619 5.89333 189.686 5.848 189.776 5.816C189.867 5.77867 189.958 5.76 190.048 5.76C190.134 5.76 190.2 5.776 190.248 5.808C190.302 5.83467 190.328 5.87733 190.328 5.936C190.328 5.98933 190.31 6.04533 190.272 6.104C189.99 6.54667 189.646 6.93067 189.24 7.256C188.835 7.576 188.408 7.736 187.96 7.736C187.87 7.736 187.779 7.728 187.688 7.712C187.331 7.65333 187.064 7.48 186.888 7.192C186.712 6.89867 186.624 6.56 186.624 6.176C186.624 6.03733 186.638 5.888 186.664 5.728C186.75 5.216 186.92 4.73867 187.176 4.296C187.432 3.848 187.768 3.52 188.184 3.312C188.392 3.21067 188.6 3.16 188.808 3.16C189.006 3.16 189.187 3.21333 189.352 3.32L189.672 2.488ZM195.117 4.912C195.117 4.34667 194.786 3.90133 194.125 3.576C193.96 3.71467 193.794 3.89867 193.629 4.128C193.426 4.42133 193.258 4.74933 193.125 5.112C193.072 5.256 193.021 5.45333 192.973 5.704C192.925 5.94933 192.901 6.17867 192.901 6.392C192.901 6.61067 192.93 6.78667 192.989 6.92C193.053 7.048 193.154 7.112 193.293 7.112C193.405 7.112 193.536 7.06667 193.685 6.976C194.096 6.736 194.437 6.43733 194.709 6.08C194.981 5.72267 195.117 5.33333 195.117 4.912ZM195.341 3.464C195.533 3.64533 195.68 3.85067 195.781 4.08C195.888 4.30933 195.941 4.552 195.941 4.808C195.941 5.176 195.834 5.54933 195.621 5.928C195.477 6.184 195.266 6.45333 194.989 6.736C194.712 7.01867 194.402 7.25867 194.061 7.456C193.725 7.648 193.402 7.744 193.093 7.744C192.901 7.744 192.72 7.70133 192.549 7.616C192.186 7.41867 192.005 7.064 192.005 6.552C192.005 6.184 192.088 5.78133 192.253 5.344C192.418 4.90133 192.594 4.528 192.781 4.224C193.234 3.504 193.712 3.05067 194.213 2.864C194.352 2.81067 194.501 2.784 194.661 2.784C194.848 2.784 195.005 2.832 195.133 2.928C195.261 3.01867 195.336 3.16267 195.357 3.36V3.392C195.357 3.408 195.352 3.432 195.341 3.464ZM198.668 3.92C198.668 4.12267 198.718 4.30133 198.82 4.456C198.926 4.61067 199.054 4.74133 199.204 4.848C199.353 4.95467 199.556 5.08 199.812 5.224C200.158 5.42133 200.422 5.6 200.604 5.76C200.79 5.92 200.913 6.12 200.972 6.36C200.993 6.46667 201.004 6.544 201.004 6.592C201.004 6.96533 200.806 7.23467 200.412 7.4C200.017 7.56 199.569 7.64 199.068 7.64C198.87 7.64 198.697 7.62667 198.548 7.6C198.372 7.568 198.188 7.50667 197.996 7.416C197.809 7.32 197.652 7.20533 197.524 7.072C197.401 6.93333 197.34 6.792 197.34 6.648C197.34 6.424 197.513 6.21867 197.86 6.032C197.956 5.984 198.049 5.96 198.14 5.96C198.225 5.96 198.294 5.97867 198.348 6.016C198.406 6.05333 198.436 6.09867 198.436 6.152C198.436 6.248 198.358 6.34133 198.204 6.432C198.172 6.448 198.156 6.472 198.156 6.504C198.156 6.568 198.206 6.64533 198.308 6.736C198.409 6.82667 198.489 6.888 198.548 6.92C198.708 7.01067 198.964 7.06667 199.316 7.088C199.358 7.09333 199.433 7.096 199.54 7.096C199.732 7.096 199.886 7.064 200.004 7C200.121 6.936 200.172 6.81867 200.156 6.648C200.134 6.41867 199.902 6.16 199.46 5.872L199.156 5.68C198.878 5.50933 198.649 5.36 198.468 5.232C198.292 5.09867 198.14 4.94133 198.012 4.76C197.884 4.57333 197.82 4.36533 197.82 4.136C197.82 3.992 197.846 3.848 197.9 3.704C198.017 3.35733 198.236 3.09067 198.556 2.904C198.876 2.712 199.22 2.616 199.588 2.616C199.966 2.616 200.284 2.712 200.54 2.904C200.801 3.096 200.932 3.368 200.932 3.72C200.932 3.832 200.916 3.952 200.884 4.08C200.862 4.176 200.782 4.25867 200.644 4.328C200.505 4.39733 200.374 4.432 200.252 4.432C200.177 4.432 200.118 4.416 200.076 4.384C200.038 4.352 200.03 4.30667 200.052 4.248C200.084 4.136 200.1 4.024 200.1 3.912C200.1 3.736 200.054 3.58667 199.964 3.464C199.873 3.34133 199.74 3.256 199.564 3.208C199.468 3.18667 199.396 3.176 199.348 3.176C199.156 3.176 198.993 3.24533 198.86 3.384C198.732 3.51733 198.668 3.696 198.668 3.92ZM204.335 1.48C204.276 1.464 204.217 1.456 204.159 1.456C204.041 1.456 203.937 1.48533 203.847 1.544C203.729 1.608 203.663 1.672 203.647 1.736C203.577 1.98667 203.532 2.152 203.511 2.232V2.256C203.511 2.28267 203.521 2.30933 203.543 2.336C203.564 2.35733 203.588 2.37333 203.615 2.384C203.657 2.40533 203.705 2.416 203.759 2.416C203.844 2.416 203.945 2.392 204.063 2.344C204.185 2.29067 204.265 2.21867 204.303 2.128C204.335 2.03733 204.38 1.87733 204.439 1.648V1.632C204.439 1.60533 204.428 1.57867 204.407 1.552C204.385 1.52 204.361 1.496 204.335 1.48ZM204.023 4.688C203.991 4.90133 203.929 5.288 203.839 5.848C203.753 6.40267 203.681 6.90667 203.623 7.36C203.607 7.46133 203.535 7.54933 203.407 7.624C203.284 7.69333 203.159 7.728 203.031 7.728C202.945 7.728 202.879 7.712 202.831 7.68C202.788 7.64267 202.772 7.58933 202.783 7.52C202.873 6.98667 202.969 6.37867 203.071 5.696C203.177 5.008 203.252 4.51733 203.295 4.224L203.463 3.128C203.479 3.032 203.551 2.94933 203.679 2.88C203.812 2.81067 203.94 2.776 204.063 2.776C204.137 2.776 204.196 2.792 204.239 2.824C204.281 2.856 204.297 2.90133 204.287 2.96L204.023 4.688ZM206.715 6.512C206.704 6.576 206.699 6.62133 206.699 6.648C206.699 6.86133 206.803 6.968 207.011 6.968C207.134 6.968 207.283 6.93333 207.459 6.864C207.619 6.8 207.915 6.664 208.347 6.456C208.358 6.32267 208.368 6.19467 208.379 6.072C208.395 5.944 208.408 5.82933 208.419 5.728L208.475 5.176C208.107 5.352 207.832 5.49067 207.651 5.592C207.384 5.74667 207.171 5.89333 207.011 6.032C206.851 6.16533 206.752 6.32533 206.715 6.512ZM208.795 2.744C209.035 2.744 209.195 2.80533 209.275 2.928C209.36 3.04533 209.403 3.21867 209.403 3.448L209.395 3.672C209.374 4.06133 209.326 4.632 209.251 5.384C209.235 5.49067 209.216 5.66933 209.195 5.92C209.174 6.07467 209.155 6.2 209.139 6.296C209.198 6.328 209.227 6.37067 209.227 6.424C209.227 6.46133 209.208 6.51733 209.171 6.592L209.139 6.632L209.091 6.68C209.054 6.952 209.035 7.184 209.035 7.376C209.11 7.41867 209.147 7.46933 209.147 7.528C209.147 7.61867 209.08 7.71467 208.947 7.816C208.91 7.84267 208.867 7.86933 208.819 7.896C208.782 7.91733 208.728 7.936 208.659 7.952C208.595 7.968 208.531 7.976 208.467 7.976C208.27 7.976 208.179 7.904 208.195 7.76L208.259 7.088C207.544 7.42933 206.995 7.6 206.611 7.6C206.126 7.6 205.883 7.33867 205.883 6.816C205.883 6.31467 206.142 5.888 206.659 5.536C207.182 5.184 207.806 4.86667 208.531 4.584C208.552 4.376 208.568 4.16533 208.579 3.952C208.579 3.90933 208.582 3.856 208.587 3.792C208.592 3.728 208.595 3.656 208.595 3.576C208.595 3.47467 208.587 3.408 208.571 3.376L208.547 3.344H208.539C208.459 3.344 208.31 3.45333 208.091 3.672C207.894 3.864 207.648 4.152 207.355 4.536C207.312 4.59467 207.24 4.64267 207.139 4.68C207.043 4.71733 206.944 4.736 206.843 4.736C206.768 4.736 206.704 4.72267 206.651 4.696C206.603 4.66933 206.579 4.62933 206.579 4.576C206.579 4.53333 206.6 4.47733 206.643 4.408C207.379 3.29867 208.096 2.744 208.795 2.744Z" fill="#999999"/>
<path d="M67.248 431.2C68.3093 430.784 68.84 430.395 68.84 430.032C68.84 429.824 68.7093 429.667 68.448 429.56C68.1867 429.448 67.8427 429.347 67.416 429.256C67.3147 429.24 67.1973 429.213 67.064 429.176L66.84 429.104C66.664 429.995 66.5253 430.776 66.424 431.448C66.616 431.427 66.8907 431.344 67.248 431.2ZM68.856 429.032C69.1013 429.123 69.288 429.24 69.416 429.384C69.5493 429.528 69.616 429.685 69.616 429.856C69.616 430.101 69.4827 430.349 69.216 430.6C68.8587 430.936 68.4293 431.227 67.928 431.472C67.432 431.712 66.936 431.875 66.44 431.96C66.3973 431.971 66.3653 431.976 66.344 431.976C66.2107 432.867 66.112 433.677 66.048 434.408C66.0373 434.509 65.9627 434.597 65.824 434.672C65.6853 434.747 65.5467 434.784 65.408 434.784C65.3333 434.784 65.272 434.768 65.224 434.736C65.176 434.704 65.1547 434.656 65.16 434.592C65.2453 433.739 65.3547 432.843 65.488 431.904C65.2373 431.797 65.112 431.608 65.112 431.336C65.112 431.219 65.1387 431.083 65.192 430.928C65.2187 430.859 65.2827 430.8 65.384 430.752C65.4853 430.699 65.5893 430.667 65.696 430.656C65.7867 430.133 65.9173 429.504 66.088 428.768C65.8267 428.581 65.6853 428.344 65.664 428.056C65.6587 427.96 65.72 427.875 65.848 427.8C65.976 427.72 66.1067 427.68 66.24 427.68C66.4213 427.68 66.5147 427.747 66.52 427.88C66.5253 427.997 66.5707 428.107 66.656 428.208C66.6827 428.203 66.7227 428.2 66.776 428.2C66.9467 428.2 67.0213 428.259 67 428.376L66.976 428.456C67.136 428.547 67.32 428.624 67.528 428.688C67.736 428.747 67.984 428.808 68.272 428.872C68.5707 428.941 68.7653 428.995 68.856 429.032ZM71.1134 433.512C71.1027 433.576 71.0974 433.621 71.0974 433.648C71.0974 433.861 71.2014 433.968 71.4094 433.968C71.532 433.968 71.6814 433.933 71.8574 433.864C72.0174 433.8 72.3134 433.664 72.7454 433.456C72.756 433.323 72.7667 433.195 72.7774 433.072C72.7934 432.944 72.8067 432.829 72.8174 432.728L72.8734 432.176C72.5054 432.352 72.2307 432.491 72.0494 432.592C71.7827 432.747 71.5694 432.893 71.4094 433.032C71.2494 433.165 71.1507 433.325 71.1134 433.512ZM73.1934 429.744C73.4334 429.744 73.5934 429.805 73.6734 429.928C73.7587 430.045 73.8014 430.219 73.8014 430.448L73.7934 430.672C73.772 431.061 73.724 431.632 73.6494 432.384C73.6334 432.491 73.6147 432.669 73.5934 432.92C73.572 433.075 73.5534 433.2 73.5374 433.296C73.596 433.328 73.6254 433.371 73.6254 433.424C73.6254 433.461 73.6067 433.517 73.5694 433.592L73.5374 433.632L73.4894 433.68C73.452 433.952 73.4334 434.184 73.4334 434.376C73.508 434.419 73.5454 434.469 73.5454 434.528C73.5454 434.619 73.4787 434.715 73.3454 434.816C73.308 434.843 73.2654 434.869 73.2174 434.896C73.18 434.917 73.1267 434.936 73.0574 434.952C72.9934 434.968 72.9294 434.976 72.8654 434.976C72.668 434.976 72.5774 434.904 72.5934 434.76L72.6574 434.088C71.9427 434.429 71.3934 434.6 71.0094 434.6C70.524 434.6 70.2814 434.339 70.2814 433.816C70.2814 433.315 70.54 432.888 71.0574 432.536C71.58 432.184 72.204 431.867 72.9294 431.584C72.9507 431.376 72.9667 431.165 72.9774 430.952C72.9774 430.909 72.98 430.856 72.9854 430.792C72.9907 430.728 72.9934 430.656 72.9934 430.576C72.9934 430.475 72.9854 430.408 72.9694 430.376L72.9454 430.344H72.9374C72.8574 430.344 72.708 430.453 72.4894 430.672C72.292 430.864 72.0467 431.152 71.7534 431.536C71.7107 431.595 71.6387 431.643 71.5374 431.68C71.4414 431.717 71.3427 431.736 71.2414 431.736C71.1667 431.736 71.1027 431.723 71.0494 431.696C71.0014 431.669 70.9774 431.629 70.9774 431.576C70.9774 431.533 70.9987 431.477 71.0414 431.408C71.7774 430.299 72.4947 429.744 73.1934 429.744ZM78.231 432.664C78.2523 432.573 78.263 432.467 78.263 432.344C78.263 431.917 78.103 431.501 77.783 431.096C77.6017 430.861 77.4097 430.672 77.207 430.528C77.047 431.525 76.9217 432.331 76.831 432.944C76.7883 433.195 76.7297 433.571 76.655 434.072C76.815 434.147 76.9617 434.184 77.095 434.184C77.319 434.184 77.5217 434.075 77.703 433.856C77.8363 433.696 77.9483 433.512 78.039 433.304C78.1297 433.096 78.1937 432.883 78.231 432.664ZM77.295 429.752C77.6257 429.864 77.9243 430.053 78.191 430.32C78.4577 430.581 78.6657 430.888 78.815 431.24C78.9697 431.587 79.047 431.933 79.047 432.28C79.047 432.467 79.023 432.648 78.975 432.824C78.8737 433.192 78.719 433.523 78.511 433.816C78.3083 434.104 78.063 434.333 77.775 434.504C77.4923 434.669 77.1883 434.752 76.863 434.752C76.7617 434.752 76.6577 434.744 76.551 434.728C76.3377 436.093 76.1457 437.208 75.975 438.072C75.9537 438.173 75.879 438.259 75.751 438.328C75.623 438.397 75.4923 438.432 75.359 438.432C75.2683 438.432 75.199 438.413 75.151 438.376C75.0977 438.339 75.079 438.283 75.095 438.208C75.3563 436.885 75.5857 435.624 75.783 434.424L75.767 434.416C75.6977 434.368 75.663 434.315 75.663 434.256C75.663 434.165 75.727 434.08 75.855 434C76.0257 433.013 76.2177 431.747 76.431 430.2L76.327 430.208L76.239 430.216C76.1483 430.216 76.0817 430.2 76.039 430.168C75.9963 430.136 75.975 430.096 75.975 430.048C75.975 429.968 76.015 429.891 76.095 429.816C76.175 429.741 76.2737 429.693 76.391 429.672C76.487 429.656 76.583 429.648 76.679 429.648C76.7483 429.648 76.8417 429.653 76.959 429.664C77.1297 429.643 77.2417 429.672 77.295 429.752ZM84.0774 429.784C84.1628 429.811 84.2028 429.867 84.1974 429.952C84.0481 431.381 83.8294 432.872 83.5414 434.424C83.5201 434.525 83.4454 434.611 83.3174 434.68C83.1894 434.749 83.0614 434.784 82.9334 434.784C82.8534 434.784 82.7894 434.768 82.7414 434.736C82.6934 434.699 82.6774 434.648 82.6934 434.584C82.8214 434.029 82.9281 433.461 83.0134 432.88C83.0988 432.299 83.1814 431.632 83.2614 430.88C82.8241 431.285 82.3868 431.728 81.9494 432.208L81.5094 434.64C81.4881 434.741 81.4108 434.829 81.2774 434.904C81.1441 434.979 81.0108 435.016 80.8774 435.016C80.7974 435.016 80.7361 435 80.6934 434.968C80.6508 434.931 80.6348 434.877 80.6454 434.808L81.0374 432.608C80.9734 432.592 80.9414 432.555 80.9414 432.496C80.9414 432.453 80.9654 432.4 81.0134 432.336L81.1094 432.208L81.8294 428.296C81.8454 428.2 81.9201 428.117 82.0534 428.048C82.1868 427.979 82.3174 427.944 82.4454 427.944C82.5201 427.944 82.5788 427.96 82.6214 427.992C82.6641 428.024 82.6801 428.069 82.6694 428.128L82.1574 431.024C82.5521 430.629 82.9921 430.253 83.4774 429.896C83.6321 429.789 83.7761 429.736 83.9094 429.736C83.9734 429.736 84.0294 429.752 84.0774 429.784ZM89.0842 431.912C89.0842 431.347 88.7535 430.901 88.0922 430.576C87.9269 430.715 87.7615 430.899 87.5962 431.128C87.3935 431.421 87.2255 431.749 87.0922 432.112C87.0389 432.256 86.9882 432.453 86.9402 432.704C86.8922 432.949 86.8682 433.179 86.8682 433.392C86.8682 433.611 86.8975 433.787 86.9562 433.92C87.0202 434.048 87.1215 434.112 87.2602 434.112C87.3722 434.112 87.5029 434.067 87.6522 433.976C88.0629 433.736 88.4042 433.437 88.6762 433.08C88.9482 432.723 89.0842 432.333 89.0842 431.912ZM89.3082 430.464C89.5002 430.645 89.6469 430.851 89.7482 431.08C89.8549 431.309 89.9082 431.552 89.9082 431.808C89.9082 432.176 89.8015 432.549 89.5882 432.928C89.4442 433.184 89.2335 433.453 88.9562 433.736C88.6789 434.019 88.3695 434.259 88.0282 434.456C87.6922 434.648 87.3695 434.744 87.0602 434.744C86.8682 434.744 86.6869 434.701 86.5162 434.616C86.1535 434.419 85.9722 434.064 85.9722 433.552C85.9722 433.184 86.0549 432.781 86.2202 432.344C86.3855 431.901 86.5615 431.528 86.7482 431.224C87.2015 430.504 87.6789 430.051 88.1802 429.864C88.3189 429.811 88.4682 429.784 88.6282 429.784C88.8149 429.784 88.9722 429.832 89.1002 429.928C89.2282 430.019 89.3029 430.163 89.3242 430.36V430.392C89.3242 430.408 89.3189 430.432 89.3082 430.464ZM92.6348 430.92C92.6348 431.123 92.6854 431.301 92.7868 431.456C92.8934 431.611 93.0214 431.741 93.1708 431.848C93.3201 431.955 93.5228 432.08 93.7788 432.224C94.1254 432.421 94.3894 432.6 94.5708 432.76C94.7574 432.92 94.8801 433.12 94.9388 433.36C94.9601 433.467 94.9708 433.544 94.9708 433.592C94.9708 433.965 94.7734 434.235 94.3788 434.4C93.9841 434.56 93.5361 434.64 93.0348 434.64C92.8374 434.64 92.6641 434.627 92.5148 434.6C92.3388 434.568 92.1548 434.507 91.9628 434.416C91.7761 434.32 91.6188 434.205 91.4908 434.072C91.3681 433.933 91.3068 433.792 91.3068 433.648C91.3068 433.424 91.4801 433.219 91.8268 433.032C91.9228 432.984 92.0161 432.96 92.1068 432.96C92.1921 432.96 92.2614 432.979 92.3148 433.016C92.3734 433.053 92.4028 433.099 92.4028 433.152C92.4028 433.248 92.3254 433.341 92.1708 433.432C92.1388 433.448 92.1228 433.472 92.1228 433.504C92.1228 433.568 92.1734 433.645 92.2747 433.736C92.3761 433.827 92.4561 433.888 92.5148 433.92C92.6748 434.011 92.9308 434.067 93.2828 434.088C93.3254 434.093 93.4001 434.096 93.5068 434.096C93.6988 434.096 93.8534 434.064 93.9708 434C94.0881 433.936 94.1388 433.819 94.1228 433.648C94.1014 433.419 93.8694 433.16 93.4268 432.872L93.1228 432.68C92.8454 432.509 92.6161 432.36 92.4348 432.232C92.2588 432.099 92.1068 431.941 91.9788 431.76C91.8508 431.573 91.7868 431.365 91.7868 431.136C91.7868 430.992 91.8134 430.848 91.8668 430.704C91.9841 430.357 92.2028 430.091 92.5228 429.904C92.8428 429.712 93.1868 429.616 93.5548 429.616C93.9334 429.616 94.2508 429.712 94.5068 429.904C94.7681 430.096 94.8988 430.368 94.8988 430.72C94.8988 430.832 94.8828 430.952 94.8508 431.08C94.8294 431.176 94.7494 431.259 94.6108 431.328C94.4721 431.397 94.3414 431.432 94.2188 431.432C94.1441 431.432 94.0854 431.416 94.0428 431.384C94.0054 431.352 93.9974 431.307 94.0188 431.248C94.0508 431.136 94.0668 431.024 94.0668 430.912C94.0668 430.736 94.0214 430.587 93.9308 430.464C93.8401 430.341 93.7068 430.256 93.5308 430.208C93.4348 430.187 93.3628 430.176 93.3148 430.176C93.1228 430.176 92.9601 430.245 92.8268 430.384C92.6988 430.517 92.6348 430.696 92.6348 430.92Z" fill="#999999"/>
<path d="M3.192 85.344C3.22933 85.3653 3.248 85.3947 3.248 85.432C3.248 85.5067 3.17867 85.584 3.04 85.664C2.90133 85.7387 2.768 85.776 2.64 85.776C2.56533 85.776 2.512 85.7627 2.48 85.736C2.45333 85.7147 2.376 85.6587 2.248 85.568C2.12533 85.472 2 85.392 1.872 85.328C1.744 85.264 1.632 85.232 1.536 85.232C1.45067 85.232 1.36 85.264 1.264 85.328C1.17333 85.3867 1.08533 85.4533 1 85.528C0.914667 85.5973 0.853333 85.648 0.816 85.68C0.746667 85.7333 0.658667 85.7787 0.552 85.816C0.450667 85.8533 0.357333 85.872 0.272 85.872C0.197333 85.872 0.138667 85.8587 0.096 85.832C0.0586667 85.8053 0.048 85.7627 0.064 85.704L0.288 84.744C0.741333 82.776 1.13867 81.1067 1.48 79.736C1.50133 79.6453 1.57867 79.568 1.712 79.504C1.85067 79.4347 1.984 79.4 2.112 79.4C2.18133 79.4 2.23467 79.4133 2.272 79.44C2.30933 79.4667 2.32 79.5067 2.304 79.56C2.144 80.2373 1.90933 81.2533 1.6 82.608L1.072 84.888C1.25333 84.7973 1.42667 84.7413 1.592 84.72C1.67733 84.7093 1.73867 84.704 1.776 84.704C2.01067 84.704 2.23467 84.76 2.448 84.872C2.66667 84.9787 2.91467 85.136 3.192 85.344ZM6.64569 79.48C6.58702 79.464 6.52835 79.456 6.46969 79.456C6.35235 79.456 6.24835 79.4853 6.15769 79.544C6.04035 79.608 5.97369 79.672 5.95769 79.736C5.88835 79.9867 5.84302 80.152 5.82169 80.232V80.256C5.82169 80.2827 5.83235 80.3093 5.85369 80.336C5.87502 80.3573 5.89902 80.3733 5.92569 80.384C5.96835 80.4053 6.01635 80.416 6.06969 80.416C6.15502 80.416 6.25635 80.392 6.37369 80.344C6.49635 80.2907 6.57635 80.2187 6.61369 80.128C6.64569 80.0373 6.69102 79.8773 6.74969 79.648V79.632C6.74969 79.6053 6.73902 79.5787 6.71769 79.552C6.69635 79.52 6.67235 79.496 6.64569 79.48ZM6.33369 82.688C6.30169 82.9013 6.24035 83.288 6.14969 83.848C6.06435 84.4027 5.99235 84.9067 5.93369 85.36C5.91769 85.4613 5.84569 85.5493 5.71769 85.624C5.59502 85.6933 5.46969 85.728 5.34169 85.728C5.25635 85.728 5.18969 85.712 5.14169 85.68C5.09902 85.6427 5.08302 85.5893 5.09369 85.52C5.18435 84.9867 5.28035 84.3787 5.38169 83.696C5.48835 83.008 5.56302 82.5173 5.60569 82.224L5.77369 81.128C5.78969 81.032 5.86169 80.9493 5.98969 80.88C6.12302 80.8107 6.25102 80.776 6.37369 80.776C6.44835 80.776 6.50702 80.792 6.54969 80.824C6.59235 80.856 6.60835 80.9013 6.59769 80.96L6.33369 82.688ZM13.1219 80.784C13.0952 81.344 13.0819 81.8453 13.0819 82.288C13.0819 83.3867 13.1565 84.3653 13.3059 85.224C13.3272 85.3467 13.2792 85.4533 13.1619 85.544C13.0445 85.6293 12.9165 85.672 12.7779 85.672C12.6979 85.672 12.6312 85.6533 12.5779 85.616C12.5245 85.5787 12.4925 85.5227 12.4819 85.448C12.3432 84.4133 12.2632 83.448 12.2419 82.552C11.9859 83.16 11.6792 84.0133 11.3219 85.112C11.3165 85.1333 11.3005 85.1627 11.2739 85.2C11.2259 85.264 11.1539 85.3147 11.0579 85.352C10.9619 85.3893 10.8659 85.408 10.7699 85.408C10.6952 85.408 10.6365 85.3973 10.5939 85.376C10.5245 85.3387 10.4899 85.288 10.4899 85.224C10.4899 85.208 10.4952 85.1787 10.5059 85.136C10.5112 85.0773 10.5139 84.992 10.5139 84.88C10.5139 84.6933 10.4979 84.424 10.4659 84.072L10.4339 83.64C10.4125 83.1173 10.3939 82.7253 10.3779 82.464C10.1219 82.9333 9.91921 83.28 9.76987 83.504C9.64187 84.1813 9.42854 84.8373 9.12987 85.472C9.09254 85.5467 9.01254 85.6107 8.88987 85.664C8.76721 85.7173 8.64721 85.744 8.52987 85.744C8.45521 85.744 8.39387 85.7307 8.34587 85.704C8.30321 85.6773 8.28187 85.64 8.28187 85.592C8.28187 85.56 8.28987 85.5253 8.30587 85.488C8.55121 84.9547 8.73787 84.408 8.86587 83.848C8.84454 83.8267 8.83387 83.7973 8.83387 83.76C8.83387 83.7067 8.85521 83.6507 8.89787 83.592L8.92987 83.536C9.01521 83.1093 9.05787 82.656 9.05787 82.176C9.05787 81.9733 9.04987 81.7733 9.03387 81.576C9.02854 81.4853 9.08987 81.4027 9.21787 81.328C9.34587 81.2533 9.47654 81.216 9.60987 81.216C9.68454 81.216 9.74587 81.232 9.79387 81.264C9.84187 81.296 9.86854 81.3413 9.87387 81.4C9.88454 81.496 9.89521 81.6507 9.90587 81.864C10.0285 81.64 10.1592 81.4293 10.2979 81.232C10.3085 81.1413 10.3725 81.064 10.4899 81C10.6072 80.9307 10.7299 80.896 10.8579 80.896C10.9379 80.896 11.0045 80.9147 11.0579 80.952C11.1165 80.984 11.1485 81.0373 11.1539 81.112C11.2072 81.8 11.2445 82.4133 11.2659 82.952C11.6232 82.0773 11.9779 81.3547 12.3299 80.784C12.3672 80.7253 12.4392 80.672 12.5459 80.624C12.6525 80.576 12.7565 80.552 12.8579 80.552C12.9379 80.552 13.0019 80.5707 13.0499 80.608C13.1032 80.6453 13.1272 80.704 13.1219 80.784ZM15.8837 84.512C15.873 84.576 15.8677 84.6213 15.8677 84.648C15.8677 84.8613 15.9717 84.968 16.1797 84.968C16.3024 84.968 16.4517 84.9333 16.6277 84.864C16.7877 84.8 17.0837 84.664 17.5157 84.456C17.5264 84.3227 17.537 84.1947 17.5477 84.072C17.5637 83.944 17.577 83.8293 17.5877 83.728L17.6437 83.176C17.2757 83.352 17.001 83.4907 16.8197 83.592C16.553 83.7467 16.3397 83.8933 16.1797 84.032C16.0197 84.1653 15.921 84.3253 15.8837 84.512ZM17.9637 80.744C18.2037 80.744 18.3637 80.8053 18.4437 80.928C18.529 81.0453 18.5717 81.2187 18.5717 81.448L18.5637 81.672C18.5424 82.0613 18.4944 82.632 18.4197 83.384C18.4037 83.4907 18.385 83.6693 18.3637 83.92C18.3424 84.0747 18.3237 84.2 18.3077 84.296C18.3664 84.328 18.3957 84.3707 18.3957 84.424C18.3957 84.4613 18.377 84.5173 18.3397 84.592L18.3077 84.632L18.2597 84.68C18.2224 84.952 18.2037 85.184 18.2037 85.376C18.2784 85.4187 18.3157 85.4693 18.3157 85.528C18.3157 85.6187 18.249 85.7147 18.1157 85.816C18.0784 85.8427 18.0357 85.8693 17.9877 85.896C17.9504 85.9173 17.897 85.936 17.8277 85.952C17.7637 85.968 17.6997 85.976 17.6357 85.976C17.4384 85.976 17.3477 85.904 17.3637 85.76L17.4277 85.088C16.713 85.4293 16.1637 85.6 15.7797 85.6C15.2944 85.6 15.0517 85.3387 15.0517 84.816C15.0517 84.3147 15.3104 83.888 15.8277 83.536C16.3504 83.184 16.9744 82.8667 17.6997 82.584C17.721 82.376 17.737 82.1653 17.7477 81.952C17.7477 81.9093 17.7504 81.856 17.7557 81.792C17.761 81.728 17.7637 81.656 17.7637 81.576C17.7637 81.4747 17.7557 81.408 17.7397 81.376L17.7157 81.344H17.7077C17.6277 81.344 17.4784 81.4533 17.2597 81.672C17.0624 81.864 16.817 82.152 16.5237 82.536C16.481 82.5947 16.409 82.6427 16.3077 82.68C16.2117 82.7173 16.113 82.736 16.0117 82.736C15.937 82.736 15.873 82.7227 15.8197 82.696C15.7717 82.6693 15.7477 82.6293 15.7477 82.576C15.7477 82.5333 15.769 82.4773 15.8117 82.408C16.5477 81.2987 17.265 80.744 17.9637 80.744ZM21.7613 81.92C21.7613 82.1227 21.812 82.3013 21.9133 82.456C22.02 82.6107 22.148 82.7413 22.2973 82.848C22.4466 82.9547 22.6493 83.08 22.9053 83.224C23.252 83.4213 23.516 83.6 23.6973 83.76C23.884 83.92 24.0066 84.12 24.0653 84.36C24.0866 84.4667 24.0973 84.544 24.0973 84.592C24.0973 84.9653 23.9 85.2347 23.5053 85.4C23.1106 85.56 22.6626 85.64 22.1613 85.64C21.964 85.64 21.7906 85.6267 21.6413 85.6C21.4653 85.568 21.2813 85.5067 21.0893 85.416C20.9026 85.32 20.7453 85.2053 20.6173 85.072C20.4946 84.9333 20.4333 84.792 20.4333 84.648C20.4333 84.424 20.6066 84.2187 20.9533 84.032C21.0493 83.984 21.1426 83.96 21.2333 83.96C21.3186 83.96 21.388 83.9787 21.4413 84.016C21.5 84.0533 21.5293 84.0987 21.5293 84.152C21.5293 84.248 21.452 84.3413 21.2973 84.432C21.2653 84.448 21.2493 84.472 21.2493 84.504C21.2493 84.568 21.3 84.6453 21.4013 84.736C21.5026 84.8267 21.5826 84.888 21.6413 84.92C21.8013 85.0107 22.0573 85.0667 22.4093 85.088C22.452 85.0933 22.5266 85.096 22.6333 85.096C22.8253 85.096 22.98 85.064 23.0973 85C23.2146 84.936 23.2653 84.8187 23.2493 84.648C23.228 84.4187 22.996 84.16 22.5533 83.872L22.2493 83.68C21.972 83.5093 21.7426 83.36 21.5613 83.232C21.3853 83.0987 21.2333 82.9413 21.1053 82.76C20.9773 82.5733 20.9133 82.3653 20.9133 82.136C20.9133 81.992 20.94 81.848 20.9933 81.704C21.1106 81.3573 21.3293 81.0907 21.6493 80.904C21.9693 80.712 22.3133 80.616 22.6813 80.616C23.06 80.616 23.3773 80.712 23.6333 80.904C23.8946 81.096 24.0253 81.368 24.0253 81.72C24.0253 81.832 24.0093 81.952 23.9773 82.08C23.956 82.176 23.876 82.2587 23.7373 82.328C23.5986 82.3973 23.468 82.432 23.3453 82.432C23.2706 82.432 23.212 82.416 23.1693 82.384C23.132 82.352 23.124 82.3067 23.1453 82.248C23.1773 82.136 23.1933 82.024 23.1933 81.912C23.1933 81.736 23.148 81.5867 23.0573 81.464C22.9666 81.3413 22.8333 81.256 22.6573 81.208C22.5613 81.1867 22.4893 81.176 22.4413 81.176C22.2493 81.176 22.0866 81.2453 21.9533 81.384C21.8253 81.5173 21.7613 81.696 21.7613 81.92ZM27.0723 81.92C27.0723 82.1227 27.1229 82.3013 27.2243 82.456C27.3309 82.6107 27.4589 82.7413 27.6083 82.848C27.7576 82.9547 27.9603 83.08 28.2163 83.224C28.5629 83.4213 28.8269 83.6 29.0083 83.76C29.1949 83.92 29.3176 84.12 29.3763 84.36C29.3976 84.4667 29.4083 84.544 29.4083 84.592C29.4083 84.9653 29.2109 85.2347 28.8163 85.4C28.4216 85.56 27.9736 85.64 27.4723 85.64C27.2749 85.64 27.1016 85.6267 26.9523 85.6C26.7763 85.568 26.5923 85.5067 26.4003 85.416C26.2136 85.32 26.0563 85.2053 25.9283 85.072C25.8056 84.9333 25.7443 84.792 25.7443 84.648C25.7443 84.424 25.9176 84.2187 26.2643 84.032C26.3603 83.984 26.4536 83.96 26.5443 83.96C26.6296 83.96 26.6989 83.9787 26.7523 84.016C26.8109 84.0533 26.8403 84.0987 26.8403 84.152C26.8403 84.248 26.7629 84.3413 26.6083 84.432C26.5763 84.448 26.5603 84.472 26.5603 84.504C26.5603 84.568 26.6109 84.6453 26.7122 84.736C26.8136 84.8267 26.8936 84.888 26.9523 84.92C27.1123 85.0107 27.3683 85.0667 27.7203 85.088C27.7629 85.0933 27.8376 85.096 27.9443 85.096C28.1363 85.096 28.2909 85.064 28.4083 85C28.5256 84.936 28.5763 84.8187 28.5603 84.648C28.5389 84.4187 28.3069 84.16 27.8643 83.872L27.5603 83.68C27.2829 83.5093 27.0536 83.36 26.8723 83.232C26.6963 83.0987 26.5443 82.9413 26.4163 82.76C26.2883 82.5733 26.2243 82.3653 26.2243 82.136C26.2243 81.992 26.2509 81.848 26.3043 81.704C26.4216 81.3573 26.6403 81.0907 26.9603 80.904C27.2803 80.712 27.6243 80.616 27.9923 80.616C28.3709 80.616 28.6883 80.712 28.9443 80.904C29.2056 81.096 29.3363 81.368 29.3363 81.72C29.3363 81.832 29.3203 81.952 29.2883 82.08C29.2669 82.176 29.1869 82.2587 29.0483 82.328C28.9096 82.3973 28.7789 82.432 28.6563 82.432C28.5816 82.432 28.5229 82.416 28.4803 82.384C28.4429 82.352 28.4349 82.3067 28.4563 82.248C28.4883 82.136 28.5043 82.024 28.5043 81.912C28.5043 81.736 28.4589 81.5867 28.3683 81.464C28.2776 81.3413 28.1443 81.256 27.9683 81.208C27.8723 81.1867 27.8003 81.176 27.7523 81.176C27.5603 81.176 27.3976 81.2453 27.2643 81.384C27.1363 81.5173 27.0723 81.696 27.0723 81.92ZM34.3154 82.912C34.3154 82.3467 33.9848 81.9013 33.3234 81.576C33.1581 81.7147 32.9928 81.8987 32.8274 82.128C32.6248 82.4213 32.4568 82.7493 32.3234 83.112C32.2701 83.256 32.2194 83.4533 32.1714 83.704C32.1234 83.9493 32.0994 84.1787 32.0994 84.392C32.0994 84.6107 32.1288 84.7867 32.1874 84.92C32.2514 85.048 32.3528 85.112 32.4914 85.112C32.6034 85.112 32.7341 85.0667 32.8834 84.976C33.2941 84.736 33.6354 84.4373 33.9074 84.08C34.1794 83.7227 34.3154 83.3333 34.3154 82.912ZM34.5394 81.464C34.7314 81.6453 34.8781 81.8507 34.9794 82.08C35.0861 82.3093 35.1394 82.552 35.1394 82.808C35.1394 83.176 35.0328 83.5493 34.8194 83.928C34.6754 84.184 34.4648 84.4533 34.1874 84.736C33.9101 85.0187 33.6008 85.2587 33.2594 85.456C32.9234 85.648 32.6008 85.744 32.2914 85.744C32.0994 85.744 31.9181 85.7013 31.7474 85.616C31.3848 85.4187 31.2034 85.064 31.2034 84.552C31.2034 84.184 31.2861 83.7813 31.4514 83.344C31.6168 82.9013 31.7928 82.528 31.9794 82.224C32.4328 81.504 32.9101 81.0507 33.4114 80.864C33.5501 80.8107 33.6994 80.784 33.8594 80.784C34.0461 80.784 34.2034 80.832 34.3314 80.928C34.4594 81.0187 34.5341 81.1627 34.5554 81.36V81.392C34.5554 81.408 34.5501 81.432 34.5394 81.464ZM37.322 79.296C37.3327 79.1947 37.402 79.1093 37.53 79.04C37.6633 78.9653 37.794 78.928 37.922 78.928C38.002 78.928 38.0633 78.944 38.106 78.976C38.1487 79.008 38.1673 79.0587 38.162 79.128C38.0073 80.52 37.8473 81.912 37.682 83.304L37.442 85.392C37.4313 85.4933 37.3593 85.5813 37.226 85.656C37.0927 85.7307 36.9593 85.768 36.826 85.768C36.6447 85.768 36.562 85.6987 36.578 85.56L36.954 82.424C37.1247 80.952 37.2473 79.9093 37.322 79.296Z" fill="#999999"/>
<path d="M279.192 161.344C279.229 161.365 279.248 161.395 279.248 161.432C279.248 161.507 279.179 161.584 279.04 161.664C278.901 161.739 278.768 161.776 278.64 161.776C278.565 161.776 278.512 161.763 278.48 161.736C278.453 161.715 278.376 161.659 278.248 161.568C278.125 161.472 278 161.392 277.872 161.328C277.744 161.264 277.632 161.232 277.536 161.232C277.451 161.232 277.36 161.264 277.264 161.328C277.173 161.387 277.085 161.453 277 161.528C276.915 161.597 276.853 161.648 276.816 161.68C276.747 161.733 276.659 161.779 276.552 161.816C276.451 161.853 276.357 161.872 276.272 161.872C276.197 161.872 276.139 161.859 276.096 161.832C276.059 161.805 276.048 161.763 276.064 161.704L276.288 160.744C276.741 158.776 277.139 157.107 277.48 155.736C277.501 155.645 277.579 155.568 277.712 155.504C277.851 155.435 277.984 155.4 278.112 155.4C278.181 155.4 278.235 155.413 278.272 155.44C278.309 155.467 278.32 155.507 278.304 155.56C278.144 156.237 277.909 157.253 277.6 158.608L277.072 160.888C277.253 160.797 277.427 160.741 277.592 160.72C277.677 160.709 277.739 160.704 277.776 160.704C278.011 160.704 278.235 160.76 278.448 160.872C278.667 160.979 278.915 161.136 279.192 161.344ZM281.934 160.512C281.923 160.576 281.918 160.621 281.918 160.648C281.918 160.861 282.022 160.968 282.23 160.968C282.352 160.968 282.502 160.933 282.678 160.864C282.838 160.8 283.134 160.664 283.566 160.456C283.576 160.323 283.587 160.195 283.598 160.072C283.614 159.944 283.627 159.829 283.638 159.728L283.694 159.176C283.326 159.352 283.051 159.491 282.87 159.592C282.603 159.747 282.39 159.893 282.23 160.032C282.07 160.165 281.971 160.325 281.934 160.512ZM284.014 156.744C284.254 156.744 284.414 156.805 284.494 156.928C284.579 157.045 284.622 157.219 284.622 157.448L284.614 157.672C284.592 158.061 284.544 158.632 284.47 159.384C284.454 159.491 284.435 159.669 284.414 159.92C284.392 160.075 284.374 160.2 284.358 160.296C284.416 160.328 284.446 160.371 284.446 160.424C284.446 160.461 284.427 160.517 284.39 160.592L284.358 160.632L284.31 160.68C284.272 160.952 284.254 161.184 284.254 161.376C284.328 161.419 284.366 161.469 284.366 161.528C284.366 161.619 284.299 161.715 284.166 161.816C284.128 161.843 284.086 161.869 284.038 161.896C284 161.917 283.947 161.936 283.878 161.952C283.814 161.968 283.75 161.976 283.686 161.976C283.488 161.976 283.398 161.904 283.414 161.76L283.478 161.088C282.763 161.429 282.214 161.6 281.83 161.6C281.344 161.6 281.102 161.339 281.102 160.816C281.102 160.315 281.36 159.888 281.878 159.536C282.4 159.184 283.024 158.867 283.75 158.584C283.771 158.376 283.787 158.165 283.798 157.952C283.798 157.909 283.8 157.856 283.806 157.792C283.811 157.728 283.814 157.656 283.814 157.576C283.814 157.475 283.806 157.408 283.79 157.376L283.766 157.344H283.758C283.678 157.344 283.528 157.453 283.31 157.672C283.112 157.864 282.867 158.152 282.574 158.536C282.531 158.595 282.459 158.643 282.358 158.68C282.262 158.717 282.163 158.736 282.062 158.736C281.987 158.736 281.923 158.723 281.87 158.696C281.822 158.669 281.798 158.629 281.798 158.576C281.798 158.533 281.819 158.477 281.862 158.408C282.598 157.299 283.315 156.744 284.014 156.744ZM288.811 156.72C288.966 156.656 289.107 156.624 289.235 156.624C289.374 156.624 289.486 156.661 289.571 156.736C289.657 156.805 289.699 156.92 289.699 157.08C289.699 157.235 289.675 157.403 289.627 157.584C289.579 157.765 289.513 157.979 289.427 158.224L289.315 158.56C289.283 158.661 289.201 158.747 289.067 158.816C288.934 158.885 288.806 158.92 288.683 158.92C288.603 158.92 288.542 158.904 288.499 158.872C288.462 158.835 288.454 158.781 288.475 158.712C288.571 158.413 288.667 158.083 288.763 157.72C288.785 157.555 288.801 157.445 288.811 157.392L288.779 157.424C288.369 157.776 287.993 158.219 287.651 158.752C287.497 159.6 287.401 160.451 287.363 161.304C287.358 161.405 287.289 161.496 287.155 161.576C287.027 161.651 286.894 161.688 286.755 161.688C286.675 161.688 286.609 161.669 286.555 161.632C286.502 161.595 286.478 161.539 286.483 161.464C286.526 160.696 286.609 159.949 286.731 159.224C286.678 159.187 286.651 159.144 286.651 159.096C286.651 159.064 286.662 159.029 286.683 158.992L286.803 158.792C286.921 158.179 287.065 157.563 287.235 156.944C287.262 156.848 287.345 156.765 287.483 156.696C287.627 156.621 287.763 156.584 287.891 156.584C287.971 156.584 288.033 156.6 288.075 156.632C288.118 156.664 288.129 156.712 288.107 156.776C288.022 157.075 287.969 157.272 287.947 157.368C288.267 157.048 288.555 156.832 288.811 156.72ZM294.388 156.824C294.602 156.941 294.708 157.189 294.708 157.568C294.708 157.707 294.695 157.861 294.668 158.032C294.642 158.197 294.612 158.355 294.58 158.504L294.524 158.824L294.188 161.312C294.295 161.339 294.34 161.405 294.324 161.512C294.266 161.805 294.058 161.992 293.7 162.072L293.62 162.08C293.53 162.08 293.45 162.061 293.38 162.024C293.311 161.987 293.282 161.928 293.292 161.848C293.516 160.227 293.682 159.011 293.788 158.2C293.794 158.179 293.804 158.117 293.82 158.016C293.842 157.915 293.852 157.819 293.852 157.728C293.852 157.557 293.807 157.469 293.716 157.464C293.647 157.453 293.532 157.549 293.372 157.752C293.218 157.949 293.132 158.059 293.116 158.08C292.796 158.443 292.498 158.848 292.22 159.296C292.092 160.075 291.991 160.704 291.916 161.184L291.876 161.44C291.86 161.541 291.786 161.629 291.652 161.704C291.519 161.779 291.388 161.816 291.26 161.816C291.18 161.816 291.116 161.8 291.068 161.768C291.026 161.731 291.01 161.677 291.02 161.608C291.159 160.792 291.268 160.125 291.348 159.608C291.316 159.576 291.3 159.539 291.3 159.496C291.3 159.469 291.308 159.44 291.324 159.408C291.34 159.381 291.354 159.357 291.364 159.336C291.38 159.315 291.394 159.296 291.404 159.28L291.724 157.344C291.74 157.248 291.812 157.165 291.94 157.096C292.068 157.027 292.196 156.992 292.324 156.992C292.404 156.992 292.466 157.008 292.508 157.04C292.551 157.072 292.567 157.12 292.556 157.184C292.53 157.36 292.492 157.587 292.444 157.864L292.78 157.504C293.004 157.28 293.218 157.096 293.42 156.952C293.623 156.808 293.828 156.736 294.036 156.736C294.17 156.736 294.287 156.765 294.388 156.824ZM297.241 160.512C297.231 160.576 297.225 160.621 297.225 160.648C297.225 160.861 297.329 160.968 297.537 160.968C297.66 160.968 297.809 160.933 297.985 160.864C298.145 160.8 298.441 160.664 298.873 160.456C298.884 160.323 298.895 160.195 298.905 160.072C298.921 159.944 298.935 159.829 298.945 159.728L299.001 159.176C298.633 159.352 298.359 159.491 298.177 159.592C297.911 159.747 297.697 159.893 297.537 160.032C297.377 160.165 297.279 160.325 297.241 160.512ZM299.321 156.744C299.561 156.744 299.721 156.805 299.801 156.928C299.887 157.045 299.929 157.219 299.929 157.448L299.921 157.672C299.9 158.061 299.852 158.632 299.777 159.384C299.761 159.491 299.743 159.669 299.721 159.92C299.7 160.075 299.681 160.2 299.665 160.296C299.724 160.328 299.753 160.371 299.753 160.424C299.753 160.461 299.735 160.517 299.697 160.592L299.665 160.632L299.617 160.68C299.58 160.952 299.561 161.184 299.561 161.376C299.636 161.419 299.673 161.469 299.673 161.528C299.673 161.619 299.607 161.715 299.473 161.816C299.436 161.843 299.393 161.869 299.345 161.896C299.308 161.917 299.255 161.936 299.185 161.952C299.121 161.968 299.057 161.976 298.993 161.976C298.796 161.976 298.705 161.904 298.721 161.76L298.785 161.088C298.071 161.429 297.521 161.6 297.137 161.6C296.652 161.6 296.409 161.339 296.409 160.816C296.409 160.315 296.668 159.888 297.185 159.536C297.708 159.184 298.332 158.867 299.057 158.584C299.079 158.376 299.095 158.165 299.105 157.952C299.105 157.909 299.108 157.856 299.113 157.792C299.119 157.728 299.121 157.656 299.121 157.576C299.121 157.475 299.113 157.408 299.097 157.376L299.073 157.344H299.065C298.985 157.344 298.836 157.453 298.617 157.672C298.42 157.864 298.175 158.152 297.881 158.536C297.839 158.595 297.767 158.643 297.665 158.68C297.569 158.717 297.471 158.736 297.369 158.736C297.295 158.736 297.231 158.723 297.177 158.696C297.129 158.669 297.105 158.629 297.105 158.576C297.105 158.533 297.127 158.477 297.169 158.408C297.905 157.299 298.623 156.744 299.321 156.744ZM304.855 156.488C304.882 156.413 304.951 156.349 305.063 156.296C305.175 156.237 305.287 156.208 305.399 156.208C305.559 156.208 305.639 156.264 305.639 156.376C305.639 156.392 305.634 156.421 305.623 156.464C305.394 157.243 305.191 157.837 305.015 158.248C304.983 158.328 304.908 158.397 304.791 158.456C304.679 158.509 304.567 158.536 304.455 158.536C304.322 158.536 304.244 158.491 304.223 158.4C304.127 157.973 303.978 157.76 303.775 157.76C303.679 157.76 303.572 157.811 303.455 157.912C303.199 158.147 302.996 158.464 302.847 158.864C302.703 159.264 302.631 159.645 302.631 160.008C302.631 160.275 302.676 160.515 302.767 160.728C302.858 160.936 303.01 161.067 303.223 161.12C303.255 161.131 303.306 161.136 303.375 161.136C303.551 161.136 303.724 161.072 303.895 160.944C304.071 160.811 304.215 160.675 304.327 160.536C304.439 160.392 304.583 160.197 304.759 159.952C304.802 159.893 304.868 159.848 304.959 159.816C305.05 159.779 305.14 159.76 305.231 159.76C305.316 159.76 305.383 159.776 305.431 159.808C305.484 159.835 305.511 159.877 305.511 159.936C305.511 159.989 305.492 160.045 305.455 160.104C305.172 160.547 304.828 160.931 304.423 161.256C304.018 161.576 303.591 161.736 303.143 161.736C303.052 161.736 302.962 161.728 302.871 161.712C302.514 161.653 302.247 161.48 302.071 161.192C301.895 160.899 301.807 160.56 301.807 160.176C301.807 160.037 301.82 159.888 301.847 159.728C301.932 159.216 302.103 158.739 302.359 158.296C302.615 157.848 302.951 157.52 303.367 157.312C303.575 157.211 303.783 157.16 303.991 157.16C304.188 157.16 304.37 157.213 304.535 157.32L304.855 156.488ZM308.012 160.512C308.001 160.576 307.996 160.621 307.996 160.648C307.996 160.861 308.1 160.968 308.308 160.968C308.43 160.968 308.58 160.933 308.756 160.864C308.916 160.8 309.212 160.664 309.644 160.456C309.654 160.323 309.665 160.195 309.676 160.072C309.692 159.944 309.705 159.829 309.716 159.728L309.772 159.176C309.404 159.352 309.129 159.491 308.948 159.592C308.681 159.747 308.468 159.893 308.308 160.032C308.148 160.165 308.049 160.325 308.012 160.512ZM310.092 156.744C310.332 156.744 310.492 156.805 310.572 156.928C310.657 157.045 310.7 157.219 310.7 157.448L310.692 157.672C310.67 158.061 310.622 158.632 310.548 159.384C310.532 159.491 310.513 159.669 310.492 159.92C310.47 160.075 310.452 160.2 310.436 160.296C310.494 160.328 310.524 160.371 310.524 160.424C310.524 160.461 310.505 160.517 310.468 160.592L310.436 160.632L310.388 160.68C310.35 160.952 310.332 161.184 310.332 161.376C310.406 161.419 310.444 161.469 310.444 161.528C310.444 161.619 310.377 161.715 310.244 161.816C310.206 161.843 310.164 161.869 310.116 161.896C310.078 161.917 310.025 161.936 309.956 161.952C309.892 161.968 309.828 161.976 309.764 161.976C309.566 161.976 309.476 161.904 309.492 161.76L309.556 161.088C308.841 161.429 308.292 161.6 307.908 161.6C307.422 161.6 307.18 161.339 307.18 160.816C307.18 160.315 307.438 159.888 307.956 159.536C308.478 159.184 309.102 158.867 309.828 158.584C309.849 158.376 309.865 158.165 309.876 157.952C309.876 157.909 309.878 157.856 309.884 157.792C309.889 157.728 309.892 157.656 309.892 157.576C309.892 157.475 309.884 157.408 309.868 157.376L309.844 157.344H309.836C309.756 157.344 309.606 157.453 309.388 157.672C309.19 157.864 308.945 158.152 308.652 158.536C308.609 158.595 308.537 158.643 308.436 158.68C308.34 158.717 308.241 158.736 308.14 158.736C308.065 158.736 308.001 158.723 307.948 158.696C307.9 158.669 307.876 158.629 307.876 158.576C307.876 158.533 307.897 158.477 307.94 158.408C308.676 157.299 309.393 156.744 310.092 156.744Z" fill="#999999"/>
<path d="M190.696 347.464C190.813 347.469 190.872 347.507 190.872 347.576C190.872 347.656 190.808 347.747 190.68 347.848C190.557 347.944 190.448 347.992 190.352 347.992C189.893 347.992 189.384 348.005 188.824 348.032C188.371 349.851 188.056 351.536 187.88 353.088C187.955 353.093 188.016 353.112 188.064 353.144C188.117 353.171 188.144 353.208 188.144 353.256C188.144 353.32 188.096 353.389 188 353.464L187.688 353.704C187.651 353.741 187.579 353.776 187.472 353.808C187.371 353.84 187.275 353.856 187.184 353.856C187.019 353.856 186.944 353.789 186.96 353.656C187.147 351.901 187.488 350.056 187.984 348.12L187.976 348.088C187.368 348.141 186.8 348.2 186.272 348.264C186.192 348.275 186.128 348.264 186.08 348.232C186.032 348.195 186.011 348.139 186.016 348.064C186.021 347.989 186.067 347.928 186.152 347.88C186.243 347.832 186.339 347.795 186.44 347.768C186.952 347.619 187.523 347.517 188.152 347.464L188.2 347.328C188.221 347.253 188.296 347.189 188.424 347.136C188.552 347.077 188.677 347.048 188.8 347.048C188.88 347.048 188.941 347.064 188.984 347.096C189.032 347.128 189.048 347.173 189.032 347.232L188.984 347.416L189.36 347.408C189.749 347.408 190.195 347.427 190.696 347.464ZM193.508 348.72C193.663 348.656 193.804 348.624 193.932 348.624C194.071 348.624 194.183 348.661 194.268 348.736C194.354 348.805 194.396 348.92 194.396 349.08C194.396 349.235 194.372 349.403 194.324 349.584C194.276 349.765 194.21 349.979 194.124 350.224L194.012 350.56C193.98 350.661 193.898 350.747 193.764 350.816C193.631 350.885 193.503 350.92 193.38 350.92C193.3 350.92 193.239 350.904 193.196 350.872C193.159 350.835 193.151 350.781 193.172 350.712C193.268 350.413 193.364 350.083 193.46 349.72C193.482 349.555 193.498 349.445 193.508 349.392L193.476 349.424C193.066 349.776 192.69 350.219 192.348 350.752C192.194 351.6 192.098 352.451 192.06 353.304C192.055 353.405 191.986 353.496 191.852 353.576C191.724 353.651 191.591 353.688 191.452 353.688C191.372 353.688 191.306 353.669 191.252 353.632C191.199 353.595 191.175 353.539 191.18 353.464C191.223 352.696 191.306 351.949 191.428 351.224C191.375 351.187 191.348 351.144 191.348 351.096C191.348 351.064 191.359 351.029 191.38 350.992L191.5 350.792C191.618 350.179 191.762 349.563 191.932 348.944C191.959 348.848 192.042 348.765 192.18 348.696C192.324 348.621 192.46 348.584 192.588 348.584C192.668 348.584 192.73 348.6 192.772 348.632C192.815 348.664 192.826 348.712 192.804 348.776C192.719 349.075 192.666 349.272 192.644 349.368C192.964 349.048 193.252 348.832 193.508 348.72ZM198.447 350.912C198.447 350.347 198.116 349.901 197.455 349.576C197.289 349.715 197.124 349.899 196.959 350.128C196.756 350.421 196.588 350.749 196.455 351.112C196.401 351.256 196.351 351.453 196.303 351.704C196.255 351.949 196.231 352.179 196.231 352.392C196.231 352.611 196.26 352.787 196.319 352.92C196.383 353.048 196.484 353.112 196.623 353.112C196.735 353.112 196.865 353.067 197.015 352.976C197.425 352.736 197.767 352.437 198.039 352.08C198.311 351.723 198.447 351.333 198.447 350.912ZM198.671 349.464C198.863 349.645 199.009 349.851 199.111 350.08C199.217 350.309 199.271 350.552 199.271 350.808C199.271 351.176 199.164 351.549 198.951 351.928C198.807 352.184 198.596 352.453 198.319 352.736C198.041 353.019 197.732 353.259 197.391 353.456C197.055 353.648 196.732 353.744 196.423 353.744C196.231 353.744 196.049 353.701 195.879 353.616C195.516 353.419 195.335 353.064 195.335 352.552C195.335 352.184 195.417 351.781 195.583 351.344C195.748 350.901 195.924 350.528 196.111 350.224C196.564 349.504 197.041 349.051 197.543 348.864C197.681 348.811 197.831 348.784 197.991 348.784C198.177 348.784 198.335 348.832 198.463 348.928C198.591 349.019 198.665 349.163 198.687 349.36V349.392C198.687 349.408 198.681 349.432 198.671 349.464ZM204.086 350.912C204.086 350.347 203.755 349.901 203.094 349.576C202.928 349.715 202.763 349.899 202.598 350.128C202.395 350.421 202.227 350.749 202.094 351.112C202.04 351.256 201.99 351.453 201.942 351.704C201.894 351.949 201.87 352.179 201.87 352.392C201.87 352.611 201.899 352.787 201.958 352.92C202.022 353.048 202.123 353.112 202.262 353.112C202.374 353.112 202.504 353.067 202.654 352.976C203.064 352.736 203.406 352.437 203.678 352.08C203.95 351.723 204.086 351.333 204.086 350.912ZM204.31 349.464C204.502 349.645 204.648 349.851 204.75 350.08C204.856 350.309 204.91 350.552 204.91 350.808C204.91 351.176 204.803 351.549 204.59 351.928C204.446 352.184 204.235 352.453 203.958 352.736C203.68 353.019 203.371 353.259 203.03 353.456C202.694 353.648 202.371 353.744 202.062 353.744C201.87 353.744 201.688 353.701 201.518 353.616C201.155 353.419 200.974 353.064 200.974 352.552C200.974 352.184 201.056 351.781 201.222 351.344C201.387 350.901 201.563 350.528 201.75 350.224C202.203 349.504 202.68 349.051 203.182 348.864C203.32 348.811 203.47 348.784 203.63 348.784C203.816 348.784 203.974 348.832 204.102 348.928C204.23 349.019 204.304 349.163 204.326 349.36V349.392C204.326 349.408 204.32 349.432 204.31 349.464ZM207.521 353.016C207.622 353.096 207.753 353.136 207.913 353.136C208.099 353.136 208.337 353.075 208.625 352.952C208.795 351.965 208.929 350.995 209.025 350.04H209.009C208.721 350.04 208.457 350.139 208.217 350.336C207.977 350.533 207.777 350.779 207.617 351.072C207.462 351.365 207.355 351.656 207.297 351.944C207.27 352.077 207.257 352.208 207.257 352.336C207.257 352.651 207.345 352.877 207.521 353.016ZM209.217 347.504C209.222 347.408 209.289 347.325 209.417 347.256C209.545 347.181 209.675 347.144 209.809 347.144C209.974 347.144 210.054 347.205 210.049 347.328C209.958 349.088 209.766 350.904 209.473 352.776C209.558 352.819 209.601 352.875 209.601 352.944C209.601 353.024 209.537 353.101 209.409 353.176L209.361 353.472C209.339 353.573 209.262 353.661 209.129 353.736C209.001 353.805 208.873 353.84 208.745 353.84C208.665 353.84 208.601 353.824 208.553 353.792C208.505 353.755 208.489 353.701 208.505 353.632C208.505 353.605 208.507 353.587 208.513 353.576C208.171 353.683 207.889 353.736 207.665 353.736C207.419 353.736 207.198 353.683 207.001 353.576C206.803 353.475 206.659 353.328 206.569 353.136C206.478 352.944 206.433 352.728 206.433 352.488C206.433 352.403 206.443 352.285 206.465 352.136C206.539 351.704 206.699 351.288 206.945 350.888C207.19 350.488 207.499 350.16 207.873 349.904C208.246 349.648 208.649 349.512 209.081 349.496C209.145 348.765 209.19 348.101 209.217 347.504ZM214.762 350.912C214.762 350.347 214.432 349.901 213.77 349.576C213.605 349.715 213.44 349.899 213.274 350.128C213.072 350.421 212.904 350.749 212.77 351.112C212.717 351.256 212.666 351.453 212.618 351.704C212.57 351.949 212.546 352.179 212.546 352.392C212.546 352.611 212.576 352.787 212.634 352.92C212.698 353.048 212.8 353.112 212.938 353.112C213.05 353.112 213.181 353.067 213.33 352.976C213.741 352.736 214.082 352.437 214.354 352.08C214.626 351.723 214.762 351.333 214.762 350.912ZM214.986 349.464C215.178 349.645 215.325 349.851 215.426 350.08C215.533 350.309 215.586 350.552 215.586 350.808C215.586 351.176 215.48 351.549 215.266 351.928C215.122 352.184 214.912 352.453 214.634 352.736C214.357 353.019 214.048 353.259 213.706 353.456C213.37 353.648 213.048 353.744 212.738 353.744C212.546 353.744 212.365 353.701 212.194 353.616C211.832 353.419 211.65 353.064 211.65 352.552C211.65 352.184 211.733 351.781 211.898 351.344C212.064 350.901 212.24 350.528 212.426 350.224C212.88 349.504 213.357 349.051 213.858 348.864C213.997 348.811 214.146 348.784 214.306 348.784C214.493 348.784 214.65 348.832 214.778 348.928C214.906 349.019 214.981 349.163 215.002 349.36V349.392C215.002 349.408 214.997 349.432 214.986 349.464ZM218.313 349.92C218.313 350.123 218.364 350.301 218.465 350.456C218.572 350.611 218.7 350.741 218.849 350.848C218.998 350.955 219.201 351.08 219.457 351.224C219.804 351.421 220.068 351.6 220.249 351.76C220.436 351.92 220.558 352.12 220.617 352.36C220.638 352.467 220.649 352.544 220.649 352.592C220.649 352.965 220.452 353.235 220.057 353.4C219.662 353.56 219.214 353.64 218.713 353.64C218.516 353.64 218.342 353.627 218.193 353.6C218.017 353.568 217.833 353.507 217.641 353.416C217.454 353.32 217.297 353.205 217.169 353.072C217.046 352.933 216.985 352.792 216.985 352.648C216.985 352.424 217.158 352.219 217.505 352.032C217.601 351.984 217.694 351.96 217.785 351.96C217.87 351.96 217.94 351.979 217.993 352.016C218.052 352.053 218.081 352.099 218.081 352.152C218.081 352.248 218.004 352.341 217.849 352.432C217.817 352.448 217.801 352.472 217.801 352.504C217.801 352.568 217.852 352.645 217.953 352.736C218.054 352.827 218.134 352.888 218.193 352.92C218.353 353.011 218.609 353.067 218.961 353.088C219.004 353.093 219.078 353.096 219.185 353.096C219.377 353.096 219.532 353.064 219.649 353C219.766 352.936 219.817 352.819 219.801 352.648C219.78 352.419 219.548 352.16 219.105 351.872L218.801 351.68C218.524 351.509 218.294 351.36 218.113 351.232C217.937 351.099 217.785 350.941 217.657 350.76C217.529 350.573 217.465 350.365 217.465 350.136C217.465 349.992 217.492 349.848 217.545 349.704C217.662 349.357 217.881 349.091 218.201 348.904C218.521 348.712 218.865 348.616 219.233 348.616C219.612 348.616 219.929 348.712 220.185 348.904C220.446 349.096 220.577 349.368 220.577 349.72C220.577 349.832 220.561 349.952 220.529 350.08C220.508 350.176 220.428 350.259 220.289 350.328C220.15 350.397 220.02 350.432 219.897 350.432C219.822 350.432 219.764 350.416 219.721 350.384C219.684 350.352 219.676 350.307 219.697 350.248C219.729 350.136 219.745 350.024 219.745 349.912C219.745 349.736 219.7 349.587 219.609 349.464C219.518 349.341 219.385 349.256 219.209 349.208C219.113 349.187 219.041 349.176 218.993 349.176C218.801 349.176 218.638 349.245 218.505 349.384C218.377 349.517 218.313 349.696 218.313 349.92Z" fill="#999999"/>
<g filter="url(#filter0_i_1584_309)">
<path d="M80.5 456.825C80.5 456.825 85.1429 450.746 85.1429 448.005C85.1429 445.264 83.0642 443.042 80.5 443.042C77.9358 443.042 75.8571 445.264 75.8571 448.005C75.8571 450.746 80.5 456.825 80.5 456.825ZM81.9222 458.138L80.5 460L79.0778 458.138C79.0355 458.083 78.9614 457.984 78.8599 457.847C78.6937 457.622 78.5092 457.368 78.3109 457.089C77.7446 456.292 77.1782 455.45 76.6466 454.597C76.263 453.981 75.9112 453.382 75.5979 452.803C74.5788 450.921 74 449.37 74 448.005C74 444.123 76.9217 441 80.5 441C84.0783 441 87 444.123 87 448.005C87 449.37 86.4212 450.921 85.4021 452.803C85.0888 453.382 84.737 453.981 84.3534 454.597C83.8218 455.45 83.2554 456.292 82.6891 457.089C82.4908 457.368 82.3063 457.622 82.1401 457.847C82.0386 457.984 81.9645 458.083 81.9222 458.138ZM80.5 445C82.0385 445 83.2857 446.343 83.2857 448C83.2857 449.657 82.0385 451 80.5 451C78.9615 451 77.7143 449.657 77.7143 448C77.7143 446.343 78.9615 445 80.5 445ZM80.5 447C79.9872 447 79.5714 447.448 79.5714 448C79.5714 448.552 79.9872 449 80.5 449C81.0128 449 81.4286 448.552 81.4286 448C81.4286 447.448 81.0128 447 80.5 447Z" fill="#F87932" fill-opacity="0.8"/>
</g>
<g filter="url(#filter1_i_1584_309)">
<path d="M193.5 29.8248C193.5 29.8248 198.143 23.7459 198.143 21.0049C198.143 18.2639 196.064 16.0419 193.5 16.0419C190.936 16.0419 188.857 18.2639 188.857 21.0049C188.857 23.7459 193.5 29.8248 193.5 29.8248ZM194.922 31.1379L193.5 33L192.078 31.1379C192.035 31.0825 191.961 30.984 191.86 30.8468C191.694 30.6222 191.509 30.3681 191.311 30.089C190.745 29.2918 190.178 28.4499 189.647 27.5969C189.263 26.9815 188.911 26.3817 188.598 25.8029C187.579 23.9208 187 22.3698 187 21.0049C187 17.1231 189.922 14 193.5 14C197.078 14 200 17.1231 200 21.0049C200 22.3698 199.421 23.9208 198.402 25.8029C198.089 26.3817 197.737 26.9815 197.353 27.5969C196.822 28.4499 196.255 29.2918 195.689 30.089C195.491 30.3681 195.306 30.6222 195.14 30.8468C195.039 30.984 194.965 31.0825 194.922 31.1379ZM193.5 18C195.039 18 196.286 19.3431 196.286 21C196.286 22.6569 195.039 24 193.5 24C191.961 24 190.714 22.6569 190.714 21C190.714 19.3431 191.961 18 193.5 18ZM193.5 20C192.987 20 192.571 20.4477 192.571 21C192.571 21.5523 192.987 22 193.5 22C194.013 22 194.429 21.5523 194.429 21C194.429 20.4477 194.013 20 193.5 20Z" fill="#F87932" fill-opacity="0.8"/>
</g>
<g filter="url(#filter2_i_1584_309)">
<path d="M18.5 104.493C18.5 104.493 22.4286 99.6941 22.4286 97.5302C22.4286 95.3662 20.6697 93.612 18.5 93.612C16.3303 93.612 14.5714 95.3662 14.5714 97.5302C14.5714 99.6941 18.5 104.493 18.5 104.493ZM19.7034 105.53L18.5 107L17.2966 105.53C17.2608 105.486 17.1981 105.408 17.1122 105.3C16.9716 105.123 16.8155 104.922 16.6477 104.702C16.1685 104.073 15.6892 103.408 15.2394 102.734C14.9149 102.249 14.6172 101.775 14.352 101.318C13.4898 99.8322 13 98.6078 13 97.5302C13 94.4656 15.4722 92 18.5 92C21.5278 92 24 94.4656 24 97.5302C24 98.6078 23.5102 99.8322 22.6479 101.318C22.3828 101.775 22.0851 102.249 21.7606 102.734C21.3108 103.408 20.8315 104.073 20.3523 104.702C20.1845 104.922 20.0284 105.123 19.8878 105.3C19.8019 105.408 19.7392 105.486 19.7034 105.53ZM18.5 95.1579C19.8018 95.1579 20.8571 96.2183 20.8571 97.5263C20.8571 98.8344 19.8018 99.8947 18.5 99.8947C17.1982 99.8947 16.1429 98.8344 16.1429 97.5263C16.1429 96.2183 17.1982 95.1579 18.5 95.1579ZM18.5 96.7368C18.0661 96.7368 17.7143 97.0903 17.7143 97.5263C17.7143 97.9623 18.0661 98.3158 18.5 98.3158C18.9339 98.3158 19.2857 97.9623 19.2857 97.5263C19.2857 97.0903 18.9339 96.7368 18.5 96.7368Z" fill="#39BFA7" fill-opacity="0.8"/>
</g>
<g filter="url(#filter3_i_1584_309)">
<path d="M205.5 372.493C205.5 372.493 209.429 367.694 209.429 365.53C209.429 363.366 207.67 361.612 205.5 361.612C203.33 361.612 201.571 363.366 201.571 365.53C201.571 367.694 205.5 372.493 205.5 372.493ZM206.703 373.53L205.5 375L204.297 373.53C204.261 373.486 204.198 373.408 204.112 373.3C203.972 373.123 203.815 372.922 203.648 372.702C203.169 372.073 202.689 371.408 202.239 370.734C201.915 370.249 201.617 369.775 201.352 369.318C200.49 367.832 200 366.608 200 365.53C200 362.466 202.472 360 205.5 360C208.528 360 211 362.466 211 365.53C211 366.608 210.51 367.832 209.648 369.318C209.383 369.775 209.085 370.249 208.761 370.734C208.311 371.408 207.831 372.073 207.352 372.702C207.185 372.922 207.028 373.123 206.888 373.3C206.802 373.408 206.739 373.486 206.703 373.53ZM205.5 363.158C206.802 363.158 207.857 364.218 207.857 365.526C207.857 366.834 206.802 367.895 205.5 367.895C204.198 367.895 203.143 366.834 203.143 365.526C203.143 364.218 204.198 363.158 205.5 363.158ZM205.5 364.737C205.066 364.737 204.714 365.09 204.714 365.526C204.714 365.962 205.066 366.316 205.5 366.316C205.934 366.316 206.286 365.962 206.286 365.526C206.286 365.09 205.934 364.737 205.5 364.737Z" fill="#39BFA7" fill-opacity="0.8"/>
</g>
<g filter="url(#filter4_i_1584_309)">
<path d="M293.5 181.493C293.5 181.493 297.429 176.694 297.429 174.53C297.429 172.366 295.67 170.612 293.5 170.612C291.33 170.612 289.571 172.366 289.571 174.53C289.571 176.694 293.5 181.493 293.5 181.493ZM294.703 182.53L293.5 184L292.297 182.53C292.261 182.486 292.198 182.408 292.112 182.3C291.972 182.123 291.815 181.922 291.648 181.702C291.169 181.073 290.689 180.408 290.239 179.734C289.915 179.249 289.617 178.775 289.352 178.318C288.49 176.832 288 175.608 288 174.53C288 171.466 290.472 169 293.5 169C296.528 169 299 171.466 299 174.53C299 175.608 298.51 176.832 297.648 178.318C297.383 178.775 297.085 179.249 296.761 179.734C296.311 180.408 295.831 181.073 295.352 181.702C295.185 181.922 295.028 182.123 294.888 182.3C294.802 182.408 294.739 182.486 294.703 182.53ZM293.5 172.158C294.802 172.158 295.857 173.218 295.857 174.526C295.857 175.834 294.802 176.895 293.5 176.895C292.198 176.895 291.143 175.834 291.143 174.526C291.143 173.218 292.198 172.158 293.5 172.158ZM293.5 173.737C293.066 173.737 292.714 174.09 292.714 174.526C292.714 174.962 293.066 175.316 293.5 175.316C293.934 175.316 294.286 174.962 294.286 174.526C294.286 174.09 293.934 173.737 293.5 173.737Z" fill="#39BFA7" fill-opacity="0.8"/>
</g>
<defs>
<filter id="filter0_i_1584_309" x="74" y="441" width="13" height="20" filterUnits="userSpaceOnUse" color-interpolation-filters="sRGB">
<feFlood flood-opacity="0" result="BackgroundImageFix"/>
<feBlend mode="normal" in="SourceGraphic" in2="BackgroundImageFix" result="shape"/>
<feColorMatrix in="SourceAlpha" type="matrix" values="0 0 0 0 0 0 0 0 0 0 0 0 0 0 0 0 0 0 127 0" result="hardAlpha"/>
<feOffset dy="1"/>
<feGaussianBlur stdDeviation="1"/>
<feComposite in2="hardAlpha" operator="arithmetic" k2="-1" k3="1"/>
<feColorMatrix type="matrix" values="0 0 0 0 0.176993 0 0 0 0 0 0 0 0 0 0 0 0 0 0.4 0"/>
<feBlend mode="normal" in2="shape" result="effect1_innerShadow_1584_309"/>
</filter>
<filter id="filter1_i_1584_309" x="187" y="14" width="13" height="20" filterUnits="userSpaceOnUse" color-interpolation-filters="sRGB">
<feFlood flood-opacity="0" result="BackgroundImageFix"/>
<feBlend mode="normal" in="SourceGraphic" in2="BackgroundImageFix" result="shape"/>
<feColorMatrix in="SourceAlpha" type="matrix" values="0 0 0 0 0 0 0 0 0 0 0 0 0 0 0 0 0 0 127 0" result="hardAlpha"/>
<feOffset dy="1"/>
<feGaussianBlur stdDeviation="1"/>
<feComposite in2="hardAlpha" operator="arithmetic" k2="-1" k3="1"/>
<feColorMatrix type="matrix" values="0 0 0 0 0.176993 0 0 0 0 0 0 0 0 0 0 0 0 0 0.4 0"/>
<feBlend mode="normal" in2="shape" result="effect1_innerShadow_1584_309"/>
</filter>
<filter id="filter2_i_1584_309" x="13" y="92" width="11" height="17" filterUnits="userSpaceOnUse" color-interpolation-filters="sRGB">
<feFlood flood-opacity="0" result="BackgroundImageFix"/>
<feBlend mode="normal" in="SourceGraphic" in2="BackgroundImageFix" result="shape"/>
<feColorMatrix in="SourceAlpha" type="matrix" values="0 0 0 0 0 0 0 0 0 0 0 0 0 0 0 0 0 0 127 0" result="hardAlpha"/>
<feOffset dy="2"/>
<feGaussianBlur stdDeviation="2"/>
<feComposite in2="hardAlpha" operator="arithmetic" k2="-1" k3="1"/>
<feColorMatrix type="matrix" values="0 0 0 0 0.176993 0 0 0 0 0 0 0 0 0 0 0 0 0 0.4 0"/>
<feBlend mode="normal" in2="shape" result="effect1_innerShadow_1584_309"/>
</filter>
<filter id="filter3_i_1584_309" x="200" y="360" width="11" height="17" filterUnits="userSpaceOnUse" color-interpolation-filters="sRGB">
<feFlood flood-opacity="0" result="BackgroundImageFix"/>
<feBlend mode="normal" in="SourceGraphic" in2="BackgroundImageFix" result="shape"/>
<feColorMatrix in="SourceAlpha" type="matrix" values="0 0 0 0 0 0 0 0 0 0 0 0 0 0 0 0 0 0 127 0" result="hardAlpha"/>
<feOffset dy="2"/>
<feGaussianBlur stdDeviation="2"/>
<feComposite in2="hardAlpha" operator="arithmetic" k2="-1" k3="1"/>
<feColorMatrix type="matrix" values="0 0 0 0 0.176993 0 0 0 0 0 0 0 0 0 0 0 0 0 0.4 0"/>
<feBlend mode="normal" in2="shape" result="effect1_innerShadow_1584_309"/>
</filter>
<filter id="filter4_i_1584_309" x="288" y="169" width="11" height="17" filterUnits="userSpaceOnUse" color-interpolation-filters="sRGB">
<feFlood flood-opacity="0" result="BackgroundImageFix"/>
<feBlend mode="normal" in="SourceGraphic" in2="BackgroundImageFix" result="shape"/>
<feColorMatrix in="SourceAlpha" type="matrix" values="0 0 0 0 0 0 0 0 0 0 0 0 0 0 0 0 0 0 127 0" result="hardAlpha"/>
<feOffset dy="2"/>
<feGaussianBlur stdDeviation="2"/>
<feComposite in2="hardAlpha" operator="arithmetic" k2="-1" k3="1"/>
<feColorMatrix type="matrix" values="0 0 0 0 0.176993 0 0 0 0 0 0 0 0 0 0 0 0 0 0.4 0"/>
<feBlend mode="normal" in2="shape" result="effect1_innerShadow_1584_309"/>
</filter>
</defs>
</svg>
