<svg width="13" height="11" viewBox="0 0 13 11" fill="none" xmlns="http://www.w3.org/2000/svg">
<path fill-rule="evenodd" clip-rule="evenodd" d="M12.1771 1.28812C12.3498 0.45811 11.5229 -0.231646 10.7213 0.0737199L0.895089 3.81683C-0.000110909 4.15784 -0.0399988 5.39204 0.831359 5.78852L2.97124 6.7623L3.9892 10.2751C4.04208 10.4575 4.18894 10.5988 4.37525 10.6464C4.56157 10.694 4.75952 10.6408 4.89562 10.5066L6.46369 8.9606L8.66027 10.5849C9.29789 11.0563 10.2162 10.7129 10.3764 9.94316L12.1771 1.28812ZM1.28663 4.81598L11.1129 1.07288L9.31212 9.72797L6.73866 7.82498C6.52241 7.66506 6.21979 7.68626 6.02863 7.87473L5.35701 8.53691L5.55881 7.44269L9.51289 3.54423C9.70535 3.35451 9.72566 3.05367 9.56047 2.84044C9.39528 2.62721 9.09559 2.5674 8.8593 2.70052L3.3986 5.77701L1.28663 4.81598ZM4.06442 6.63558L4.39381 7.77228L4.52027 7.08648C4.54004 6.97931 4.59249 6.88061 4.67062 6.80359L5.87648 5.61473L4.06442 6.63558Z" fill="#999999"/>
</svg>
