<svg width="14" height="12" viewBox="0 0 14 12" fill="none" xmlns="http://www.w3.org/2000/svg">
<path d="M11.9197 3.58467V3.92148C11.9197 7.31317 9.31794 11.2 4.55718 11.2C3.15175 11.203 1.77616 10.799 0.600098 10.038C0.804346 10.0654 1.01037 10.0778 1.21648 10.075C2.38147 10.0782 3.5137 9.69385 4.43118 8.98376C3.88995 8.97587 3.365 8.79946 2.93095 8.4796C2.49689 8.15974 2.17581 7.7127 2.01334 7.20203C2.17456 7.23583 2.33892 7.25276 2.50372 7.25255C2.73384 7.2526 2.96293 7.22201 3.1848 7.16161C2.59859 7.04603 2.0712 6.73255 1.69289 6.27482C1.31458 5.81709 1.10885 5.24356 1.11091 4.65236V4.61868C1.46957 4.81683 1.87167 4.9255 2.28237 4.93528C1.73566 4.57946 1.34696 4.0306 1.19569 3.40084C1.04442 2.77107 1.14199 2.10795 1.46848 1.54695C2.119 2.33829 2.93062 2.98536 3.85057 3.44611C4.77053 3.90685 5.77823 4.17095 6.80815 4.22124C6.75717 4.03007 6.7331 3.83286 6.73664 3.63519C6.71746 3.11276 6.86155 2.59718 7.14927 2.15866C7.437 1.72013 7.85439 1.37997 8.3446 1.18448C8.83481 0.988998 9.37403 0.947693 9.88883 1.06619C10.4036 1.18469 10.869 1.45724 11.2216 1.84672C11.8011 1.73104 12.357 1.52044 12.8664 1.22361C12.6732 1.82697 12.2623 2.3389 11.7119 2.6618C12.226 2.59174 12.7272 2.44881 13.2001 2.23742C12.8574 2.75801 12.4238 3.21419 11.9197 3.58467Z" stroke="#999999" stroke-width="1.2" stroke-linecap="round" stroke-linejoin="round"/>
</svg>
