<svg width="11" height="11" viewBox="0 0 11 11" fill="none" xmlns="http://www.w3.org/2000/svg">
<path fill-rule="evenodd" clip-rule="evenodd" d="M5.2595 10.1186C4.69672 10.1186 4.38534 10.0582 3.87969 9.88863L2.91126 10.3729C2.29963 10.6787 1.58 10.2339 1.58 9.55008V8.50883C0.589555 7.58527 0.200195 6.52038 0.200195 5.0593C0.200195 2.26513 2.46532 0 5.2595 0C8.05366 0 10.3188 2.26513 10.3188 5.0593C10.3188 7.85346 8.05366 10.1186 5.2595 10.1186ZM2.49988 8.10882L2.20733 7.83603C1.43782 7.11853 1.12007 6.31635 1.12007 5.0593C1.12007 2.77316 2.97335 0.919873 5.2595 0.919873C7.54566 0.919873 9.39892 2.77316 9.39892 5.0593C9.39892 7.34546 7.54566 9.19873 5.2595 9.19873C4.80614 9.19873 4.59351 9.15779 4.17218 9.0165L3.80999 8.89503L2.49988 9.55008V8.10882Z" fill="#999999"/>
</svg>
